/* XPM */
static const char *door_0_64x64[] = {
/* columns rows colors chars-per-pixel */
"64 64 109 2 ",
"   c #16171B",
".  c #1A1B1E",
"X  c #1D1E21",
"o  c #1E1C2B",
"O  c #201E2E",
"+  c #211F30",
"@  c #1F2023",
"#  c #232325",
"$  c #24252B",
"%  c #27282D",
"&  c #2A2B2B",
"*  c #242334",
"=  c #282735",
"-  c #2A2C33",
";  c #262438",
":  c #28263B",
">  c #2B283F",
",  c #2F3136",
"<  c #313236",
"1  c #33353B",
"2  c #36383D",
"3  c #2C2941",
"4  c #302E47",
"5  c #312E48",
"6  c #363840",
"7  c #3B3D44",
"8  c #34314D",
"9  c #35314E",
"0  c #35324E",
"q  c #36354D",
"w  c #37364F",
"e  c #34314C",
"r  c #393751",
"t  c #393753",
"y  c #393554",
"u  c #3B3756",
"i  c #393554",
"p  c #3A3853",
"a  c #3A3854",
"s  c #3B3954",
"d  c #3C3959",
"f  c #3D3B58",
"g  c #3D3A5A",
"h  c #3D3A5B",
"j  c #3D3A5A",
"k  c #403E5D",
"l  c #403C5E",
"z  c #403E5E",
"x  c #413E5E",
"c  c #413E5F",
"v  c #423F60",
"b  c #423E61",
"n  c #433F62",
"m  c #433F63",
"M  c #3E4045",
"N  c #3E4048",
"B  c #404249",
"V  c #404349",
"C  c #40434B",
"Z  c #41444B",
"A  c #434062",
"S  c #434063",
"D  c #444163",
"F  c #444064",
"G  c #444065",
"H  c #444165",
"J  c #454265",
"K  c #454166",
"L  c #454267",
"P  c #464367",
"I  c #454166",
"U  c #464268",
"Y  c #474368",
"T  c #474468",
"R  c #474469",
"E  c #48446A",
"W  c #48456A",
"Q  c #48456B",
"!  c #4A466D",
"~  c #4A476D",
"^  c #4A466E",
"/  c #4A476E",
"(  c #4B476E",
")  c #4B476F",
"_  c #4B486F",
"`  c #4B4870",
"'  c #4C4870",
"]  c #4C4871",
"[  c #4D4971",
"{  c #4D4972",
"}  c #4D4973",
"|  c #4E4A73",
" . c #4E4A74",
".. c #4F4B74",
"X. c #4F4A75",
"o. c #4F4B75",
"O. c #4F4B76",
"+. c #4D4972",
"@. c #504C77",
"#. c #524E79",
"$. c #534F7B",
"%. c #544F7B",
"&. c #56517E",
"*. c #5E598A",
"=. c #5F5A8B",
"-. c #645F92",
";. c #656093",
":. c #676296",
">. c #6D689F",
/* pixels */
"3 3 3 3 3 3 3 3 3 3 3 3 3 3 3 3 3 3 3 3 3 3 3 3 3 3 3 3 3 3 3 3 3 3 3 3 3 3 3 3 3 3 3 3 3 3 3 3 3 3 3 3 3 3 3 3 3 3 3 3 3 3 3 3 ",
"3 4 y h h h h h h h h h h h h h h h h h h h h h h h h h h h h h h h h h h h h h h h h h h h h h h h h h h h h h h h h h h y 4 3 ",
"> 8 L  . .| | | | | | | | | | | | | | | | | | | | | | | | | | | | | | | | | | | | | | | | | | | | | | | | | | | | | | |  .L 8 > ",
"> 8 L | | | | | | | | | | | | | | | | | | | | | | | | | | | | | | | | | | | | | | | | | | | | | | | | | | | | | | | | | | L 8 > ",
"> 8 L | | | | | | | | | | | | | | | | | | | | | | | | | | | | | | | | | | | | | | | | | | | | | | | | | | | | | | | | | | L 8 > ",
"> 8 L | | | | | | | | | | | | | | | | | | | | | | | | | | | | | | | | | | | | | | | | | | | | | | | | | | | | | | | | | | L 8 > ",
"> 8 L | | | | | | | | | | | | | | | | | | | | | | | | | | | | | | | | | | | | | | | | | | | | | | | | | | | | | | | | | | L 8 > ",
"> 8 L | | | | | | | | | | | | | | | | | | | | | | | | | | | | | | | | | | | | | | | | | | | | | | | | | | | | | | | | | | L 8 > ",
"> 8 L | | | | | | | | | | | | | | | | | | | | | | | | | | | | | | | | | | | | | | | | | | | | | | | | | | | | | | | | | | L 8 > ",
"> 8 L | | | | | | | | | | | | | | | | | | | | | | | | | | | | | | | | | | | | | | | | | | | | | | | | | | | | | | | | | | L 8 > ",
"> 8 L | | | | | | | | | | | | | | | | | | | | | | | | | | | | | | | | | | | | | | | | | | | | | | | | | | | | | | | | | | L 8 > ",
"> 8 L | | | | | | | | | | | | | | | | | | | | | | | | | | | | | | | | | | | | | | | | | | | | | | | | | | | | | | | | | | L 8 > ",
"> 8 L | | | | | | | | | | | | | | | | | | | | | | | | | | | | | | | | | | | | | | | | | | | | | | | | | | | | | | | | | | L 8 > ",
"> 8 L | | | | | | | | | | | | | | | | | | | | | | | | | | | | | | | | | | | | | | | | | | | | | | | | | | | | | | | | | | L 8 > ",
"> 8 L | | | | | | | | | | | | | | | | | | | | | | |  . . . . . . . . . . . .| | | | | | | | | | | | | | | | | | | | | | | L 8 > ",
"> 8 L | | | | | | | | | | | | | | | | | | | | | | ) Y L L L L L L L L L L Y ) | | | | | | | | | | | | | | | | | | | | | | L 8 > ",
"> 8 L | | | | | | | | | | | | | | | | | | | | |  .A > $ $ $ $ $ $ $ $ $ $ > A  .| | | | | | | | | | | | | | | | | | | | | L 8 > ",
"> 8 L | | | | | | | | | | | | | | | | | | |  .Q p > # # , < # . . $ < , # # > s Q  .| | | | | | | | | | | | | | | | | | | L 8 > ",
"> 8 L | | | | | | | | | | | | | | | | | | | L r $ X % < 7 6 & X X & 6 7 < % @ * r L _ | | | | | | | | | | | | | | | | | | L 8 > ",
"> 8 L | | | | | | | | | | | | | | | | | | v > # # & M 7 % X . . . . X % 7 M & # # > v | | | | | | | | | | | | | | | | | | L 8 > ",
"> 8 L | | | | | | | | | | | | | | |  .R q = # # 1 7 M 1 @ . X # # X . @ 1 7 7 1 # # : q Q  .| | | | | | | | | | | | | | | L 8 > ",
"> 8 L | | | | | | | | | | | | | | ) D q $ @ & 1 C C 6 - X . # & & # . X - 6 C C 1 & @ $ q D ) | | | | | | | | | | | | | | L 8 > ",
"> 8 L | | | | | | | | | | | | | | v : X # & M Z 6 < < - X . # & & # . X - < < 6 Z M & # @ : v  .| | | | | | | | | | | | | L 8 > ",
"> 8 L | | | | | | | | | | | | | | k * # 2 7 , % # X @ # $ # @ X X @ # $ # @ @ # $ , 7 2 $ * k  .| | | | | | | | | | | | | L 8 > ",
"> 8 L | | | | | | | | | | | | |  .k = $ 2 2 #   . X X @ # # # X X @ # # @ . X .   # 2 2 $ = k  .| | | | | | | | | | | | | L 8 > ",
"> 8 L | | | | | | | | | | | | |  .k = X # # . . # & & # . . # & & # . . # & & # . . # # X = k  .| | | | | | | | | | | | | L 8 > ",
"> 8 L | | | | | | | | | | | | |  .k = X @ . . . # & & # . . # & & # . . # & & # . . . # X = k  .| | | | | | | | | | | | | L e > ",
"> 8 L | | | | | | | | | | | | |  .k = # - - X . X # # # # # # # # # # # # # # X . X - - # = k  .| | | | | | | | | | | | | L e > ",
"> e L | | | | | | | | | | | | |  .k = $ 7 7 % X . . . X $ $ X . . X $ $ X . . . X % 7 7 $ = k  .| | | | | | | | | | | | | L 8 > ",
"> e L | | | | | | | | | | | | |  .k = X $ < 7 7 < - - % @ X # # # # X @ % - - < 7 7 < $ X * k  .| | | | | | | | | | | | | L 8 > ",
"> 8 L | | | | | | | | | | | | | | R p > # # < 7 N 7 2 - X . # & & # . X - 2 7 N 7 < # # > r Y | | | | | | | | | | | | | | L 8 > ",
"> 8 L | | | | | | | | | | | | | | |  .A 3 $ # & 7 Z 7 - X . # & % # . X - 7 Z 7 & # $ > A | | | | | | | | | | | | | | | | L 8 3 ",
"> 8 L | | | | | | | | | | | | | | | | | Q s * X # < C 7 $   . . . .   $ 7 C < # X * s Q | | | | | | | | | | | | | | | | | L 8 3 ",
"3 8 Y  . . . . . . . . . . . . . . . .@.@.) h 3 $ # < 2 2 , # . . # , 2 2 < # $ 3 h ) @.O. . . . . . . . . . . . . . . . .Y 8 3 ",
": 3 h S A v v v v v v v v v v v v v v A L Q | L 4 $ # & 6 7 & # # & 7 6 & # $ 4 L | Q L A v v v v v v v v v v v v v v A L h 3 : ",
"O O * * * * * * * * * * * * * * * * * * : e L | ) f - X # $ X X X X $ # X = h ) | L e : * * * * * * * * * * * * * * * * * * O O ",
"; * + O O O O O O O O O O O O O O O O o o * 3 h ) ) k p r p s s s s r r p k _ ) h 3 * o o O O O O O O O O O O O O O O O O + * ; ",
"3 3 4 5 4 4 4 4 4 4 4 4 4 4 5 5 4 4 5 3 3 : * > y S L L L L L L L L L L L L L y > * : 3 3 4 5 5 4 4 4 4 4 4 4 4 4 5 5 5 4 4 3 3 ",
"3 e v ) ) ) ) ) ) ` ` ` ' ) ) ) ) ) ) ) ) h > + = : : : : : : : : : : : : : : = + > k ) ) ) ) ) ) ) ) ` ) _ ) ) ) ) ) ) ) v e 3 ",
"> 8 L  . .| | $.=.;.-.-.;.=.$.| | | |  . .) v 8 * o o o o o o o o o o o o o o * 8 v )  . . . .| | $.=.;.-.-.;.=.$.| |  . .L 8 > ",
"> e L | | | | $.=.:.>.>.:.=.$.| | | | | | |  .Y 8 3 3 3 3 3 3 3 3 3 3 3 3 3 3 8 Y  .| | | | | | | $.=.:.>.>.:.=.$.| | | | L 8 > ",
"> e L | | | | | | &.;.;.&.| | | | | | | | | | | ` ) ) ) ) ) ) ) ) ) ) ) ) ) ) ) | | | | | | | | | | | &.-.-.&.| | | | | | L 8 > ",
"> 8 L | | | | | |  .%.%. .| | | | | | | | | | | | | | | | | | | | | | | | | | | | | | | | | | | | | |  .$.$. .| | | | | | L 8 > ",
"> 8 L | | | | | | | | | | | | | | | | | | | | | | | | | | | | | | | | | | | | | | | | | | | | | | | | | | | | | | | | | | L 8 > ",
"> 8 L | | | | | | | | | | | | | | | | | | | | | | | | | | | | | | | | | | | | | | | | | | | | | | | | | | | | | | | | | | L 8 > ",
"> 8 L | | | | | | | | | | | | | | | | | | | | | | | | | | | | | | | | | | | | | | | | | | | | | | | | | | | | | | | | | | L 8 > ",
"> 8 L | | | | | | | | | | | | | | | | | | | | | | | | | | | | | | | | | | | | | | | | | | | | | | | | | | | | | | | | | | L 8 > ",
"> 8 L | | | | | | | | | | | | | | | | | | | | | | | | | | | | | | | | | | | | | | | | | | | | | | | | | | | | | | | | | | L 8 > ",
"> 8 L | | | | | | | | | | | | | | | | | | | | | | | | | | | | | | | | | | | | | | | | | | | | | | | | | | | | | | | | | | L 8 > ",
"> 8 L | | | | | | | | | | | | | | | | | | | | | | | | | | | | | | | | | | | | | | | | | | | | | | | | | | | | | | | | | | L 8 > ",
"> 8 L | | | | | | | | | | | | | | | | | | | | | | | | | | | | | | | | | | | | | | | | | | | | | | | | | | | | | | | | | | L e > ",
"> 8 L | | | | | | | | | | | | | | | | | | | | | | | | | | | | | | | | | | | | | | | | | | | | | | | | | | | | | | | | | | L e > ",
"> e L | | | | | | | | | | | | | | | | | | | | | | | | | | | | | | | | | | | | | | | | | | | | | | | | | | | | | | | | | | L 8 > ",
"> e L | | | | | | | | | | | | | | | | | | | | | | | | | | | | | | | | | | | | | | | | | | | | | | | | | | | | | | | | | | L 8 > ",
"> 8 L | | | | | | | | | | | | | | | | | | | | | | | | | | | | | | | | | | | | | | | | | | | | | | | | | | | | | | | | | | L 8 > ",
"> 8 L | | | | | | | | | | | | | | | | | | | | | | | | | | | | | | | | | | | | | | | | | | | | | | | | | | | | | | | | | | L 8 > ",
"> 8 L | | | | | | | | | | | | | | | | | | | | | | | | | | | | | | | | | | | | | | | | | | | | | | | | | | | | | | | | | | L 8 > ",
"> 8 L | | | | | | | | | | | | | | | | | | | | | | | | | | | | | | | | | | | | | | | | | | | | | | | | | | | | | | | | | | L 8 > ",
"> 8 L | | | | | | | | | | | | | | | | | | | | | | | | | | | | | | | | | | | | | | | | | | | | | | | | | | | | | | | | | | L 8 > ",
"> 8 L | | | | | | | | | | | | | | | | | | | | | | | | | | | | | | | | | | | | | | | | | | | | | | | | | | | | | | | | | | L 8 > ",
"> 8 L | | | | | | | | | | | | | | | | | | | | | | | | | | | | | | | | | | | | | | | | | | | | | | | | | | | | | | | | | | L 8 > ",
"> 8 L  . .| | | | | | | | | | | | | | | | | | | | | | | | | | | | | | | | | | | | | | | | | | | | | | | | | | | | | | |  .L 8 > ",
"3 4 y h h h h h h h h h h h h h h h h h h h h h h h h h h h h h h h h h h h h h h h h h h h h h h h h h h h h h h h h h h y 4 3 ",
"3 3 3 3 3 3 3 3 3 3 3 3 3 3 3 3 3 3 3 3 3 3 3 3 3 3 3 3 3 3 3 3 3 3 3 3 3 3 3 3 3 3 3 3 3 3 3 3 3 3 3 3 3 3 3 3 3 3 3 3 3 3 3 3 "
};
