/* XPM */
static const char *airlock_10[] = {
/* columns rows colors chars-per-pixel */
"64 64 115 2 ",
"   c #16161A",
".  c #17181B",
"X  c #1A1B1E",
"o  c #1C1C24",
"O  c #1E1C2B",
"+  c #201E2E",
"@  c #211F30",
"#  c #1F2024",
"$  c #222325",
"%  c #24252A",
"&  c #26282D",
"*  c #2A2A2B",
"=  c #252434",
"-  c #2A2B33",
";  c #29263B",
":  c #2A283F",
">  c #2E3036",
",  c #313337",
"<  c #33353A",
"1  c #37393E",
"2  c #2C2940",
"3  c #302D46",
"4  c #312F49",
"5  c #353740",
"6  c #373941",
"7  c #3B3D43",
"8  c #34304D",
"9  c #34314D",
"0  c #35344C",
"q  c #36344D",
"w  c #37354E",
"e  c #37354F",
"r  c #33304C",
"t  c #383552",
"y  c #383453",
"u  c #393654",
"i  c #3A3756",
"p  c #3A3756",
"a  c #3B3858",
"s  c #3C3858",
"d  c #3C3859",
"f  c #3C3959",
"g  c #3F3C5B",
"h  c #3F3D5C",
"j  c #3C3958",
"k  c #403D5D",
"l  c #403D5E",
"z  c #403D5F",
"x  c #403E5E",
"c  c #413E5E",
"v  c #413E5F",
"b  c #413D60",
"n  c #413E60",
"m  c #413E61",
"M  c #423F60",
"N  c #423E61",
"B  c #423E62",
"V  c #433F63",
"C  c #3D4046",
"Z  c #3E4046",
"A  c #3E4146",
"S  c #3F4147",
"D  c #3F4249",
"F  c #404249",
"G  c #40434B",
"H  c #41434B",
"J  c #42454D",
"K  c #434062",
"L  c #444063",
"P  c #444164",
"I  c #444065",
"U  c #444165",
"Y  c #454165",
"T  c #454166",
"R  c #454167",
"E  c #444065",
"W  c #474368",
"Q  c #474469",
"!  c #47446A",
"~  c #48446A",
"^  c #48446B",
"/  c #49456C",
"(  c #4A466D",
")  c #4A466E",
"_  c #4A476E",
"`  c #4B476F",
"'  c #4A466D",
"]  c #4B4770",
"[  c #4B4770",
"{  c #4C4870",
"}  c #4C4871",
"|  c #4D4872",
" . c #4D4972",
".. c #4D4973",
"X. c #4E4973",
"o. c #4E4A73",
"O. c #4E4A74",
"+. c #4E4A75",
"@. c #4F4A75",
"#. c #4F4B75",
"$. c #4D4972",
"%. c #504B76",
"&. c #514C77",
"*. c #514D78",
"=. c #534F7B",
"-. c #534F7A",
";. c #585381",
":. c #5A5685",
">. c #5B5686",
",. c #5C5787",
"<. c #625D90",
"1. c #6A659B",
"2. c #6B669D",
"3. c #696499",
"4. c None",
/* pixels */
"2 2 2 2 2 2 2 2 : : : 2 2 2 2 2 2 2 2 2 : : 2 2 2 2 2 2 2 2 2 2 : : : 2 2 2 2 2 2 2 2 2 : : 2 2 2 2 2 2 2 2 2 2 2 2 2 2 2 2 2 2 ",
"2 2 y f f f f f f f f f f f f f f f f f f f f f f f f f f f f f f f f f f f f f f f f f f f f f f f f f f f f f f f f f f y 2 2 ",
": r U ....................................................................................................................U r : ",
": r U ....................................................................................................................U r : ",
": r U ....................................................................................................................U r : ",
": r U ....................................................................................................................U r : ",
": r U ....................................................................................................................U r : ",
": r U ....................................................................................................................U r : ",
": r U ....................................................................................................................U r : ",
": r U ....................................................................................................................U r : ",
": r U ....................................................................................................................U r : ",
": r U ....................................................................................................................U r : ",
": r U ....................................................................................................................U r : ",
": r U ..............................................O.O.....O...O.O.O.....................................................U r : ",
": r U ............................................) U v v v v v v v v v v L ) ............................................U r : ",
": r U ............................................v : % % % % % % % % % % : v ............................................U r : ",
": r U ......................................O.Q q : $ $ , < % X X % < , $ $ : q Q O.......................................U r : ",
": r U ....................................) U q % o * , 7 1 & X X & 1 7 , * o % q U ) ....................................U r : ",
": r U ....................................v : # $ * Z 7 & . . . . . X & 7 Z * $ # : v ....................................U r : ",
": r U ..............................O.U q - $ $ < 7 7 < o . o $ $ # . # < 7 Z < $ $ - q W O...............................U r : ",
": r U ............................) L q % # * < H H 5 - o . $ * * $ . o - 5 H H < * # % q L ) ............................U r : ",
": r U ............................v : # $ * 7 H 6 , , - o X $ * * $ X o - , , 6 H 7 * $ # : n ............................U r : ",
": r U ............................v = $ < 6 , & % # $ $ $ $ # o o # $ $ $ # # % & , 6 < $ = v ............................U r : ",
": r U ............................v = % 1 1 $   . X X # $ $ # X X o $ $ o X X .   $ 1 1 % = v ............................U r : ",
": r U ............................v - o $ $ . . $ * * $ X X $ * * $ X X $ * * $ X X $ $ o = v ............................U r : ",
": r U ............................v = X X X . X $ * * $ . . $ * * $ . . $ * * $ X . X # X = v ............................U r : ",
": r U ............................v - $ * * o . $ $ $ $ + + $ $ $ $ $ # $ $ $ $ . o * * # = v ............................U r : ",
": r U ............................v = & 7 7 % . . . . o & % o . . o % % o . . . . % 7 7 % = v ............................U r : ",
": r U ............................v = o * < 6 < - % & % $ # $ $ $ $ # $ % & % - < 6 < * o = v ............................U r : ",
": r U ............................U r = $ % 1 Z 7 6 < - o X $ * * $ . o - < 6 7 Z 1 & $ = r U ............................U r : ",
": r U ..............................] g - o $ - Z J 6 - o . $ * * $ . o - 6 J Z - $ o - g ) ..............................U r : ",
": r U ..............................O.) n 0 % # * < D 6 $   . X o .   $ 6 D < * # % 0 n ) ................................U r : ",
": 9 U O.O.............................O.%.W 0 = $ % 1 7 > % o . . o % > 7 1 % $ = 0 W %.O.............................O.O.U 9 : ",
": 4 n ) ) ) ) ) ) ) ) ) ) ) ) ) ) ) ) ) ) ) ) h - o $ - Z 7 * $ $ * 7 Z - $ o - h ) ) ) ) ) ) ) ) ) ) ) ) ) ) ) ) ) ) ) ) n 4 : ",
"@ = : 2 2 2 2 2 2 2 2 2 2 2 2 2 2 2 2 2 4 i ~ ..K 0 % o % & $ X X $ & % o % 0 K ..~ y 4 2 2 2 2 2 2 2 2 2 2 2 2 2 2 2 2 2 : = @ ",
"O O o o o o o o o o o o o o o o o o o O + ; y U ..Q q : : : : : : : : : : q Q ..U y ; + O o o o o o o o o o o o o o o o o o O O ",
"4.4.4.4.4.4.4.4.4.4.4.4.4.4.4.4.4.4.4.4.O + = 2 n ) ) ~ ~ ~ ~ ~ ~ ~ ~ ~ ~ ~ ) n 2 = + O 4.4.4.4.4.4.4.4.4.4.4.4.4.4.4.4.4.4.4.4.",
"4.4.4.4.4.4.4.4.4.4.4.4.4.4.4.4.4.4.4.4.4.4.O = 2 4 r r r r r r r r r r r r 4 2 = O 4.4.4.4.4.4.4.4.4.4.4.4.4.4.4.4.4.4.4.4.4.4.",
"4.4.4.4.4.4.4.4.4.4.4.4.4.4.4.4.4.4.4.4.4.4.4.O + @ @ @ @ @ @ @ = = = @ + + @ + O 4.4.4.4.4.4.4.4.4.4.4.4.4.4.4.4.4.4.4.4.4.4.4.",
"2 : : ; ; ; ; ; ; ; ; ; ; ; ; : ; ; ; ; 4.4.4.4.O O O O O O O O O O O O O O O O 4.4.4.4.; ; ; ; ; ; ; ; ; ; ; ; ; ; ; : ; : : 2 ",
"2 4 f n n v v v v v v v v v n n v n n a 2 = 4.4.4.4.4.4.4.4.4.4.4.4.4.4.4.4.4.4.4.4.= 2 a n n n n n v v v v v v n n n n n f 4 2 ",
": 9 U O.......=.;.>.>.>.>.;.=.......O.Q i 4 : 4.4.4.4.4.4.4.4.4.4.4.4.4.4.4.4.4.4.: 4 i Q O.O.....&.;.>.>.>.>.;.=.....O.O.U 9 : ",
": r U ........=.<.1.2.2.1.<.=.............n 4 ; 4.4.4.4.4.4.4.4.4.4.4.4.4.4.4.4.; 4 n ............=.<.1.2.2.1.<.=.........U r : ",
": r U ..........=.,.1.1.,.=.O.............) U f 2 = = = = = = = = = = = = = = 2 f U ) ..............=.,.1.1.,.=.O.........U r : ",
": r U ..........) &.>.>.&.] ..................~ i 9 9 9 9 9 9 9 9 9 9 9 9 0 0 i ~ ..................) &.>.>.&.] ..........U r : ",
": r U ..................................................{ { { { ............{ { ..........................................U r : ",
": r U ....................................................................................................................U r : ",
": r U ....................................................................................................................U r : ",
": r U ....................................................................................................................U r : ",
": r U ....................................................................................................................U r : ",
": r U ....................................................................................................................U r : ",
": r U ....................................................................................................................U r : ",
": r U ....................................................................................................................U r : ",
": r U ....................................................................................................................U r : ",
": r U ....................................................................................................................U r : ",
": r U ....................................................................................................................U r : ",
": r U ....................................................................................................................U r : ",
": r U ....................................................................................................................U r : ",
": r U ....................................................................................................................U r : ",
": r U ....................................................................................................................U r : ",
": r U ....................................................................................................................U r : ",
": r U ....................................................................................................................U r : ",
": r U ....................................................................................................................U r : ",
": r U ....................................................................................................................U r : "
};
