/* XPM */
static const char *airlock_12[] = {
/* columns rows colors chars-per-pixel */
"64 64 117 2 ",
"   c #16161A",
".  c #17181B",
"X  c #1A1B1E",
"o  c #1D1E22",
"O  c #1E1C2C",
"+  c #201E2F",
"@  c #1F2024",
"#  c #222325",
"$  c #24252A",
"%  c #27282B",
"&  c #2A2B2C",
"*  c #252334",
"=  c #2A2B33",
"-  c #272539",
";  c #29273D",
":  c #2A283E",
">  c #2E3037",
",  c #2E3038",
"<  c #323336",
"1  c #34353B",
"2  c #37393D",
"3  c #383A3F",
"4  c #2B2840",
"5  c #302F44",
"6  c #322F4A",
"7  c #323146",
"8  c #3B3D44",
"9  c #333148",
"0  c #333248",
"q  c #33314B",
"w  c #343249",
"e  c #33304C",
"r  c #33314C",
"t  c #34314C",
"y  c #34314D",
"u  c #34324D",
"i  c #35324D",
"p  c #37354E",
"a  c #37354F",
"s  c #33304C",
"d  c #383650",
"f  c #383452",
"g  c #383453",
"h  c #383653",
"j  c #3A3756",
"k  c #3B3857",
"l  c #3C3859",
"z  c #3C3959",
"x  c #3D3A58",
"c  c #3D3B58",
"v  c #3D3B59",
"b  c #3E3B59",
"n  c #3D3A5A",
"m  c #3E3A5B",
"M  c #3F3C5B",
"N  c #3F3C5C",
"B  c #3F3C5E",
"V  c #403D5D",
"C  c #403D5E",
"Z  c #403E5E",
"A  c #413E5E",
"S  c #413E5F",
"D  c #413E60",
"F  c #423F60",
"G  c #423E61",
"H  c #423F61",
"J  c #423F62",
"K  c #433F63",
"L  c #3F4147",
"P  c #3F4149",
"I  c #3E414A",
"U  c #404249",
"Y  c #40424A",
"T  c #42444C",
"R  c #434063",
"E  c #434064",
"W  c #444065",
"Q  c #444165",
"!  c #454265",
"~  c #454166",
"^  c #454266",
"/  c #454267",
"(  c #464267",
")  c #444065",
"_  c #474368",
"`  c #474469",
"'  c #49456B",
"]  c #49456C",
"[  c #4B476F",
"{  c #4A466D",
"}  c #4B4770",
"|  c #4B4870",
" . c #4C4870",
".. c #4C4871",
"X. c #4D4972",
"o. c #4D4973",
"O. c #4E4973",
"+. c #4E4A73",
"@. c #4E4A74",
"#. c #4F4B74",
"$. c #4E4A75",
"%. c #4F4A75",
"&. c #4F4B75",
"*. c #4F4B76",
"=. c #4D4972",
"-. c #534F7B",
";. c #524E79",
":. c #54507C",
">. c #5B5787",
",. c #605B8D",
"<. c #635E91",
"1. c #666195",
"2. c #666196",
"3. c #656093",
"4. c #6C679E",
"5. c None",
"6. c black",
/* pixels */
"4 4 4 4 4 4 4 4 : : : 4 4 4 4 4 4 4 4 4 : : 4 4 4 4 4 4 4 4 4 4 : : : 4 4 4 4 4 4 4 4 4 : : 4 4 4 4 4 4 4 4 4 4 4 4 4 4 4 4 4 4 ",
"4 4 g z z z z z z z z z z z z z z z z z z z z z z z z z z z z z z z z z z z z z z z z z z z z z z z z z z z z z z z z z z g 4 4 ",
": e Q o.o.o.o.o.o.o.o.o.o.o.o.o.o.o.o.o.o.o.o.o.o.o.o.o.o.o.o.o.o.o.o.o.o.o.o.o.o.o.o.o.o.o.o.o.o.o.o.o.o.o.o.o.o.o.o.o.o.Q e : ",
": e Q o.o.o.o.o.o.o.o.o.o.o.o.o.o.o.o.o.o.o.o.o.o.o.o.o.o.o.o.o.o.o.o.o.o.o.o.o.o.o.o.o.o.o.o.o.o.o.o.o.o.o.o.o.o.o.o.o.o.Q e : ",
": e Q o.o.o.o.o.o.o.o.o.o.o.o.o.o.o.o.o.o.o.o.o.o.o.o.o.o.o.o.o.o.o.o.o.o.o.o.o.o.o.o.o.o.o.o.o.o.o.o.o.o.o.o.o.o.o.o.o.o.Q e : ",
": e Q o.o.o.o.o.o.o.o.o.o.o.o.o.o.o.o.o.o.o.o.o.o.o.o.o.o.o.o.o.o.o.o.o.o.o.o.o.o.o.o.o.o.o.o.o.o.o.o.o.o.o.o.o.o.o.o.o.o.Q e : ",
": e Q o.o.o.o.o.o.o.o.o.o.o.o.o.o.o.o.o.o.o.o.o.o.o.o.o.o.o.o.o.o.o.o.o.o.o.o.o.o.o.o.o.o.o.o.o.o.o.o.o.o.o.o.o.o.o.o.o.o.Q e : ",
": e Q o.o.o.o.o.o.o.o.o.o.o.o.o.o.o.o.o.o.o.o.o.o.o.o.o.o.o.o.o.o.o.o.o.o.o.o.o.o.o.o.o.o.o.o.o.o.o.o.o.o.o.o.o.o.o.o.o.o.Q e : ",
": e Q o.o.o.o.o.o.o.o.o.o.o.o.o.o.o.o.o.o.o.o.o.o.o.o.o.o.o.o.o.o.o.o.o.o.o.o.o.o.o.o.o.o.o.o.o.o.o.o.o.o.o.o.o.o.o.o.o.o.Q e : ",
": e Q o.o.o.o.o.o.o.o.o.o.o.o.o.o.o.o.o.o.o.o.o.o.o.o.o.o.o.o.o.o.o.o.o.o.o.o.o.o.o.o.o.o.o.o.o.o.o.o.o.o.o.o.o.o.o.o.o.o.Q e : ",
": e Q o.o.o.o.o.o.o.o.o.o.o.o.o.o.o.o.o.o.o.o.o.%.` d 5 4 5 5 7 7 5 5 4 5 g ` %.o.o.o.o.o.o.o.o.o.o.o.o.o.o.o.o.o.o.o.o.o.Q e : ",
": e Q o.o.o.o.o.o.o.o.o.o.o.o.o.o.o.o.o.o.o.o.[ Q d $ o $ $ @ X o @ $ $ o $ g Q [ o.o.o.o.o.o.o.o.o.o.o.o.o.o.o.o.o.o.o.o.Q e : ",
": e Q o.o.o.o.o.o.o.o.o.o.o.o.o.o.o.o.o.o.o.o.F : # # & 8 8 & # # & 8 8 & # # : A o.o.o.o.o.o.o.o.o.o.o.o.o.o.o.o.o.o.o.o.Q e : ",
": e Q o.o.o.o.o.o.o.o.o.o.o.o.o.o.o.o.o.%.` g : # $ < 3 < & @ X X @ & < 3 < $ # : d ` %.o.o.o.o.o.o.o.o.o.o.o.o.o.o.o.o.o.Q e : ",
": e Q o.o.o.o.o.o.o.o.o.o.o.o.o.o.o.o.[ Q a $ o % < U 8 #   X X X X   # 8 U < % o $ a Q [ o.o.o.o.o.o.o.o.o.o.o.o.o.o.o.o.Q e : ",
": e Q o.o.o.o.o.o.o.o.o.o.o.o.o.o.o.o.A : # # & 8 T 8 = o X # % % # X o = 8 T 8 & # # : A o.o.o.o.o.o.o.o.o.o.o.o.o.o.o.o.Q e : ",
": e Q o.o.o.o.o.o.o.o.o.o.o.o.o.o.Q a : # # 1 8 8 8 1 = o X # & & # X o = 1 8 8 8 1 # # : a Q o.o.o.o.o.o.o.o.o.o.o.o.o.o.Q e : ",
": e Q o.o.o.o.o.o.o.o.o.o.o.o.o.o.A * o % < 8 8 > = = $ @ o # # # $ o @ $ = = > 8 8 < % o * A o.o.o.o.o.o.o.o.o.o.o.o.o.o.Q e : ",
": e Q o.o.o.o.o.o.o.o.o.o.o.o.o.o.A * $ 8 8 % X X X X o $ $ o X X o $ $ o X X X X % 8 8 $ * A o.o.o.o.o.o.o.o.o.o.o.o.o.o.Q e : ",
": e Q o.o.o.o.o.o.o.o.o.o.o.o.o.o.A * # = = o . o # # # # # # # # # # # # # # o . o = = # * A o.o.o.o.o.o.o.o.o.o.o.o.o.o.Q e : ",
": e Q o.o.o.o.o.o.o.o.o.o.o.o.o.o.A * X o X X X # % % # X X # % % # X X # % % # X X X o X * A o.o.o.o.o.o.o.o.o.o.o.o.o.o.Q e : ",
": e Q o.o.o.o.o.o.o.o.o.o.o.o.o.o.A * o # # X X # % % # X X # % % # X X # % % # X X # # o * A o.o.o.o.o.o.o.o.o.o.o.o.o.o.Q e : ",
": e Q o.o.o.o.o.o.o.o.o.o.o.o.o.o.A * $ 1 < @   X X o + $ $ @ o o # # $ o o o X   @ < 1 $ * A o.o.o.o.o.o.o.o.o.o.o.o.o.o.Q e : ",
": e Q o.o.o.o.o.o.o.o.o.o.o.o.o.o.A * $ 2 8 = $ @ o o # # # o X X @ # # # o o @ $ = 8 2 $ * A o.o.o.o.o.o.o.o.o.o.o.o.o.o.Q e : ",
": e Q o.o.o.o.o.o.o.o.o.o.o.o.o.o.A - o # = 8 U 1 , , = o X # % % # X o = , , 1 U 8 = # o - A o.o.o.o.o.o.o.o.o.o.o.o.o.o.Q e : ",
": e Q o.o.o.o.o.o.o.o.o.o.o.o.o.o.' A 7 # # & 2 U P 1 = o X # % & # X o = 1 P P 2 & # # 7 A ' o.o.o.o.o.o.o.o.o.o.o.o.o.o.Q e : ",
": e Q o.o.o.o.o.o.o.o.o.o.o.o.o.o.o.%.Q 0 * # $ 3 U 8 , o X # # # # X o , 8 L 2 $ # * 0 Q %.o.o.o.o.o.o.o.o.o.o.o.o.o.o.o.Q e : ",
": e Q o.o.o.o.o.o.o.o.o.o.o.o.o.o.o.o.o.[ M - o # > U 8 $ X X X X X X $ 8 L = # o - M [ o.o.o.o.o.o.o.o.o.o.o.o.o.o.o.o.o.Q e : ",
"4 y Q %.%.%.%.%.%.%.%.%.%.%.%.%.%.%.%.%.%.[ A 0 # # & 1 8 < $ X X $ < 8 1 & # # 0 A [ %.%.%.%.%.%.%.%.%.o.o.%.%.%.%.%.%.%.Q y 4 ",
"- 4 g z z z z z z z z z z z z z z z z z N Q o._ w * # $ 1 2 % X X % 2 1 $ # * w _ o.Q N z z z z z z z z z z z z z z z z z g 4 - ",
"O O + + + + + + + + + + + + + + + + + * * 5 F o.} N - @ # # @ o o @ # # o - N } o.F 5 * * + + + + + + + + + + + + + + + + + O O ",
"5.5.5.5.5.5.5.5.5.5.5.5.5.5.5.5.5.5.5.5.O * 4 j [ | F z z z z z z z z z z F | [ j 4 * O 5.5.5.5.5.5.5.5.5.5.5.5.5.5.5.5.5.5.5.5.",
"5.5.5.5.5.5.5.5.5.5.5.5.5.5.5.5.5.5.5.5.O O + : g F F F F F F F F F F F F F F g : + O O 5.5.5.5.5.5.5.5.5.5.5.5.5.5.5.5.5.5.5.5.",
"5.5.5.5.5.5.5.5.5.5.5.5.5.5.5.5.5.5.5.5.5.5.O + * - - - - - - - - - - - - - - * + O 5.5.5.5.5.5.5.5.5.5.5.5.5.5.5.5.5.5.5.5.5.5.",
"5.5.5.5.5.5.5.5.5.5.5.5.5.5.5.5.5.5.5.5.5.5.5.5.O O O O O O O O O O O O O O O O 5.5.5.5.5.5.5.5.5.5.5.5.5.5.5.5.5.5.5.5.5.5.5.5.",
"5.5.5.5.5.5.5.5.5.5.5.5.5.5.5.5.5.5.5.5.5.5.5.5.5.O O O O O O O O O O O O O O 5.5.5.5.5.5.5.5.5.5.5.5.5.5.5.5.5.5.5.5.5.5.5.5.5.",
"5.5.5.5.5.5.5.5.5.5.5.5.5.5.5.5.5.5.5.5.5.5.5.5.5.5.5.5.5.5.5.5.5.5.5.5.5.5.5.5.5.5.5.5.5.5.5.5.5.5.5.5.5.5.5.5.5.5.5.5.5.5.5.5.",
"5.5.5.5.5.5.5.5.5.5.5.5.5.5.5.5.5.5.5.5.5.5.5.5.5.5.5.5.5.5.5.5.5.5.5.5.5.5.5.5.5.5.5.5.5.5.5.5.5.5.5.5.5.5.5.5.5.5.5.5.5.5.5.5.",
"5.5.5.5.5.5.5.5.5.5.5.5.5.5.5.5.5.5.5.5.5.5.5.5.5.5.5.5.5.5.5.5.5.5.5.5.5.5.5.5.5.5.5.5.5.5.5.5.5.5.5.5.5.5.5.5.5.5.5.5.5.5.5.5.",
"5.5.5.5.5.5.5.5.5.5.5.5.5.5.5.5.5.5.5.5.5.5.5.5.5.5.5.5.5.5.5.5.5.5.5.5.5.5.5.5.5.5.5.5.5.5.5.5.5.5.5.5.5.5.5.5.5.5.5.5.5.5.5.5.",
"5.5.5.5.5.5.5.5.5.5.5.5.5.5.5.5.5.5.5.5.5.5.5.5.5.5.5.5.5.5.5.5.5.5.5.5.5.5.5.5.5.5.5.5.5.5.5.5.5.5.5.5.5.5.5.5.5.5.5.5.5.5.5.5.",
"5.5.5.5.5.5.5.5.5.5.5.5.5.5.5.5.5.5.5.5.5.5.5.5.5.5.5.5.5.5.5.5.5.5.5.5.5.5.5.5.5.5.5.5.5.5.5.5.5.5.5.5.5.5.5.5.5.5.5.5.5.5.5.5.",
"5.5.5.5.5.5.5.5.5.5.5.5.5.5.5.5.5.5.5.5.5.5.5.5.5.5.5.5.5.5.5.5.5.5.5.5.5.5.5.5.5.5.5.5.5.5.5.5.5.5.5.5.5.5.5.5.5.5.5.5.5.5.5.5.",
"4 : * * * * * * * * * * * * * * * * * * 5.5.5.5.5.5.5.5.5.5.5.5.5.5.5.5.5.5.5.5.5.5.5.5.* * * * * * * * * * * * * * * * * * : 4 ",
"4 4 6 y y y y y y 0 e e 0 y y y y y y 6 : 5.5.5.5.5.5.5.5.5.5.5.5.5.5.5.5.5.5.5.5.5.5.: 6 y y y y y y 0 e e 0 y y y y y y 6 4 4 ",
": e E o.o.o.| o.o.%.%.%.%.o.o.| o.o.o.R 6 - 5.5.5.5.5.5.5.5.5.5.5.5.5.5.5.5.5.5.5.5.- 6 R o.o.o.| o.o.%.%.%.%.o.o.| o.o.o.E e : ",
": e Q %.o.o.o.-.,.2.2.2.2.,.-.o.o.o.o.[ Q z 4 * 5.5.5.5.5.5.5.5.5.5.5.5.5.5.5.5.* 4 z Q [ o.o.o.o.-.,.2.2.2.2.,.-.o.o.o.%.Q e : ",
": e Q o.o.o.o.-.>.3.4.4.3.>.-.o.o.o.o.o.%.' k 0 : 5.5.5.5.5.5.5.5.5.5.5.5.5.5.: 0 k ' %.o.o.o.o.o.-.>.3.4.4.3.>.-.o.o.o.o.Q e : ",
": e Q o.o.o.o.o.o.:.<.<.:.o.o.o.o.o.o.o.o.o.o.R 6 : : : : : : : : : : : : : : 6 R o.o.o.o.o.o.o.o.o.o.:.<.<.:.o.o.o.o.o.o.Q e : ",
": e Q o.o.o.o.o.o.o.-.-.o.o.o.o.o.o.o.o.o.o.o.[ Q F F F F F F F F F F F F F F Q [ o.o.o.o.o.o.o.o.o.o.o.-.-.o.o.o.o.o.o.o.Q e : ",
": e Q o.o.o.o.o.o.o. . .o.o.o.o.o.o.o.o.o.o.o.o.o.o.o.o.%.%.%.%.%.%.%.%.%.%.%.o.o.o.o.o.o.o.o.o.o.o.o.o. . .o.o.o.o.o.o.o.Q 0 : ",
": e Q o.o.o.o.o.o.o.o.o.o.o.o.o.o.o.o.o.o.o.o.o.o.o.o.o.o.o.o.o.o.o.o.o.o.o.o.o.o.o.o.o.o.o.o.o.o.o.o.o.o.o.o.o.o.o.o.o.o.Q 0 : ",
": e Q o.o.o.o.o.o.o.o.o.o.o.o.o.o.o.o.o.o.o.o.o.o.o.o.o.o.o.o.o.o.o.o.o.o.o.o.o.o.o.o.o.o.o.o.o.o.o.o.o.o.o.o.o.o.o.o.o.o.Q e : ",
": e Q o.o.o.o.o.o.o.o.o.o.o.o.o.o.o.o.o.o.o.o.o.o.o.o.o.o.o.o.o.o.o.o.o.o.o.o.o.o.o.o.o.o.o.o.o.o.o.o.o.o.o.o.o.o.o.o.o.o.Q e : ",
": e Q o.o.o.o.o.o.o.o.o.o.o.o.o.o.o.o.o.o.o.o.o.o.o.o.o.o.o.o.o.o.o.o.o.o.o.o.o.o.o.o.o.o.o.o.o.o.o.o.o.o.o.o.o.o.o.o.o.o.Q e : ",
": e Q o.o.o.o.o.o.o.o.o.o.o.o.o.o.o.o.o.o.o.o.o.o.o.o.o.o.o.o.o.o.o.o.o.o.o.o.o.o.o.o.o.o.o.o.o.o.o.o.o.o.o.o.o.o.o.o.o.o.Q e : ",
": e Q o.o.o.o.o.o.o.o.o.o.o.o.o.o.o.o.o.o.o.o.o.o.o.o.o.o.o.o.o.o.o.o.o.o.o.o.o.o.o.o.o.o.o.o.o.o.o.o.o.o.o.o.o.o.o.o.o.o.Q e : ",
": e Q o.o.o.o.o.o.o.o.o.o.o.o.o.o.o.o.o.o.o.o.o.o.o.o.o.o.o.o.o.o.o.o.o.o.o.o.o.o.o.o.o.o.o.o.o.o.o.o.o.o.o.o.o.o.o.o.o.o.Q e : ",
": e Q o.o.o.o.o.o.o.o.o.o.o.o.o.o.o.o.o.o.o.o.o.o.o.o.o.o.o.o.o.o.o.o.o.o.o.o.o.o.o.o.o.o.o.o.o.o.o.o.o.o.o.o.o.o.o.o.o.o.Q e : ",
": e Q o.o.o.o.o.o.o.o.o.o.o.o.o.o.o.o.o.o.o.o.o.o.o.o.o.o.o.o.o.o.o.o.o.o.o.o.o.o.o.o.o.o.o.o.o.o.o.o.o.o.o.o.o.o.o.o.o.o.Q e : ",
": e Q o.o.o.o.o.o.o.o.o.o.o.o.o.o.o.o.o.o.o.o.o.o.o.o.o.o.o.o.o.o.o.o.o.o.o.o.o.o.o.o.o.o.o.o.o.o.o.o.o.o.o.o.o.o.o.o.o.o.Q e : ",
": e Q o.o.o.o.o.o.o.o.o.o.o.o.o.o.o.o.o.o.o.o.o.o.o.o.o.o.o.o.o.o.o.o.o.o.o.o.o.o.o.o.o.o.o.o.o.o.o.o.o.o.o.o.o.o.o.o.o.o.Q e : ",
": e Q o.o.o.o.o.o.o.o.o.o.o.o.o.o.o.o.o.o.o.o.o.o.o.o.o.o.o.o.o.o.o.o.o.o.o.o.o.o.o.o.o.o.o.o.o.o.o.o.o.o.o.o.o.o.o.o.o.o.Q e : ",
": e Q o.o.o.o.o.o.o.o.o.o.o.o.o.o.o.o.o.o.o.o.o.o.o.o.o.o.o.o.o.o.o.o.o.o.o.o.o.o.o.o.o.o.o.o.o.o.o.o.o.o.o.o.o.o.o.o.o.o.Q e : "
};
