/* XPM */
static const char *door_5_64x64[] = {
/* columns rows colors chars-per-pixel */
"64 64 121 2 ",
"   c #16171B",
".  c #1A1B1E",
"X  c #1D1E21",
"o  c #1D1B2A",
"O  c #211F2F",
"+  c #211F30",
"@  c #1F2023",
"#  c #232325",
"$  c #24242B",
"%  c #27282F",
"&  c #2A2B2C",
"*  c #242333",
"=  c #282734",
"-  c #2A2B33",
";  c #272538",
":  c #28263A",
">  c #2B283E",
",  c #2F3033",
"<  c #313336",
"1  c #33353B",
"2  c #36383E",
"3  c #383A3F",
"4  c #2C2941",
"5  c #302D46",
"6  c #312F48",
"7  c #313044",
"8  c #363941",
"9  c #3C3E45",
"0  c #393B42",
"q  c #333248",
"w  c #35334A",
"e  c #33304C",
"r  c #34314C",
"t  c #34314D",
"y  c #34324D",
"u  c #36354D",
"i  c #37364F",
"p  c #33304B",
"a  c #373551",
"s  c #383553",
"d  c #393553",
"f  c #393752",
"g  c #393653",
"h  c #393554",
"j  c #3B3756",
"k  c #393655",
"l  c #3B3954",
"z  c #3D3A57",
"x  c #3C3858",
"c  c #3C3958",
"v  c #3D3959",
"b  c #3D3B58",
"n  c #3D3A59",
"m  c #3D395A",
"M  c #3D3A5A",
"N  c #3D3A5B",
"B  c #3E3A5C",
"V  c #3F3B5D",
"C  c #3D3A5A",
"Z  c #403D5D",
"A  c #403E5E",
"S  c #413E5E",
"D  c #413E5F",
"F  c #423F60",
"G  c #423E61",
"H  c #3E4046",
"J  c #3E4146",
"K  c #3F4147",
"L  c #3E4148",
"P  c #404249",
"I  c #404349",
"U  c #41444B",
"Y  c #42454D",
"T  c #434062",
"R  c #434063",
"E  c #444163",
"W  c #444065",
"Q  c #454265",
"!  c #454166",
"~  c #454266",
"^  c #454267",
"/  c #464367",
"(  c #454165",
")  c #474368",
"_  c #474369",
"`  c #474469",
"'  c #47446A",
"]  c #48446A",
"[  c #48456A",
"{  c #49456C",
"}  c #49466C",
"|  c #4A466D",
" . c #4A466E",
".. c #4B476F",
"X. c #4B476E",
"o. c #4B486F",
"O. c #4B4770",
"+. c #4C4870",
"@. c #4C4871",
"#. c #4C4971",
"$. c #4D4971",
"%. c #4D4972",
"&. c #4D4973",
"*. c #4E4973",
"=. c #4E4A73",
"-. c #4E4A74",
";. c #4F4A74",
":. c #4F4B74",
">. c #4F4B75",
",. c #4D4972",
"<. c #504C77",
"1. c #524D79",
"2. c #55517E",
"3. c #54507D",
"4. c #575380",
"5. c #575381",
"6. c #5E598A",
"7. c #635E90",
"8. c #6A669B",
"9. c None",
"0. c black",
/* pixels */
"4 4 4 4 4 4 4 4 4 4 4 4 4 4 4 4 4 4 4 4 4 4 4 4 4 4 4 4 4 4 4 4 4 4 4 4 4 4 4 4 4 4 4 4 4 4 4 4 4 4 4 4 4 4 4 4 4 4 4 4 4 4 4 4 ",
"4 5 h N N N N N N N N N N N N N N N N N N N N N V s > $ $ $ * * * * * $ $ > s V V N N N N N N N N N N N N N N N N N N N N h 5 4 ",
"> t ^ ;.;.=.=.=.=.=.=.=.=.=.=.=.=.=.=.=.=.=.;.=.) s = X $ $ @ X X # $ $ X = s ) =.;.=.=.=.=.=.=.=.=.=.=.=.=.=.=.=.=.=.=.;.^ t > ",
"> t ^ =.=.=.=.=.=.=.=.=.=.=.=.=.=.=.=.=.=.=.=.F > # # & 9 9 & # # & 9 9 & # # > F =.=.=.=.=.=.=.=.=.=.=.=.=.=.=.=.=.=.=.=.^ t > ",
"> t ^ =.=.=.=.=.=.=.=.=.=.=.=.=.=.=.=.=.;.` u : # # 1 0 < & @ . . @ & < 0 1 # # = u [ ;.;.=.=.=.=.=.=.=.=.=.=.=.=.=.=.=.=.^ t > ",
"> t ^ =.=.=.=.=.=.=.=.=.=.=.=.=.=.=.=...E u $ @ & 1 I 0 #   . X X .   # 0 I 1 & @ $ u E ..=.=.=.=.=.=.=.=.=.=.=.=.=.=.=.=.^ t > ",
"> t ^ =.=.=.=.=.=.=.=.=.=.=.=.=.=.=.=.A : @ # & K Y 0 - X . # & & # . X - 0 Y K - # @ : A =.=.=.=.=.=.=.=.=.=.=.=.=.=.=.=.^ t > ",
"> t ^ =.=.=.=.=.=.=.=.=.=.=.=.=.=.^ w = # $ 2 K 9 0 1 - X . # & & # . X - 1 0 9 K 2 $ # = w ^ =.=.=.=.=.=.=.=.=.=.=.=.=.=.^ t > ",
"> t ^ =.=.=.=.=.=.=.=.=.=.=.=.=.;.A = @ & 1 0 2 - % % $ # # # # # # # # $ % % - 2 0 1 & @ = A ;.=.=.=.=.=.=.=.=.=.=.=.=.=.^ t 4 ",
"> t ^ =.=.=.=.=.=.=.=.=.=.=.=.=.;.A = $ 9 9 $ . . . . X $ $ X . . X $ $ X . . . . $ 9 9 $ = A ;.=.=.=.=.=.=.=.=.=.=.=.=.=.^ t 4 ",
"4 t ^ =.=.=.=.=.=.=.=.=.=.=.=.=.;.A = @ & & X . # # # # @ @ # # # # @ @ # # # # . X & & # = A ;.=.=.=.=.=.=.=.=.=.=.=.=.=.^ t > ",
"4 t ^ =.=.=.=.=.=.=.=.=.=.=.=.=.;.A = X . . . . # & & # . . # & & # . . # & & # X . . . X = A ;.=.=.=.=.=.=.=.=.=.=.=.=.=.^ t > ",
"> t ^ =.=.=.=.=.=.=.=.=.=.=.=.=.;.A = X # # . . # & & # X X # & & # X X # & & # . . # # X = A ;.=.=.=.=.=.=.=.=.=.=.=.=.=.^ t > ",
"> t ^ =.=.=.=.=.=.=.=.=.=.=.=.=.;.A = $ 0 0 #   . . . X # # X . . X $ # X . . .   # 0 0 $ = A ;.=.=.=.=.=.=.=.=.=.=.=.=.=.^ t > ",
"> t ^ =.=.=.=.=.=.=.=.=.=.=.=.=.;.A = # < 3 1 - $ # # $ # # # # X # # # $ # # $ - 1 3 < # = A ;.=.=.=.=.=.=.=.=.=.=.=.=.=.^ t > ",
"> t ^ =.=.=.=.=.=.=.=.=.=.=.=.=.;.T > # # & 9 U 0 1 1 - X . # & & # . X - 1 1 0 U 9 & # # > T =.=.=.=.=.=.=.=.=.=.=.=.=.=.^ t > ",
"> t ^ =.=.=.=.=.=.=.=.=.=.=.=.=.=.=.[ l = X # < I Y 8 - X . # & & # . X - 8 Y I < # X = l [ O.=.=.=.=.=.=.=.=.=.=.=.=.=.=.^ t > ",
"> t ^ =.=.=.=.=.=.=.=.=.=.=.=.=.=.=.;...z 4 # # , 0 L 2 @   . # # .   @ 2 L 0 , # # 4 z ..;.=.=.=.=.=.=.=.=.=.=.=.=.=.=.=.^ t > ",
"> t ^ ;.=.=.=.=.=.=.=.=.=.=.=.=.=.=.=.;.;.^ 5 $ # & 0 9 - @ . . . . # - 9 0 & # $ 5 ^ ;.;.=.=.=.=.=.=.=.=.=.=.=.=.=.=.;.;.^ t 4 ",
"> e ^ =.=.=.=.=.=.=.=.=.=.=.=.=.=.=.=.=.=.=...N = X # , K 9 & # # & 9 K , # X = N ..=.=.=.=.=.=.=.=.=.=.=.=.=.=.=.=.=.=.=.^ e > ",
"* ; 4 5 5 5 5 5 5 5 5 5 5 5 5 5 5 5 5 5 t N ..o.A 7 # # & - # . . # - & # # 7 A o...N t 6 5 5 5 5 5 5 5 5 5 5 5 5 5 5 5 5 4 ; * ",
"o o o o o o o o o o o o o o o o o o o o O > h ) =.^ q = = : : : : : = = = q ^ =.) l > O o o o o o o o o o o o o o o o o o o o o ",
"9.9.9.9.9.9.9.9.9.9.9.9.9.9.9.9.9.9.9.9.o O ; 6 T o...[ [ [ [ [ [ [ [ [ [ ..=.T 6 ; O o 9.9.9.9.9.9.9.9.9.9.9.9.9.9.9.9.9.9.9.9.",
"9.9.9.9.9.9.9.9.9.9.9.9.9.9.9.9.9.9.9.9.9.o o ; 4 t t t t t t t t t t t t t t 4 ; o o 9.9.9.9.9.9.9.9.9.9.9.9.9.9.9.9.9.9.9.9.9.",
"9.9.9.9.9.9.9.9.9.9.9.9.9.9.9.9.9.9.9.9.9.9.9.o + * * * * * * * * * * * * * * + o 9.9.9.9.9.9.9.9.9.9.9.9.9.9.9.9.9.9.9.9.9.9.9.",
"9.9.9.9.9.9.9.9.9.9.9.9.9.9.9.9.9.9.9.9.9.9.9.9.o o o o o o o o o o o o o o o o 9.9.9.9.9.9.9.9.9.9.9.9.9.9.9.9.9.9.9.9.9.9.9.9.",
"                                                                                                                                ",
"                                                                                                                                ",
"                                                                                                                                ",
"                                                                                                                                ",
"                                                                                                                                ",
"                                                                                                                                ",
"                                                                                                                                ",
"                                                                                                                                ",
"                                                                                                                                ",
"                                                                                                                                ",
"                                                                                                                                ",
"                                                                                                                                ",
"                                                                                                                                ",
"                                                                                                                                ",
"                                                                                                                                ",
"                                                                                                                                ",
"                                                                                                                                ",
"                                                                                                                                ",
"                                                                                                                                ",
"                                                                                                                                ",
"                                                                                                                                ",
"                                                                                                                                ",
"                                                                                                                                ",
"                                                                                                                                ",
"                                                                                                                                ",
"4 > : ; ; ; ; ; ; ; ; ; ; ; ; ; ; ; ; ; 9.9.9.9.9.9.9.9.9.9.9.9.9.9.9.9.9.9.9.9.9.9.9.9.; ; ; ; ; ; ; ; ; ; ; ; ; ; ; ; ; : > 4 ",
"4 5 s N N N N N N N N N x N N N N N N s 4 9.9.9.9.9.9.9.9.9.9.9.9.9.9.9.9.9.9.9.9.9.9.4 s N N N N N N N N N N N N N N N N s 5 4 ",
"> t ^ ;.;.=.=.<.3.4.4.4.4.3.<.=.=.;.;.) a 4 9.9.9.9.9.9.9.9.9.9.9.9.9.9.9.9.9.9.9.9.4 a ) ;.;.=.=.<.3.4.4.4.4.3.<.=.=.;.;.^ t > ",
"> t ^ =.=.=.=.3.7.8.8.8.8.7.1.=.=.=.=.=.=.F 5 ; 9.9.9.9.9.9.9.9.9.9.9.9.9.9.9.9.; 5 F O.=.=.=.=.=.3.7.8.8.8.8.7.3.=.=.=.=.^ t > ",
"> t ^ =.=.=.=.;.3.6.8.8.6.3.;.=.=.=.=.=.;...R h 4 * * ; ; ; ; ; * * ; ; ; * * 4 h T ..=.=.=.=.=.=.;.3.6.8.8.6.3.;.=.=.=.=.^ t 4 ",
"> t ^ =.=.=.=.=.O.1.6.6.1.O.=.=.=.=.=.=.=.=.;.) h 6 6 q q q q q q q q q q 6 6 h ` ;.=.=.=.=.=.=.=.=.O.1.6.6.1.O.=.=.=.=.=.^ t 4 ",
"> t ^ =.=.=.=.=.=.=.=.=.=.=.=.=.=.=.=.=.=.=.=.=.=.................O.O.O.......=.=.=.=.=.=.=.=.=.=.=.=.=.=.=.=.=.=.=.=.=.=.^ t 4 ",
"4 t ^ =.=.=.=.=.=.=.=.=.=.=.=.=.=.=.=.=.=.=.=.=.=.=.=.=.=.=.=.=.=.=.=.=.=.=.=.=.=.=.=.=.=.=.=.=.=.=.=.=.=.=.=.=.=.=.=.=.=.^ t > ",
"4 t ^ =.=.=.=.=.=.=.=.=.=.=.=.=.=.=.=.=.=.=.=.=.=.=.=.=.=.=.=.=.=.=.=.=.=.=.=.=.=.=.=.=.=.=.=.=.=.=.=.=.=.=.=.=.=.=.=.=.=.^ t > ",
"4 t ^ =.=.=.=.=.=.=.=.=.=.=.=.=.=.=.=.=.=.=.=.=.=.=.=.=.=.=.=.=.=.=.=.=.=.=.=.=.=.=.=.=.=.=.=.=.=.=.=.=.=.=.=.=.=.=.=.=.=.^ t > ",
"> t ^ ;.;.=.=.=.=.=.=.=.=.=.=.=.=.=.=.=.=.=.=.=.=.=.=.=.=.=.=.=.=.=.=.=.=.=.=.=.=.=.=.=.=.=.=.=.=.=.=.=.=.=.=.=.=.=.=.=.;.^ t > ",
"4 5 h N N N N N N N N N N N N N N N N N N N N N N N N N N N N N N N N N N N N N N N N N N N N N N N N N N N N N N N N N N h 5 4 ",
"4 4 4 4 4 4 4 4 4 4 4 4 4 4 4 4 4 4 4 4 4 4 4 4 4 4 4 4 4 4 4 4 4 4 4 4 4 4 4 4 4 4 4 4 4 4 4 4 4 4 4 4 4 4 4 4 4 4 4 4 4 4 4 4 "
};
