/* XPM */
static const char *airlock_17[] = {
/* columns rows colors chars-per-pixel */
"64 64 238 2 ",
"   c #16171A",
".  c #16171B",
"X  c #17171B",
"o  c #18191C",
"O  c #191A1D",
"+  c #1A1A1E",
"@  c #1A1B1E",
"#  c #1B1B1F",
"$  c #1B1C1E",
"%  c #1B1C1F",
"&  c #1C1C1E",
"*  c #1D1D1F",
"=  c #1A1B20",
"-  c #1B1C20",
";  c #1B1C21",
":  c #1B1D22",
">  c #1C1D20",
",  c #1D1D20",
"<  c #1D1E21",
"1  c #1F1F20",
"2  c #1E1E21",
"3  c #1E1F21",
"4  c #1C1D22",
"5  c #1D1E22",
"6  c #1D1E23",
"7  c #1E1F22",
"8  c #1E1F23",
"9  c #1E1F24",
"0  c #1C1A28",
"q  c #1D1B2A",
"w  c #1E1C2B",
"e  c #1E1C2C",
"r  c #1F1D2D",
"t  c #1F1E2D",
"y  c #201E2D",
"u  c #201E2E",
"i  c #211F2F",
"p  c #211F30",
"a  c #1F2021",
"s  c #1F2024",
"d  c #1F2025",
"f  c #202020",
"g  c #202121",
"h  c #202022",
"j  c #202122",
"k  c #202023",
"l  c #202123",
"z  c #212123",
"x  c #212223",
"c  c #212224",
"v  c #222324",
"b  c #232324",
"n  c #202126",
"m  c #212227",
"M  c #212327",
"N  c #222327",
"B  c #232425",
"V  c #232427",
"C  c #252526",
"Z  c #252626",
"A  c #252627",
"S  c #262627",
"D  c #262727",
"F  c #212128",
"G  c #232429",
"H  c #242529",
"J  c #262628",
"K  c #24262B",
"L  c #23232C",
"P  c #23222F",
"I  c #24232F",
"U  c #24242D",
"Y  c #272828",
"T  c #27282A",
"R  c #27282F",
"E  c #28292A",
"W  c #28292B",
"Q  c #2A2A2A",
"!  c #2B2B2A",
"~  c #2C2B2B",
"^  c #282A2F",
"/  c #222031",
"(  c #232230",
")  c #222032",
"_  c #232032",
"`  c #242331",
"'  c #262633",
"]  c #272633",
"[  c #242234",
"{  c #242235",
"}  c #252335",
"|  c #252336",
" . c #262634",
".. c #272634",
"X. c #272734",
"o. c #272735",
"O. c #262437",
"+. c #282734",
"@. c #272930",
"#. c #282A31",
"$. c #2A2C31",
"%. c #2E2F31",
"&. c #2B2A37",
"*. c #2C2A36",
"=. c #2B2D34",
"-. c #2C2E36",
";. c #2E2F37",
":. c #262438",
">. c #272438",
",. c #272539",
"<. c #27253A",
"1. c #29273C",
"2. c #2A273E",
"3. c #29283B",
"4. c #2B2A3A",
"5. c #2A283D",
"6. c #2A283E",
"7. c #2A283F",
"8. c #2B293F",
"9. c #2E2E3E",
"0. c #2F3032",
"q. c #2F3033",
"w. c #2F3034",
"e. c #303134",
"r. c #303135",
"t. c #303137",
"y. c #313237",
"u. c #31333A",
"i. c #323438",
"p. c #35373B",
"a. c #32343C",
"s. c #34363F",
"d. c #36383E",
"f. c #393B3F",
"g. c #2B2840",
"h. c #2B2841",
"j. c #2C2841",
"k. c #2C2941",
"l. c #2D2A41",
"z. c #2E2B43",
"x. c #2F2E41",
"c. c #2E2B44",
"v. c #2E2B45",
"b. c #2F2C45",
"n. c #2F2C46",
"m. c #302F42",
"M. c #302F43",
"N. c #302D46",
"B. c #322F49",
"V. c #323242",
"C. c #313044",
"Z. c #373746",
"A. c #383A40",
"S. c #393B40",
"D. c #3A3B40",
"F. c #3A3C42",
"G. c #3A3C44",
"H. c #3B3E44",
"J. c #3B3E45",
"K. c #3C3E44",
"L. c #3D3F45",
"P. c #3C3F46",
"I. c #33304C",
"U. c #33314C",
"Y. c #34314D",
"T. c #34324D",
"R. c #36334F",
"E. c #39394A",
"W. c #3D3F48",
"Q. c #363350",
"!. c #373450",
"~. c #373451",
"^. c #373452",
"/. c #393651",
"(. c #383552",
"). c #383453",
"_. c #393752",
"`. c #393753",
"'. c #3B3757",
"]. c #3A3853",
"[. c #3B3857",
"{. c #3C3A57",
"}. c #3C3859",
"|. c #3C3959",
" X c #3D3A58",
".X c #3C395A",
"XX c #3D3A5A",
"oX c #3E3B5A",
"OX c #3E3B5C",
"+X c #3F3D5C",
"@X c #403D5D",
"#X c #403D5E",
"$X c #413E5E",
"%X c #413D60",
"&X c #413E61",
"*X c #423E61",
"=X c #433F63",
"-X c #3E4048",
";X c #3E4148",
":X c #404248",
">X c #404249",
",X c #434064",
"<X c #444064",
"1X c #444164",
"2X c #444065",
"3X c #444165",
"4X c #454265",
"5X c #444166",
"6X c #464267",
"7X c #474369",
"8X c #48446A",
"9X c #49456C",
"0X c #4A466D",
"qX c #4A466E",
"wX c #4B476E",
"eX c #4B4770",
"rX c #4C4870",
"tX c #4C4871",
"yX c #4D4872",
"uX c #4D4972",
"iX c #4D4973",
"pX c #4E4973",
"aX c #4E4A73",
"sX c #4E4A74",
"dX c #4F4B75",
"fX c #504B77",
"gX c #504C77",
"hX c #524D79",
"jX c #524E79",
"kX c #534F7B",
"lX c #55507D",
"zX c #595483",
"xX c #615C8E",
"cX c #625D90",
"vX c #656195",
"bX c #686398",
"nX c #6A659B",
"mX c None",
/* pixels */
"k.g.g.g.g.g.g.g.7.7.g.g.g.g.g.g.g.g.k.k.k.g.g.g.g.g.g.k.k.k.k.k.k.k.k.k.k.g.g.g.g.g.g.k.k.k.g.g.g.g.g.g.g.g.g.g.g.g.g.g.g.g.g.k.",
"g.n.).|.|.|.|.|.|.|.|.|.|.|.|.|.|.Y.3./ I &.Z.E.V.9.9.3.` P +.*.*.+.P ` 3.9.9.V.E.Z.&.I / 3.Y.|.|.|.|.|.|.|.|.|.|.|.|.|.|.).n.g.",
"7.I.3XiXiXiXiXiXiXiXiXiXiXiXiXiXdX#XX.< A r.P.P.u.=.=.R < < N A A N < < R =.=.u.P.P.r.A < X.#XdXiXiXiXiXiXiXiXiXiXiXiXiXiX3XI.7.",
"7.I.3XiXiXiXiXiXiXiXiXiXiXiXiXiXdX#XX.K F.P.^ < - = = < K A < O O < A K < = = - < ^ P.F.K X.#XdXiXiXiXiXiXiXiXiXiXiXiXiXiX3XI.7.",
"7.I.3XiXiXiXiXiXiXiXiXiXiXiXiXiXiX#XX.N r.w.<   * f f f N N f f f f N N f f f *   < w.r.N X.#XiXiXiXiXiXiXiXiXiXiXiXiXiXiX3XI.7.",
"7.I.3XiXiXiXiXiXiXiXiXiXiXiXiXiXiX#XX.< f < O % A ! ! A O O A ! ! A O O A ! ! A % O < f < X.#XiXiXiXiXiXiXiXiXiXiXiXiXiXiX3XI.7.",
"7.I.3XiXiXiXiXiXiXiXiXiXiXiXiXiXiX#XX.< f a O % A ! ! A O O A ! ! A O O A ! ! A % O a f < X.#XiXiXiXiXiXiXiXiXiXiXiXiXiXiX3XI.7.",
"7.I.3XiXiXiXiXiXiXiXiXiXiXiXiXiXiX#XX.N i.r.<   % < < f N N f < < f N N f < < %   < r.i.N X.#XiXiXiXiXiXiXiXiXiXiXiXiXiXiX3XI.7.",
"7.I.3XiXiXiXiXiXiXiXiXiXiXiXiXiXiX#X] K D.G.$.s < - - s K A < O O < A K s - - < s $.G.D.K ] #XiXiXiXiXiXiXiXiXiXiXiXiXiXiX3XI.7.",
"7.I.3XiXiXiXiXiXiXiXiXiXiXiXiXiXiX#XX.< B q.P.;Xa.-.-.@.< < B Y Y B < < @.-.-.a.;XP.q.B < X.#XiXiXiXiXiXiXiXiXiXiXiXiXiXiX3XI.7.",
"7.I.3XiXiXiXiXiXiXiXiXiXiXiXiXiXiX8X|.x.F f q.f.;XW.s.#.- O A ~ ~ A O - #.s.W.;Xf.q.f F x.|.8XiXiXiXiXiXiXiXiXiXiXiXiXiXiX3XI.7.",
"7.I.3XiXiXiXiXiXiXiXiXiXiXiXiXiXiXiXdX3Xm.P f ! D.>XG.-.< O f A A f O < -.G.>XD.! f P m.3XdXiXiXiXiXiXiXiXiXiXiXiXiXiXiXiX3XI.7.",
"7.I.3XiXiXiXiXiXiXiXiXiXiXiXiXiXiXiXiXiX0X{.] < B q.>XG.G   O O O O   G G.>Xq.B < ] {.0XiXiXiXiXiXiXiXiXiXiXiXiXiXiXiXiXiX3XI.7.",
"g.Y.3XdXdXdXdXdXdXiXdXdXdXdXdXdXdXdXdXdXfX0X|.m.F f %.p.d.r.B * * B r.d.p.%.f F m.|.0XfXdXdXdXdXdXiXdXdXdXdXdXdXiXiXdXdXdX3XY.g.",
"<.c.'.*X*X*X*X*X*X*X*X*X*X*X*X*X*X*X*X*X*X7XiX3XC.U f Y D.D.! < < ! D.D.Y f U C.3XiX7X*X*X*X*X*X*X*X*X*X*X*X*X*X#X*X*X*X*X'.c.<.",
"r u / / / / / / / / / / / / / / / / / [ <.B.3XiX0X|.X.< N N 9 < < 9 N N < X.|.0XiX3XB.<.[ / / / / / / / / / / / / / / / / / u r ",
"mXmXmXmXmXmXmXmXmXmXmXmXmXmXmXmXmXmXmX0 r [ N.|.0X0X+X).).).).].].).).).).+X0X0X|.N.[ r 0 mXmXmXmXmXmXmXmXmXmXmXmXmXmXmXmXmXmXmX",
"mXmXmXmXmXmXmXmXmXmXmXmXmXmXmXmXmXmXmXmX0 r u 7.[.3X3X3X3X3X3X3X3X3X3X3X3X3X3X[.7.u r 0 mXmXmXmXmXmXmXmXmXmXmXmXmXmXmXmXmXmXmXmX",
"mXmXmXmXmXmXmXmXmXmXmXmXmXmXmXmXmXmXmXmXmXmXw p <.1.1.1.1.1.1.1.1.1.1.1.1.1.1.<.p w mXmXmXmXmXmXmXmXmXmXmXmXmXmXmXmXmXmXmXmXmXmX",
"mXmXmXmXmXmXmXmXmXmXmXmXmXmXmXmXmXmXmXmXmXmXmXw r u r r r r r r r r r r r r u r w mXmXmXmXmXmXmXmXmXmXmXmXmXmXmXmXmXmXmXmXmXmXmX",
"mXmXmXmXmXmXmXmXmXmXmXmXmXmXmXmXmXmXmXmXmXmXmXmX0 0 0 0 0 0 0 0 0 0 0 0 0 0 0 0 mXmXmXmXmXmXmXmXmXmXmXmXmXmXmXmXmXmXmXmXmXmXmXmX",
"mXmXmXmXmXmXmXmXmXmXmXmXmXmXmXmXmXmXmXmXmXmXmXmXmXmXmXmXmXmXmXmXmXmXmXmXmXmXmXmXmXmXmXmXmXmXmXmXmXmXmXmXmXmXmXmXmXmXmXmXmXmXmXmX",
"mXmXmXmXmXmXmXmXmXmXmXmXmXmXmXmXmXmXmXmXmXmXmXmXmXmXmXmXmXmXmXmXmXmXmXmXmXmXmXmXmXmXmXmXmXmXmXmXmXmXmXmXmXmXmXmXmXmXmXmXmXmXmXmX",
"mXmXmXmXmXmXmXmXmXmXmXmXmXmXmXmXmXmXmXmXmXmXmXmXmXmXmXmXmXmXmXmXmXmXmXmXmXmXmXmXmXmXmXmXmXmXmXmXmXmXmXmXmXmXmXmXmXmXmXmXmXmXmXmX",
"mXmXmXmXmXmXmXmXmXmXmXmXmXmXmXmXmXmXmXmXmXmXmXmXmXmXmXmXmXmXmXmXmXmXmXmXmXmXmXmXmXmXmXmXmXmXmXmXmXmXmXmXmXmXmXmXmXmXmXmXmXmXmXmX",
"mXmXmXmXmXmXmXmXmXmXmXmXmXmXmXmXmXmXmXmXmXmXmXmXmXmXmXmXmXmXmXmXmXmXmXmXmXmXmXmXmXmXmXmXmXmXmXmXmXmXmXmXmXmXmXmXmXmXmXmXmXmXmXmX",
"mXmXmXmXmXmXmXmXmXmXmXmXmXmXmXmXmXmXmXmXmXmXmXmXmXmXmXmXmXmXmXmXmXmXmXmXmXmXmXmXmXmXmXmXmXmXmXmXmXmXmXmXmXmXmXmXmXmXmXmXmXmXmXmX",
"mXmXmXmXmXmXmXmXmXmXmXmXmXmXmXmXmXmXmXmXmXmXmXmXmXmXmXmXmXmXmXmXmXmXmXmXmXmXmXmXmXmXmXmXmXmXmXmXmXmXmXmXmXmXmXmXmXmXmXmXmXmXmXmX",
"mXmXmXmXmXmXmXmXmXmXmXmXmXmXmXmXmXmXmXmXmXmXmXmXmXmXmXmXmXmXmXmXmXmXmXmXmXmXmXmXmXmXmXmXmXmXmXmXmXmXmXmXmXmXmXmXmXmXmXmXmXmXmXmX",
"mXmXmXmXmXmXmXmXmXmXmXmXmXmXmXmXmXmXmXmXmXmXmXmXmXmXmXmXmXmXmXmXmXmXmXmXmXmXmXmXmXmXmXmXmXmXmXmXmXmXmXmXmXmXmXmXmXmXmXmXmXmXmXmX",
"mXmXmXmXmXmXmXmXmXmXmXmXmXmXmXmXmXmXmXmXmXmXmXmXmXmXmXmXmXmXmXmXmXmXmXmXmXmXmXmXmXmXmXmXmXmXmXmXmXmXmXmXmXmXmXmXmXmXmXmXmXmXmXmX",
"mXmXmXmXmXmXmXmXmXmXmXmXmXmXmXmXmXmXmXmXmXmXmXmXmXmXmXmXmXmXmXmXmXmXmXmXmXmXmXmXmXmXmXmXmXmXmXmXmXmXmXmXmXmXmXmXmXmXmXmXmXmXmXmX",
"mXmXmXmXmXmXmXmXmXmXmXmXmXmXmXmXmXmXmXmXmXmXmXmXmXmXmXmXmXmXmXmXmXmXmXmXmXmXmXmXmXmXmXmXmXmXmXmXmXmXmXmXmXmXmXmXmXmXmXmXmXmXmXmX",
"mXmXmXmXmXmXmXmXmXmXmXmXmXmXmXmXmXmXmXmXmXmXmXmXmXmXmXmXmXmXmXmXmXmXmXmXmXmXmXmXmXmXmXmXmXmXmXmXmXmXmXmXmXmXmXmXmXmXmXmXmXmXmXmX",
"mXmXmXmXmXmXmXmXmXmXmXmXmXmXmXmXmXmXmXmXmXmXmXmXmXmXmXmXmXmXmXmXmXmXmXmXmXmXmXmXmXmXmXmXmXmXmXmXmXmXmXmXmXmXmXmXmXmXmXmXmXmXmXmX",
"mXmXmXmXmXmXmXmXmXmXmXmXmXmXmXmXmXmXmXmXmXmXmXmXmXmXmXmXmXmXmXmXmXmXmXmXmXmXmXmXmXmXmXmXmXmXmXmXmXmXmXmXmXmXmXmXmXmXmXmXmXmXmXmX",
"mXmXmXmXmXmXmXmXmXmXmXmXmXmXmXmXmXmXmXmXmXmXmXmXmXmXmXmXmXmXmXmXmXmXmXmXmXmXmXmXmXmXmXmXmXmXmXmXmXmXmXmXmXmXmXmXmXmXmXmXmXmXmXmX",
"mXmXmXmXmXmXmXmXmXmXmXmXmXmXmXmXmXmXmXmXmXmXmXmXmXmXmXmXmXmXmXmXmXmXmXmXmXmXmXmXmXmXmXmXmXmXmXmXmXmXmXmXmXmXmXmXmXmXmXmXmXmXmXmX",
"mXmXmXmXmXmXmXmXmXmXmXmXmXmXmXmXmXmXmXmXmXmXmXmXmXmXmXmXmXmXmXmXmXmXmXmXmXmXmXmXmXmXmXmXmXmXmXmXmXmXmXmXmXmXmXmXmXmXmXmXmXmXmXmX",
"mXmXmXmXmXmXmXmXmXmXmXmXmXmXmXmXmXmXmXmXmXmXmXmXmXmXmXmXmXmXmXmXmXmXmXmXmXmXmXmXmXmXmXmXmXmXmXmXmXmXmXmXmXmXmXmXmXmXmXmXmXmXmXmX",
"mXmXmXmXmXmXmXmXmXmXmXmXmXmXmXmXmXmXmXmXmXmXmXmXmXmXmXmXmXmXmXmXmXmXmXmXmXmXmXmXmXmXmXmXmXmXmXmXmXmXmXmXmXmXmXmXmXmXmXmXmXmXmXmX",
"mXmXmXmXmXmXmXmXmXmXmXmXmXmXmXmXmXmXmXmXmXmXmXmXmXmXmXmXmXmXmXmXmXmXmXmXmXmXmXmXmXmXmXmXmXmXmXmXmXmXmXmXmXmXmXmXmXmXmXmXmXmXmXmX",
"mXmXmXmXmXmXmXmXmXmXmXmXmXmXmXmXmXmXmXmXmXmXmXmXmXmXmXmXmXmXmXmXmXmXmXmXmXmXmXmXmXmXmXmXmXmXmXmXmXmXmXmXmXmXmXmXmXmXmXmXmXmXmXmX",
"mXmXmXmXmXmXmXmXmXmXmXmXmXmXmXmXmXmXmXmXmXmXmXmXmXmXmXmXmXmXmXmXmXmXmXmXmXmXmXmXmXmXmXmXmXmXmXmXmXmXmXmXmXmXmXmXmXmXmXmXmXmXmXmX",
"mXmXmXmXmXmXmXmXmXmXmXmXmXmXmXmXmXmXmXmXmXmXmXmXmXmXmXmXmXmXmXmXmXmXmXmXmXmXmXmXmXmXmXmXmXmXmXmXmXmXmXmXmXmXmXmXmXmXmXmXmXmXmXmX",
"mXmXmXmXmXmXmXmXmXmXmXmXmXmXmXmXmXmXmXmXmXmXmXmXmXmXmXmXmXmXmXmXmXmXmXmXmXmXmXmXmXmXmXmXmXmXmXmXmXmXmXmXmXmXmXmXmXmXmXmXmXmXmXmX",
"mXmXmXmXmXmXmXmXmXmXmXmXmXmXmXmXmXmXmXmXmXmXmXmXmXmXmXmXmXmXmXmXmXmXmXmXmXmXmXmXmXmXmXmXmXmXmXmXmXmXmXmXmXmXmXmXmXmXmXmXmXmXmXmX",
"mXmXmXmXmXmXmXmXmXmXmXmXmXmXmXmXmXmXmXmXmXmXmXmXmXmXmXmXmXmXmXmXmXmXmXmXmXmXmXmXmXmXmXmXmXmXmXmXmXmXmXmXmXmXmXmXmXmXmXmXmXmXmXmX",
"mXmXmXmXmXmXmXmXmXmXmXmXmXmXmXmXmXmXmXmXmXmXmXmXmXmXmXmXmXmXmXmXmXmXmXmXmXmXmXmXmXmXmXmXmXmXmXmXmXmXmXmXmXmXmXmXmXmXmXmXmXmXmXmX",
"mXmXmXmXmXmXmXmXmXmXmXmXmXmXmXmXmXmXmXmXmXmXmXmXmXmXmXmXmXmXmXmXmXmXmXmXmXmXmXmXmXmXmXmXmXmXmXmXmXmXmXmXmXmXmXmXmXmXmXmXmXmXmXmX",
"mXmXmXmXmXmXmXmXmXmXmXmXmXmXmXmXmXmXmXmXmXmXmXmXmXmXmXmXmXmXmXmXmXmXmXmXmXmXmXmXmXmXmXmXmXmXmXmXmXmXmXmXmXmXmXmXmXmXmXmXmXmXmXmX",
"mXmXmXmXmXmXmXmXmXmXmXmXmXmXmXmXmXmXmXmXmXmXmXmXmXmXmXmXmXmXmXmXmXmXmXmXmXmXmXmXmXmXmXmXmXmXmXmXmXmXmXmXmXmXmXmXmXmXmXmXmXmXmXmX",
"mXmXmXmXmXmXmXmXmXmXmXmXmXmXmXmXmXmXmXmXmXmXmXmXmXmXmXmXmXmXmXmXmXmXmXmXmXmXmXmXmXmXmXmXmXmXmXmXmXmXmXmXmXmXmXmXmXmXmXmXmXmXmXmX",
"mXmXmXmXmXmXmXmXmXmXmXmXmXmXmXmXmXmXmXmXmXmXmXmXmXmXmXmXmXmXmXmXmXmXmXmXmXmXmXmXmXmXmXmXmXmXmXmXmXmXmXmXmXmXmXmXmXmXmXmXmXmXmXmX",
"mXmXmXmXmXmXmXmXmXmXmXmXmXmXmXmXmXmXmXmXmXmXmXmXmXmXmXmXmXmXmXmXmXmXmXmXmXmXmXmXmXmXmXmXmXmXmXmXmXmXmXmXmXmXmXmXmXmXmXmXmXmXmXmX",
"mXmXmXmXmXmXmXmXmXmXmXmXmXmXmXmXmXmXmXmXmXmXmXmXmXmXmXmXmXmXmXmXmXmXmXmXmXmXmXmXmXmXmXmXmXmXmXmXmXmXmXmXmXmXmXmXmXmXmXmXmXmXmXmX",
"mXmXmXmXmXmXmXmXmXmXmXmXmXmXmXmXmXmXmXmXmXmXmXmXmXmXmXmXmXmXmXmXmXmXmXmXmXmXmXmXmXmXmXmXmXmXmXmXmXmXmXmXmXmXmXmXmXmXmXmXmXmXmXmX",
"mXmXmXmXmXmXmXmXmXmXmXmXmXmXmXmXmXmXmXmXmXmXmXmXmXmXmXmXmXmXmXmXmXmXmXmXmXmXmXmXmXmXmXmXmXmXmXmXmXmXmXmXmXmXmXmXmXmXmXmXmXmXmXmX",
"k.1.<.[ [ [ [ [ [ [ [ [ [ [ [ [ [ [ [ [ mXmXmXmXmXmXmXmXmXmXmXmXmXmXmXmXmXmXmXmXmXmXmXmX[ [ [ [ [ [ [ [ [ [ [ [ [ [ [ [ [ <.1.k.",
"g.c.Y.).).~.~.~.~.Q.Q.Q.Q.~.~.~.~.).).Y.7.mXmXmXmXmXmXmXmXmXmXmXmXmXmXmXmXmXmXmXmXmXmX7.Y.).).~.~.~.~.Q.Q.Q.Q.~.~.~.~.).).Y.c.g.",
"7.I.3XiXiXiXiXiXgXkXkXkXkXgXiXiXiXiXiX3XI.7.mXmXmXmXmXmXmXmXmXmXmXmXmXmXmXmXmXmXmXmX7.I.3XiXiXiXiXiXgXkXkXkXkXgXiXiXiXiXiX3XI.7.",
"7.I.3XiXiXiXiXkXxXbXbXbXbXxXkXiXiXiXiXeX8XOXk.[ mXmXmXmXmXmXmXmXmXmXmXmXmXmXmXmX[ k.OX8XeXiXiXiXiXkXxXbXbXbXbXxXkXiXiXiXiX3XI.7.",
"7.I.3XiXiXiXiXgXzXcXnXnXcXzXgXiXiXiXiXiXdX0XOXY.k.[ [ X.X.<.<.X.X.X.X.X.:.[ [ k.Y.OX0XdXiXiXiXiXiXgXzXcXnXnXcXzXgXiXiXiXiX3XI.7.",
"7.I.3XiXiXiXiXiXiXlXvXvXlXiXiXiXiXiXiXiXiXiXiX,Xn.[ [ X.X.X.X.X.X.X.X.X.:.[ [ n.,XiXiXiXiXiXiXiXiXiXiXlXvXvXlXiXiXiXiXiXiX3XI.7."
};
