/* XPM */
static const char *airlock_06[] = {
/* columns rows colors chars-per-pixel */
"64 64 121 2 ",
"   c #15161A",
".  c #17181C",
"X  c #1B1C1E",
"o  c #1D1E22",
"O  c #1E1C2B",
"+  c #201E2E",
"@  c #211F30",
"#  c #1F2024",
"$  c #222325",
"%  c #24252A",
"&  c #27282A",
"*  c #2B2B2C",
"=  c #252434",
"-  c #2B2C33",
";  c #262438",
":  c #2A273F",
">  c #2A283E",
",  c #2F3036",
"<  c #2F3138",
"1  c #313337",
"2  c #33353B",
"3  c #36383F",
"4  c #2C2941",
"5  c #2E2D40",
"6  c #2E2D41",
"7  c #2F2E42",
"8  c #2E2B44",
"9  c #2F2D45",
"0  c #2F2C46",
"q  c #2C2941",
"w  c #302D46",
"e  c #322F49",
"r  c #373A42",
"t  c #383A41",
"y  c #383B42",
"u  c #393B42",
"i  c #3B3D43",
"p  c #3B3D44",
"a  c #3B3E45",
"s  c #3D3F44",
"d  c #3D3F45",
"f  c #3D3F46",
"g  c #3D3F47",
"h  c #33304A",
"j  c #33304B",
"k  c #343249",
"l  c #34334A",
"z  c #35334A",
"x  c #33304C",
"c  c #34314C",
"v  c #34314D",
"b  c #35334C",
"n  c #36344C",
"m  c #36354D",
"M  c #36354E",
"N  c #37354E",
"B  c #33304C",
"V  c #373451",
"C  c #373451",
"Z  c #383453",
"A  c #393654",
"S  c #3C3859",
"D  c #3C3959",
"F  c #3D3959",
"G  c #3D395A",
"H  c #3E3C5B",
"J  c #3F3C5B",
"K  c #3E3B5C",
"L  c #3F3D5C",
"P  c #403D5D",
"I  c #403D5E",
"U  c #403D5F",
"Y  c #403E5E",
"T  c #413E5E",
"R  c #413E5F",
"E  c #403D60",
"W  c #413D60",
"Q  c #413E61",
"!  c #423F61",
"~  c #433F63",
"^  c #3F4147",
"/  c #404249",
"(  c #40434B",
")  c #42444C",
"_  c #434062",
"`  c #444163",
"'  c #444064",
"]  c #444164",
"[  c #444065",
"{  c #444165",
"}  c #454266",
"|  c #454267",
" . c #464367",
".. c #444065",
"X. c #474368",
"o. c #474469",
"O. c #474369",
"+. c #48446B",
"@. c #49456C",
"#. c #4B476E",
"$. c #4B476F",
"%. c #4B476F",
"&. c #4B4770",
"*. c #4B4770",
"=. c #4C4870",
"-. c #4C4871",
";. c #4D4972",
":. c #4D4973",
">. c #4E4973",
",. c #4E4A73",
"<. c #4E4A74",
"1. c #4E4A75",
"2. c #4F4A75",
"3. c #4F4B75",
"4. c #4D4972",
"5. c #524E7A",
"6. c #55507D",
"7. c #5E5A8A",
"8. c #645F92",
"9. c #656195",
"0. c #6C679E",
/* pixels */
"4 q q q q q q q > > > q q q q q q q q q > > > q q q q q q q q q > > > q q q q q q q q q > > > q q q q q q q q q q q q q q q q 4 ",
"q 0 Z D D D D D D D D D D D D D D D D D D D D D D D D D D D D D D D D D D D D D D D D D D D D D D D D D D D D D D D D D D Z 0 q ",
"> x { :.:.:.:.:.:.:.:.:.:.:.:.:.:.:.:.:.:.:.:.:.:.:.:.:.:.:.:.:.:.:.:.:.:.:.:.:.:.:.:.:.:.:.:.:.:.:.:.:.:.:.:.:.:.:.:.:.:.{ x > ",
"> x { :.:.:.:.:.:.:.:.:.:.:.:.:.:.:.:.:.:.:.:.:.:.:.:.:.:.:.:.:.:.:.:.:.:.:.:.:.:.:.:.:.:.:.:.:.:.:.:.:.:.:.:.:.:.:.:.:.:.{ x > ",
"> x { :.:.:.:.:.:.:.:.:.:.:.:.:.:.:.:.:.:.:.:.:.:.:.:.:.:.:.:.:.:.:.:.:.:.:.:.:.:.:.:.:.:.:.:.:.:.:.:.:.:.:.:.:.:.:.:.:.:.{ x > ",
"> x { :.:.:.:.:.:.:.:.:.:.:.:.:.:.:.:.:.:.:.:.:.:.:.:.:.:.:.:.:.:.:.:.:.:.:.:.:.:.:.:.:.:.:.:.:.:.:.:.:.:.:.:.:.:.:.:.:.:.{ x > ",
"> x { :.:.:.:.:.:.:.:.:.:.:.:.:.:.:.:.:.:.:.:.:.:.:.:.:.:.:.:.:.:.:.:.:.:.:.:.:.:.:.:.:.:.:.:.:.:.:.:.:.:.:.:.:.:.:.:.:.:.{ x > ",
"> x { :.:.:.:.:.:.:.:.:.:.:.:.:.:.:.:.:.:.:.:.:.:.:.:.:.:.:.:.:.:.:.:.:.:.:.:.:.:.:.:.:.:.:.:.:.:.:.:.:.:.:.:.:.:.:.:.:.:.{ x > ",
"> x { :.:.:.:.:.:.:.:.:.:.:.:.:.:.:.:.:.:.:.:.:.:.:.:.:.:.:.:.:.:.:.:.:.:.:.:.:.:.:.:.:.:.:.:.:.:.:.:.:.:.:.:.:.:.:.:.:.:.{ x > ",
"> x { :.:.:.:.:.:.:.:.:.:.:.:.:.:.:.:.:.:.:.:.:.:.:.:.:.:.:.:.:.:.:.:.:.:.:.:.:.:.:.:.:.:.:.:.:.:.:.:.:.:.:.:.:.:.:.:.:.:.{ x > ",
"> x { :.:.:.:.:.:.:.:.:.:.:.:.:.:.:.:.:.:.:.:.:.:.:.:.:.:.:.:.:.:.:.:.:.:.:.:.:.:.:.:.:.:.:.:.:.:.:.:.:.:.:.:.:.:.:.:.:.:.{ x > ",
"> x { :.:.:.:.:.:.:.:.:.:.:.:.:.:.:.:.:.:.:.:.:.:.:.:.:.:.:.:.:.:.:.:.:.:.:.:.:.:.:.:.:.:.:.:.:.:.:.:.:.:.:.:.:.:.:.:.:.:.{ x > ",
"> x { :.:.:.:.:.:.:.:.:.:.:.:.:.:.:.:.:.:.:.:.:.:.:.:.:.:.:.:.:.:.:.:.:.:.:.:.:.:.:.:.:.:.:.:.:.:.:.:.:.:.:.:.:.:.:.:.:.:.{ x > ",
"> x { :.:.:.:.:.:.:.:.:.:.:.:.:.:.:.:.:.:.:.:.:.:.:.:.:.:.:.:.:.:.:.:.:.:.:.:.:.:.:.:.:.:.:.:.:.:.:.:.:.:.:.:.:.:.:.:.:.:.{ x > ",
"> x { :.:.:.:.:.:.:.:.:.:.:.:.:.:.:.:.:.:.:.:.:.:.:.:.:.:.:.:.:.:.:.:.:.:.:.:.:.:.:.:.:.:.:.:.:.:.:.:.:.:.:.:.:.:.:.:.:.:.{ x > ",
"> x { :.:.:.:.:.:.:.:.:.:.:.:.:.:.:.:.:.:.:.:.:.:.:.:.:.:.=.=.=.:.=.=.=.=.=.:.:.:.:.:.:.:.:.:.:.:.:.:.:.:.:.:.:.:.:.:.:.:.{ x > ",
"> x { :.:.:.:.:.:.:.:.:.:.:.:.:.:.:.:.:.:.:.:.:.2.X.m 5 5 5 5 5 5 5 5 5 5 m X.2.:.:.:.:.:.:.:.:.:.:.:.:.:.:.:.:.:.:.:.:.:.{ x > ",
"> x { :.:.:.:.:.:.:.:.:.:.:.:.:.:.:.:.:.:.:.:.#.{ m % o % % # X X # % % o % m { #.:.:.:.:.:.:.:.:.:.:.:.:.:.:.:.:.:.:.:.:.{ x > ",
"> x { :.:.:.:.:.:.:.:.:.:.:.:.:.:.:.:.:.:.:.:.P > # $ * d d * $ $ * d d * $ # > P :.:.:.:.:.:.:.:.:.:.:.:.:.:.:.:.:.:.:.:.{ x > ",
"> x { :.:.:.:.:.:.:.:.:.:.:.:.:.:.:.:.:.2.X.m - $ % 2 d d u , - - , u d d 2 % $ - m X.2.:.:.:.:.:.:.:.:.:.:.:.:.:.:.:.:.:.{ x > ",
"> x { :.:.:.:.:.:.:.:.:.:.:.:.:.:.:.:.#.` m % X X & 3 u - - < 2 2 < - - u 3 & X X % m ` #.:.:.:.:.:.:.:.:.:.:.:.:.:.:.:.:.{ x > ",
"> x { :.:.:.:.:.:.:.:.:.:.:.:.:.:.:.:.P > $ $ $ X X o o X # - 2 2 - # X o o X X $ $ $ > P :.:.:.:.:.:.:.:.:.:.:.:.:.:.:.:.{ x > ",
"> x { :.:.:.:.:.:.:.:.:.:.:.:.:.:.{ n - $ % 2 2 # X # $ % $ $ $ $ $ $ $ $ o X $ 2 2 % $ - m { :.:.:.:.:.:.:.:.:.:.:.:.:.:.{ x > ",
"> x { :.:.:.:.:.:.:.:.:.:.:.:.:.:.P = o & 2 / u $ X % * * & X     X & * * % X $ u / 2 & o = P :.:.:.:.:.:.:.:.:.:.:.:.:.:.{ x > ",
"> x { :.:.:.:.:.:.:.:.:.:.:.:.:.:.P = % i ) r - o o % * * % o     o % * * % o o - r ) i % = P :.:.:.:.:.:.:.:.:.:.:.:.:.:.{ x > ",
"> x { :.:.:.:.:.:.:.:.:.:.:.:.:.:.P = $ - 1 2 - - % $ o o # $ $ $ $ # o o $ % - - 2 1 - $ = P :.:.:.:.:.:.:.:.:.:.:.:.:.:.{ x > ",
"> x { :.:.:.:.:.:.:.:.:.:.:.:.:.:.P = X X % - 2 2 - o     X % & & % X     o - 2 2 - % X X = P :.:.:.:.:.:.:.:.:.:.:.:.:.:.{ x > ",
"> x { :.:.:.:.:.:.:.:.:.:.:.:.:.:.P = o $ & - 2 < - o . . X % & & % X . . o - < 2 - & $ o = P :.:.:.:.:.:.:.:.:.:.:.:.:.:.{ x > ",
"> x { :.:.:.:.:.:.:.:.:.:.:.:.:.:.P = % 3 i 2 - % $ $ % % $ # o o o $ $ $ $ $ % - 2 i 3 % = P :.:.:.:.:.:.:.:.:.:.:.:.:.:.{ x > ",
"> x { :.:.:.:.:.:.:.:.:.:.:.:.:.:.P = $ 3 ^ p 2 o X % * * % X     X % & & % X o 2 p ^ 3 $ = P :.:.:.:.:.:.:.:.:.:.:.:.:.:.{ x > ",
"> x { :.:.:.:.:.:.:.:.:.:.:.:.:.:.P > o $ - ^ p % X $ & & % o X . o % & & $ X % p ^ - $ o > P :.:.:.:.:.:.:.:.:.:.:.:.:.:.{ x > ",
"> x { :.:.:.:.:.:.:.:.:.:.:.:.:.:.#.P k % $ * * o . X X X o % - - % # X X X . o * * $ % k P #.:.:.:.:.:.:.:.:.:.:.:.:.:.:.{ x > ",
"> x { :.:.:.:.:.:.:.:.:.:.:.:.:.:.:.2.{ k = $ X X o % % $ % - 2 2 - % $ % % o X X $ = k { 2.:.:.:.:.:.:.:.:.:.:.:.:.:.:.:.{ x > ",
"> x { :.:.:.:.:.:.:.:.:.:.:.:.:.:.:.:.:.:.L > o # * d / 3 < < < < < < 3 / d * # o > L :.:.:.:.:.:.:.:.:.:.:.:.:.:.:.:.:.:.{ x > ",
"q v { 2.2.2.2.2.2.2.2.2.2.2.2.2.2.2.2.2.2.#.~ k % $ * 2 / d - % % - d / 2 * $ % k ~ #.2.2.2.2.2.2.2.2.2.2.2.2.2.2.2.2.2.2.{ v q ",
"; 4 V D D D D D D D D D D D D D D D D D K { :.o.v = $ % 2 2 % X X % 2 2 % $ = v o.:.{ K D D D D D D D D D D D D D D D D D V 4 ; ",
"O O + + + + + + + + + + + + + + + + + @ ; 0 ~ #.:.P > o % % % # # % % % o > P :.&.~ 0 ; @ + + + + + + + + + + + + + + + + + O O ",
"; ; = @ @ @ @ @ @ @ @ @ @ @ @ @ + + @ + O = 4 Z +.:._ J J J J L L J J J J _ :.+.A 4 = O + @ @ @ @ @ @ @ @ @ @ @ @ @ @ @ @ = ; ; ",
"4 8 e v v v v v j j j j j j v v k k v j w > = ; V P P ~ ~ P P P P P P ~ ~ P P V ; = > w j v v v v v j j j j j j v v v v v e 8 4 ",
"> x ~ :.:.#.#.:.:.:.:.:.:.:.:.#.#.#.#.:.:.~ > = ; ; ; ; ; ; ; ; ; ; ; ; ; ; ; ; = > ~ :.:.#.#.#.#.:.:.:.:.:.:.:.:.#.#.:.:.~ x > ",
": x { 2.:.:.:.5.7.9.9.9.9.7.5.:.:.:.:.:.:.#.' V ; O O O O O O O O O O O O O O ; V _ #.:.:.:.:.:.:.5.7.9.9.9.9.7.5.:.:.:.2.{ x : ",
"> j { :.:.:.:.5.7.9.0.0.9.7.5.:.:.:.:.:.:.:.2.X.C 8 0 0 0 0 0 0 0 0 0 0 0 0 8 v X.2.:.:.:.:.:.:.:.5.7.9.0.0.9.7.5.:.:.:.:.{ x > ",
"> x { :.:.:.:.:.:.6.8.8.6.:.:.:.:.:.:.:.:.:.:.:.&.#.#.#.#.#.#.#.#.#.#.#.#.#.#.#.:.:.:.:.:.:.:.:.:.:.:.6.8.8.6.:.:.:.:.:.:.{ x > ",
"> x { :.:.:.:.:.:.2.5.5.2.:.:.:.:.:.:.:.:.:.:.:.:.:.:.:.:.:.:.:.:.:.:.:.:.:.:.:.:.:.:.:.:.:.:.:.:.:.:.:.5.5.2.:.:.:.:.:.:.{ x > ",
"> x { :.:.:.:.:.:.:.=.=.:.:.:.:.:.:.:.:.:.:.:.:.:.:.:.:.:.:.:.:.:.:.:.:.:.:.:.:.:.:.:.:.:.:.:.:.:.:.:.:.=.=.:.:.:.:.:.:.:.{ x > ",
"> x { :.:.:.:.:.:.:.:.:.:.:.:.:.:.:.:.:.:.:.:.:.:.:.:.:.:.:.:.:.:.:.:.:.:.:.:.:.:.:.:.:.:.:.:.:.:.:.:.:.:.:.:.:.:.:.:.:.:.{ x > ",
"> x { :.:.:.:.:.:.:.:.:.:.:.:.:.:.:.:.:.:.:.:.:.:.:.:.:.:.:.:.:.:.:.:.:.:.:.:.:.:.:.:.:.:.:.:.:.:.:.:.:.:.:.:.:.:.:.:.:.:.{ x > ",
"> x { :.:.:.:.:.:.:.:.:.:.:.:.:.:.:.:.:.:.:.:.:.:.:.:.:.:.:.:.:.:.:.:.:.:.:.:.:.:.:.:.:.:.:.:.:.:.:.:.:.:.:.:.:.:.:.:.:.:.{ x > ",
"> x { :.:.:.:.:.:.:.:.:.:.:.:.:.:.:.:.:.:.:.:.:.:.:.:.:.:.:.:.:.:.:.:.:.:.:.:.:.:.:.:.:.:.:.:.:.:.:.:.:.:.:.:.:.:.:.:.:.:.{ x > ",
"> x { :.:.:.:.:.:.:.:.:.:.:.:.:.:.:.:.:.:.:.:.:.:.:.:.:.:.:.:.:.:.:.:.:.:.:.:.:.:.:.:.:.:.:.:.:.:.:.:.:.:.:.:.:.:.:.:.:.:.{ x > ",
"> x { :.:.:.:.:.:.:.:.:.:.:.:.:.:.:.:.:.:.:.:.:.:.:.:.:.:.:.:.:.:.:.:.:.:.:.:.:.:.:.:.:.:.:.:.:.:.:.:.:.:.:.:.:.:.:.:.:.:.{ x > ",
"> x { :.:.:.:.:.:.:.:.:.:.:.:.:.:.:.:.:.:.:.:.:.:.:.:.:.:.:.:.:.:.:.:.:.:.:.:.:.:.:.:.:.:.:.:.:.:.:.:.:.:.:.:.:.:.:.:.:.:.{ x > ",
"> x { :.:.:.:.:.:.:.:.:.:.:.:.:.:.:.:.:.:.:.:.:.:.:.:.:.:.:.:.:.:.:.:.:.:.:.:.:.:.:.:.:.:.:.:.:.:.:.:.:.:.:.:.:.:.:.:.:.:.{ x > ",
"> x { :.:.:.:.:.:.:.:.:.:.:.:.:.:.:.:.:.:.:.:.:.:.:.:.:.:.:.:.:.:.:.:.:.:.:.:.:.:.:.:.:.:.:.:.:.:.:.:.:.:.:.:.:.:.:.:.:.:.{ x > ",
"> x { :.:.:.:.:.:.:.:.:.:.:.:.:.:.:.:.:.:.:.:.:.:.:.:.:.:.:.:.:.:.:.:.:.:.:.:.:.:.:.:.:.:.:.:.:.:.:.:.:.:.:.:.:.:.:.:.:.:.{ x > ",
"> x { :.:.:.:.:.:.:.:.:.:.:.:.:.:.:.:.:.:.:.:.:.:.:.:.:.:.:.:.:.:.:.:.:.:.:.:.:.:.:.:.:.:.:.:.:.:.:.:.:.:.:.:.:.:.:.:.:.:.{ x > ",
"> x { :.:.:.:.:.:.:.:.:.:.:.:.:.:.:.:.:.:.:.:.:.:.:.:.:.:.:.:.:.:.:.:.:.:.:.:.:.:.:.:.:.:.:.:.:.:.:.:.:.:.:.:.:.:.:.:.:.:.{ x > ",
"> x { :.:.:.:.:.:.:.:.:.:.:.:.:.:.:.:.:.:.:.:.:.:.:.:.:.:.:.:.:.:.:.:.:.:.:.:.:.:.:.:.:.:.:.:.:.:.:.:.:.:.:.:.:.:.:.:.:.:.{ x > ",
"> x { :.:.:.:.:.:.:.:.:.:.:.:.:.:.:.:.:.:.:.:.:.:.:.:.:.:.:.:.:.:.:.:.:.:.:.:.:.:.:.:.:.:.:.:.:.:.:.:.:.:.:.:.:.:.:.:.:.:.{ x > ",
"> x { :.:.:.:.:.:.:.:.:.:.:.:.:.:.:.:.:.:.:.:.:.:.:.:.:.:.:.:.:.:.:.:.:.:.:.:.:.:.:.:.:.:.:.:.:.:.:.:.:.:.:.:.:.:.:.:.:.:.{ x > ",
"> x { :.:.:.:.:.:.:.:.:.:.:.:.:.:.:.:.:.:.:.:.:.:.:.:.:.:.:.:.:.:.:.:.:.:.:.:.:.:.:.:.:.:.:.:.:.:.:.:.:.:.:.:.:.:.:.:.:.:.{ x > ",
"> x { :.:.:.:.:.:.:.:.:.:.:.:.:.:.:.:.:.:.:.:.:.:.:.:.:.:.:.:.:.:.:.:.:.:.:.:.:.:.:.:.:.:.:.:.:.:.:.:.:.:.:.:.:.:.:.:.:.:.{ x > ",
"> x { :.:.:.:.:.:.:.:.:.:.:.:.:.:.:.:.:.:.:.:.:.:.:.:.:.:.:.:.:.:.:.:.:.:.:.:.:.:.:.:.:.:.:.:.:.:.:.:.:.:.:.:.:.:.:.:.:.:.{ x > ",
"> x { :.:.:.:.:.:.:.:.:.:.:.:.:.:.:.:.:.:.:.:.:.:.:.:.:.:.:.:.:.:.:.:.:.:.:.:.:.:.:.:.:.:.:.:.:.:.:.:.:.:.:.:.:.:.:.:.:.:.{ x > "
};
