/* XPM */
static const char *door_6_64x64[] = {
/* columns rows colors chars-per-pixel */
"64 64 256 2 ",
"   c #16171A",
".  c #17171B",
"X  c #17181B",
"o  c #18191C",
"O  c #18191D",
"+  c #19191D",
"@  c #191A1D",
"#  c #191A1E",
"$  c #191A1F",
"%  c #191B1F",
"&  c #1A1B1E",
"*  c #1B1B1E",
"=  c #1B1C1E",
"-  c #1B1C1F",
";  c #1C1C1F",
":  c #1D1E1F",
">  c #1E1E1F",
",  c #1C1D20",
"<  c #1C1D21",
"1  c #1D1E20",
"2  c #1D1E21",
"3  c #1F1F20",
"4  c #1E1E21",
"5  c #1F1F21",
"6  c #1C1D22",
"7  c #1D1E22",
"8  c #1D1E23",
"9  c #1E1F22",
"0  c #1F1F22",
"q  c #1D1B29",
"w  c #1D1B2A",
"e  c #1E1C2A",
"r  c #1E1C2B",
"t  c #1E1C2C",
"y  c #1F1D2C",
"u  c #1F1D2D",
"i  c #201F2D",
"p  c #211F30",
"a  c #1F2022",
"s  c #1F2025",
"d  c #1F2127",
"f  c #202020",
"g  c #202022",
"h  c #202023",
"j  c #212123",
"k  c #202125",
"l  c #212125",
"z  c #212224",
"x  c #222224",
"c  c #222324",
"v  c #232324",
"b  c #202127",
"n  c #212127",
"m  c #202226",
"M  c #222326",
"N  c #222327",
"B  c #232425",
"V  c #232426",
"C  c #242426",
"Z  c #242526",
"A  c #252526",
"S  c #242527",
"D  c #252527",
"F  c #252626",
"G  c #252627",
"H  c #262627",
"J  c #222228",
"K  c #222229",
"L  c #222428",
"P  c #22242A",
"I  c #272728",
"U  c #272729",
"Y  c #24262A",
"T  c #20202D",
"R  c #23222F",
"E  c #24232F",
"W  c #26272C",
"Q  c #25252F",
"!  c #272829",
"~  c #26282E",
"^  c #282929",
"/  c #292929",
"(  c #292A2B",
")  c #2A2A2A",
"_  c #2B2B2B",
"`  c #2C2C2B",
"'  c #292A2C",
"]  c #2A2B2D",
"[  c #2B2C2E",
"{  c #2B2C2F",
"}  c #2C2C2C",
"|  c #222030",
" . c #232132",
".. c #242233",
"X. c #252530",
"o. c #262631",
"O. c #262632",
"+. c #262633",
"@. c #272633",
"#. c #242134",
"$. c #242234",
"%. c #252335",
"&. c #252336",
"*. c #272734",
"=. c #272735",
"-. c #282735",
";. c #282736",
":. c #292B30",
">. c #282A31",
",. c #292B31",
"<. c #292A32",
"1. c #292B32",
"2. c #2C2D30",
"3. c #2C2E32",
"4. c #2D2F33",
"5. c #282835",
"6. c #2C2B37",
"7. c #2C2D34",
"8. c #2D2F36",
"9. c #272538",
"0. c #282639",
"q. c #28253A",
"w. c #28263A",
"e. c #29263B",
"r. c #2A2938",
"t. c #2A283C",
"y. c #2A283D",
"u. c #2B283F",
"i. c #2B293F",
"p. c #2C2B3C",
"a. c #2E2D3F",
"s. c #303134",
"d. c #323336",
"f. c #333437",
"g. c #313339",
"h. c #31333B",
"j. c #34353A",
"k. c #35363A",
"l. c #32343C",
"z. c #34363D",
"x. c #34363E",
"c. c #37393E",
"v. c #383A3F",
"b. c #2B2840",
"n. c #2C2941",
"m. c #2D2A41",
"M. c #2D2B42",
"N. c #2F2E40",
"B. c #2F2D45",
"V. c #302F43",
"C. c #302D47",
"Z. c #302E46",
"A. c #302E47",
"S. c #312D48",
"D. c #312F48",
"F. c #363646",
"G. c #383746",
"H. c #363841",
"J. c #393B40",
"K. c #383A42",
"L. c #383B42",
"P. c #393B43",
"I. c #3B3D42",
"U. c #3A3D43",
"Y. c #3B3D43",
"T. c #3A3D44",
"R. c #3A3C45",
"E. c #3C3E44",
"W. c #3D3F44",
"Q. c #3C3E45",
"!. c #3C3F45",
"~. c #3D3F45",
"^. c #33304A",
"/. c #33304B",
"(. c #34314B",
"). c #34314C",
"_. c #34314D",
"`. c #34324D",
"'. c #35324D",
"]. c #35324E",
"[. c #37354E",
"{. c #373450",
"}. c #373451",
"|. c #393751",
" X c #383553",
".X c #393752",
"XX c #393554",
"oX c #393654",
"OX c #3A3756",
"+X c #3A3853",
"@X c #3B3954",
"#X c #3B3857",
"$X c #3C3959",
"%X c #3D3959",
"&X c #3D3B58",
"*X c #3D395A",
"=X c #3D3A5A",
"-X c #3D3A5B",
";X c #3E3A5C",
":X c #3E3B5C",
">X c #3F3B5C",
",X c #3F3B5D",
"<X c #3F3C5D",
"1X c #403C5E",
"2X c #403D5E",
"3X c #403E5E",
"4X c #413E5E",
"5X c #413E5F",
"6X c #423F60",
"7X c #433F63",
"8X c #3D4047",
"9X c #3E4048",
"0X c #404249",
"qX c #404349",
"wX c #41444B",
"eX c #41444C",
"rX c #42454C",
"tX c #424061",
"yX c #434062",
"uX c #454165",
"iX c #454265",
"pX c #454166",
"aX c #454266",
"sX c #464267",
"dX c #464367",
"fX c #474368",
"gX c #474469",
"hX c #48456A",
"jX c #48446B",
"kX c #48456B",
"lX c #49456B",
"zX c #4B476E",
"xX c #4B476F",
"cX c #4C4870",
"vX c #4C4871",
"bX c #4C4971",
"nX c #4D4971",
"mX c #4D4972",
"MX c #4D4973",
"NX c #4E4973",
"BX c #4E4A73",
"VX c #4E4A74",
"CX c #4F4B75",
"ZX c #514D78",
"AX c #534F7B",
"SX c #54507C",
"DX c #575380",
"FX c #595583",
"GX c #5A5584",
"HX c #5C5787",
"JX c #5D5888",
"KX c #625E90",
"LX c #69649A",
"PX c #6B669C",
"IX c #6C679D",
"UX c None",
/* pixels */
"n.n.n.n.n.n.n.n.n.n.n.n.n.n.n.n.n.n.n.n.n.n.n.n.n.n.n.n.n.n.n.n.n.n.n.n.n.n.n.n.n.n.n.n.n.n.n.n.n.n.n.n.n.n.n.n.n.n.n.n.n.n.n.n.",
"b.C.XX-X-X-X-X-X-X-X-X-X-X-X-X-X-X-X-X-X,X.Xu.R E 6.G.F.;.i i R R i i ;.F.G.6.E R u..X,X,X-X-X-X-X-X-X-X-X-X-X-X-X-X-X-X-XXXC.b.",
"u._.aXVXVXBXBXBXBXBXBXBXBXBXBXBXBXBXVXBXfX.X+.a U f.qXT.L . o = = o X L T.qXf.U a +..XfXBXVXBXBXBXBXBXBXBXBXBXBXBXBXBXBXVXaX_.u.",
"u._.aXBXBXBXBXBXBXBXBXBXBXBXBXBXBXBXBX6Xp.k j { Q.rXL.7.9 o B ^ ^ Z o 9 7.L.rXQ.{ j k p.6XBXBXBXBXBXBXBXBXBXBXBXBXBXBXBXBXaX_.u.",
"u._.aXBXBXBXBXBXBXBXBXBXBXBXBXBXBXaX[.r.k Z k.Q.8XT.x.1.9 o Z ` } Z o 9 1.x.T.9XQ.k.Z k r.[.aXBXBXBXBXBXBXBXBXBXBXBXBXBXBXaX_.u.",
"u._.aXBXBXBXBXBXBXBXBXBXBXBXBXBXVX3X+.9 ' f.U.L.7.1.1.~ k 9 k Z Z k a k ~ 1.1.7.L.U.f.^ 9 +.3XVXBXBXBXBXBXBXBXBXBXBXBXBXBXaX_.u.",
"u._.aXBXBXBXBXBXBXBXBXBXBXBXBXBXVX3X*.W Q.Q.W o o o o 9 U U 9 o o 9 U U 9 o o o o W Q.Q.W *.3XVXBXBXBXBXBXBXBXBXBXBXBXBXBXaX_.u.",
"u._.aXBXBXBXBXBXBXBXBXBXBXBXBXBXVX3X*.k 2.{ 9 o j B Z k j j k B B k j j k B Z j o 9 { 2.k *.3XVXBXBXBXBXBXBXBXBXBXBXBXBXBXaX_.u.",
"u._.aXBXBXBXBXBXBXBXBXBXBXBXBXBXVX3X5.9 > > o 9 Z ` ` Z o o Z } } Z o o Z ` ` Z = o > 9 9 ;.3XVXBXBXBXBXBXBXBXBXBXBXBXBXBXaX_.u.",
"u._.aXBXBXBXBXBXBXBXBXBXBXBXBXBXVX3X5.9 B k o = Z ^ ^ Z 9 9 Z ^ ^ Z 9 9 Z ^ ^ Z = o k B 9 ;.3XVXBXBXBXBXBXBXBXBXBXBXBXBXBXaX_.u.",
"u._.aXBXBXBXBXBXBXBXBXBXBXBXBXBXVX3X*.U v.c.k . o = = 9 Z Z 9 = = 9 Z Z 9 = > o . k c.v.U *.3XVXBXBXBXBXBXBXBXBXBXBXBXBXBXaX_.u.",
"u._.aXBXBXBXBXBXBXBXBXBXBXBXBXBXVX3X+.k k.L.h.1.L d k J Z Z j 9 9 j Z Z k k d L 1.h.L.k.k +.3XVXBXBXBXBXBXBXBXBXBXBXBXBXBXaX_.u.",
"u._.aXBXBXBXBXBXBXBXBXBXBXBXBXBXVX6Xp.k j { Q.wXL.l.h.1.9 = Z ^ ^ Z = 9 1.h.l.L.wXQ.{ j k p.6XVXBXBXBXBXBXBXBXBXBXBXBXBXBXaX_.u.",
"u._.aXBXBXBXBXBXBXBXBXBXBXBXBXBXBXxXaX.XW 9 ! f.qXrXH.1.9 = Z ^ ^ Z = 9 1.H.rXqXf.! a W .XaXxXBXBXBXBXBXBXBXBXBXBXBXBXBXBXaX_.u.",
"u._.aXBXBXBXBXBXBXBXBXBXBXBXBXBXBXBXVXkX+Xp.k B d.U.9Xx.d X 9 k k 9 X d x.9XU.d.B k a.+XkXVXBXBXBXBXBXBXBXBXBXBXBXBXBXBXBXaX_.u.",
"b._.aXVXBXBXBXBXBXBXBXBXBXBXBXBXBXBXBXVXVXyXa.J j ' Q.Q.1.9 o o o o 9 1.Q.Q.' j J a.yXVXBXBXBXBXBXBXBXBXBXBXBXBXBXBXBXBXBXaX_.u.",
"b._.aXBXBXBXBXBXBXBXBXBXBXBXBXBXBXBXBXBXBXBXkX@X+.9 Z d.Q.U.' j j ' U.Q.d.Z 9 +.@XkXBXBXBXBXBXBXBXBXBXBXBXBXBXBXBXBXBXBXBXaX_.b.",
"&.q.B././././././././././././././././._.{.,XxXxX-XN.J j 2.2.B > > B 2.2.k J N.-XxXxX,X{._././././././././././././././././.B.q.&.",
"r r q q q q q q q q q q q q q q q q q r p u.-XkXBXaXV.+.+.+.+.*.*.+.+.+.+.C.aXBXkX-Xu.p r q q q q q q q q q q q q q q q q q r r ",
"UXUXUXUXUXUXUXUXUXUXUXUXUXUXUXUXUXUXUXUXu p 9./.aXBXkXfXfXfXfXgXfXfXfXfXfXkXBXaX/.9.i r UXUXUXUXUXUXUXUXUXUXUXUXUXUXUXUXUXUXUXUX",
"UXUXUXUXUXUXUXUXUXUXUXUXUXUXUXUXUXUXUXUXUXr u &.C.{.{.{.{.{.{.{.{.{.{.{.{.{.{.C.&.u r UXUXUXUXUXUXUXUXUXUXUXUXUXUXUXUXUXUXUXUXUX",
"UXUXUXUXUXUXUXUXUXUXUXUXUXUXUXUXUXUXUXUXUXUXq u  . . . . . . . . . . . . . . . .u q UXUXUXUXUXUXUXUXUXUXUXUXUXUXUXUXUXUXUXUXUXUX",
"UXUXUXUXUXUXUXUXUXUXUXUXUXUXUXUXUXUXUXUXUXUXUXUXu u u u u u u u u u u u u u u u UXUXUXUXUXUXUXUXUXUXUXUXUXUXUXUXUXUXUXUXUXUXUXUX",
"UXUXUXUXUXUXUXUXUXUXUXUXUXUXUXUXUXUXUXUXUXUXUXUXUXUXUXUXUXUXUXUXUXUXUXUXUXUXUXUXUXUXUXUXUXUXUXUXUXUXUXUXUXUXUXUXUXUXUXUXUXUXUXUX",
"UXUXUXUXUXUXUXUXUXUXUXUXUXUXUXUXUXUXUXUXUXUXUXUXUXUXUXUXUXUXUXUXUXUXUXUXUXUXUXUXUXUXUXUXUXUXUXUXUXUXUXUXUXUXUXUXUXUXUXUXUXUXUXUX",
"UXUXUXUXUXUXUXUXUXUXUXUXUXUXUXUXUXUXUXUXUXUXUXUXUXUXUXUXUXUXUXUXUXUXUXUXUXUXUXUXUXUXUXUXUXUXUXUXUXUXUXUXUXUXUXUXUXUXUXUXUXUXUXUX",
"UXUXUXUXUXUXUXUXUXUXUXUXUXUXUXUXUXUXUXUXUXUXUXUXUXUXUXUXUXUXUXUXUXUXUXUXUXUXUXUXUXUXUXUXUXUXUXUXUXUXUXUXUXUXUXUXUXUXUXUXUXUXUXUX",
"UXUXUXUXUXUXUXUXUXUXUXUXUXUXUXUXUXUXUXUXUXUXUXUXUXUXUXUXUXUXUXUXUXUXUXUXUXUXUXUXUXUXUXUXUXUXUXUXUXUXUXUXUXUXUXUXUXUXUXUXUXUXUXUX",
"UXUXUXUXUXUXUXUXUXUXUXUXUXUXUXUXUXUXUXUXUXUXUXUXUXUXUXUXUXUXUXUXUXUXUXUXUXUXUXUXUXUXUXUXUXUXUXUXUXUXUXUXUXUXUXUXUXUXUXUXUXUXUXUX",
"UXUXUXUXUXUXUXUXUXUXUXUXUXUXUXUXUXUXUXUXUXUXUXUXUXUXUXUXUXUXUXUXUXUXUXUXUXUXUXUXUXUXUXUXUXUXUXUXUXUXUXUXUXUXUXUXUXUXUXUXUXUXUXUX",
"UXUXUXUXUXUXUXUXUXUXUXUXUXUXUXUXUXUXUXUXUXUXUXUXUXUXUXUXUXUXUXUXUXUXUXUXUXUXUXUXUXUXUXUXUXUXUXUXUXUXUXUXUXUXUXUXUXUXUXUXUXUXUXUX",
"UXUXUXUXUXUXUXUXUXUXUXUXUXUXUXUXUXUXUXUXUXUXUXUXUXUXUXUXUXUXUXUXUXUXUXUXUXUXUXUXUXUXUXUXUXUXUXUXUXUXUXUXUXUXUXUXUXUXUXUXUXUXUXUX",
"UXUXUXUXUXUXUXUXUXUXUXUXUXUXUXUXUXUXUXUXUXUXUXUXUXUXUXUXUXUXUXUXUXUXUXUXUXUXUXUXUXUXUXUXUXUXUXUXUXUXUXUXUXUXUXUXUXUXUXUXUXUXUXUX",
"UXUXUXUXUXUXUXUXUXUXUXUXUXUXUXUXUXUXUXUXUXUXUXUXUXUXUXUXUXUXUXUXUXUXUXUXUXUXUXUXUXUXUXUXUXUXUXUXUXUXUXUXUXUXUXUXUXUXUXUXUXUXUXUX",
"UXUXUXUXUXUXUXUXUXUXUXUXUXUXUXUXUXUXUXUXUXUXUXUXUXUXUXUXUXUXUXUXUXUXUXUXUXUXUXUXUXUXUXUXUXUXUXUXUXUXUXUXUXUXUXUXUXUXUXUXUXUXUXUX",
"UXUXUXUXUXUXUXUXUXUXUXUXUXUXUXUXUXUXUXUXUXUXUXUXUXUXUXUXUXUXUXUXUXUXUXUXUXUXUXUXUXUXUXUXUXUXUXUXUXUXUXUXUXUXUXUXUXUXUXUXUXUXUXUX",
"UXUXUXUXUXUXUXUXUXUXUXUXUXUXUXUXUXUXUXUXUXUXUXUXUXUXUXUXUXUXUXUXUXUXUXUXUXUXUXUXUXUXUXUXUXUXUXUXUXUXUXUXUXUXUXUXUXUXUXUXUXUXUXUX",
"UXUXUXUXUXUXUXUXUXUXUXUXUXUXUXUXUXUXUXUXUXUXUXUXUXUXUXUXUXUXUXUXUXUXUXUXUXUXUXUXUXUXUXUXUXUXUXUXUXUXUXUXUXUXUXUXUXUXUXUXUXUXUXUX",
"UXUXUXUXUXUXUXUXUXUXUXUXUXUXUXUXUXUXUXUXUXUXUXUXUXUXUXUXUXUXUXUXUXUXUXUXUXUXUXUXUXUXUXUXUXUXUXUXUXUXUXUXUXUXUXUXUXUXUXUXUXUXUXUX",
"UXUXUXUXUXUXUXUXUXUXUXUXUXUXUXUXUXUXUXUXUXUXUXUXUXUXUXUXUXUXUXUXUXUXUXUXUXUXUXUXUXUXUXUXUXUXUXUXUXUXUXUXUXUXUXUXUXUXUXUXUXUXUXUX",
"UXUXUXUXUXUXUXUXUXUXUXUXUXUXUXUXUXUXUXUXUXUXUXUXUXUXUXUXUXUXUXUXUXUXUXUXUXUXUXUXUXUXUXUXUXUXUXUXUXUXUXUXUXUXUXUXUXUXUXUXUXUXUXUX",
"UXUXUXUXUXUXUXUXUXUXUXUXUXUXUXUXUXUXUXUXUXUXUXUXUXUXUXUXUXUXUXUXUXUXUXUXUXUXUXUXUXUXUXUXUXUXUXUXUXUXUXUXUXUXUXUXUXUXUXUXUXUXUXUX",
"UXUXUXUXUXUXUXUXUXUXUXUXUXUXUXUXUXUXUXUXUXUXUXUXUXUXUXUXUXUXUXUXUXUXUXUXUXUXUXUXUXUXUXUXUXUXUXUXUXUXUXUXUXUXUXUXUXUXUXUXUXUXUXUX",
"UXUXUXUXUXUXUXUXUXUXUXUXUXUXUXUXUXUXUXUXUXUXUXUXUXUXUXUXUXUXUXUXUXUXUXUXUXUXUXUXUXUXUXUXUXUXUXUXUXUXUXUXUXUXUXUXUXUXUXUXUXUXUXUX",
"UXUXUXUXUXUXUXUXUXUXUXUXUXUXUXUXUXUXUXUXUXUXUXUXUXUXUXUXUXUXUXUXUXUXUXUXUXUXUXUXUXUXUXUXUXUXUXUXUXUXUXUXUXUXUXUXUXUXUXUXUXUXUXUX",
"UXUXUXUXUXUXUXUXUXUXUXUXUXUXUXUXUXUXUXUXUXUXUXUXUXUXUXUXUXUXUXUXUXUXUXUXUXUXUXUXUXUXUXUXUXUXUXUXUXUXUXUXUXUXUXUXUXUXUXUXUXUXUXUX",
"UXUXUXUXUXUXUXUXUXUXUXUXUXUXUXUXUXUXUXUXUXUXUXUXUXUXUXUXUXUXUXUXUXUXUXUXUXUXUXUXUXUXUXUXUXUXUXUXUXUXUXUXUXUXUXUXUXUXUXUXUXUXUXUX",
"UXUXUXUXUXUXUXUXUXUXUXUXUXUXUXUXUXUXUXUXUXUXUXUXUXUXUXUXUXUXUXUXUXUXUXUXUXUXUXUXUXUXUXUXUXUXUXUXUXUXUXUXUXUXUXUXUXUXUXUXUXUXUXUX",
"UXUXUXUXUXUXUXUXUXUXUXUXUXUXUXUXUXUXUXUXUXUXUXUXUXUXUXUXUXUXUXUXUXUXUXUXUXUXUXUXUXUXUXUXUXUXUXUXUXUXUXUXUXUXUXUXUXUXUXUXUXUXUXUX",
"UXUXUXUXUXUXUXUXUXUXUXUXUXUXUXUXUXUXUXUXUXUXUXUXUXUXUXUXUXUXUXUXUXUXUXUXUXUXUXUXUXUXUXUXUXUXUXUXUXUXUXUXUXUXUXUXUXUXUXUXUXUXUXUX",
"UXUXUXUXUXUXUXUXUXUXUXUXUXUXUXUXUXUXUXUXUXUXUXUXUXUXUXUXUXUXUXUXUXUXUXUXUXUXUXUXUXUXUXUXUXUXUXUXUXUXUXUXUXUXUXUXUXUXUXUXUXUXUXUX",
"UXUXUXUXUXUXUXUXUXUXUXUXUXUXUXUXUXUXUXUXUXUXUXUXUXUXUXUXUXUXUXUXUXUXUXUXUXUXUXUXUXUXUXUXUXUXUXUXUXUXUXUXUXUXUXUXUXUXUXUXUXUXUXUX",
"UXUXUXUXUXUXUXUXUXUXUXUXUXUXUXUXUXUXUXUXUXUXUXUXUXUXUXUXUXUXUXUXUXUXUXUXUXUXUXUXUXUXUXUXUXUXUXUXUXUXUXUXUXUXUXUXUXUXUXUXUXUXUXUX",
"UXUXUXUXUXUXUXUXUXUXUXUXUXUXUXUXUXUXUXUXUXUXUXUXUXUXUXUXUXUXUXUXUXUXUXUXUXUXUXUXUXUXUXUXUXUXUXUXUXUXUXUXUXUXUXUXUXUXUXUXUXUXUXUX",
"n.u.q.q.q.q.q.q.q.q.q.q.q.q.q.q.q.q.q.q.UXUXUXUXUXUXUXUXUXUXUXUXUXUXUXUXUXUXUXUXUXUXUXUXq.q.q.q.q.q.q.q.q.q.q.q.q.q.q.q.q.q.u.n.",
"b.S.XX3X3X<X<X<X,X,X,X,X,X,X<X<X3X3X3XXXn.UXUXUXUXUXUXUXUXUXUXUXUXUXUXUXUXUXUXUXUXUXUXn.XX3X3X<X<X<X,X,X,X,X,X,X<X<X<X3X3XXXS.b.",
"b._.aXVXVXVXBXZXDXGXFXFXGXDXZXBXVXVXVXgXXXC.u.UXUXUXUXUXUXUXUXUXUXUXUXUXUXUXUXUXUXu.C.XXfXVXVXBXBXZXDXGXFXFXGXDXZXBXVXVXVXaX_.u.",
"b._.aXBXBXBXBXAXKXPXPXPXPXKXAXBXBXBXBXBXBX6XS.q.UXUXUXUXUXUXUXUXUXUXUXUXUXUXUXUXq.S.6XBXBXBXBXBXBXSXKXPXIXPXPXKXSXBXBXBXBXaX_.u.",
"b._.aXBXBXBXBXVXZXJXPXPXJXZXVXBXBXBXBXBXBXxXaX-Xn...&.&.&.&.&.&.&.&.&.&.&.&...n.-XaXxXBXBXBXBXBXBXVXZXJXPXPXJXZXVXBXBXBXBXaX_.u.",
"b._.aXBXBXBXBXBXBXZXHXHXZXBXBXBXBXBXBXBXBXBXVXkX@X_._._._._._._._._._._._._._.@XkXVXBXBXBXBXBXBXBXBXBXZXHXHXZXBXBXBXBXBXBXaX_.u.",
"u._.aXBXBXBXBXBXBXBXBXBXBXBXBXBXBXBXBXBXBXBXBXBXBXBXBXBXBXBXBXBXBXBXBXBXBXBXBXBXBXBXBXBXBXBXBXBXBXBXBXBXBXBXBXBXBXBXBXBXBXaX_.u.",
"b._.aXVXVXBXBXBXBXBXBXBXBXBXBXBXBXBXBXBXBXBXBXBXBXVXVXVXBXBXBXBXVXVXBXBXBXBXBXBXBXBXBXBXBXBXBXBXBXBXBXBXBXBXBXBXBXBXBXBXVXaX_.u.",
"b.C.XX-X-X-X-X-X-X-X-X-X-X-X-X-X-X-X-X-X-X-X-X-X-X-X-X-X-X-X-X-X-X-X-X-X-X-X-X-X-X-X-X-X-X-X-X-X-X-X-X-X-X-X-X-X-X-X-X-X-XXXC.b.",
"n.n.n.n.n.n.n.n.n.n.n.n.n.n.n.n.n.n.n.n.n.n.n.n.n.n.n.n.n.n.n.n.n.n.n.n.n.n.n.n.n.n.n.n.n.n.n.n.n.n.n.n.n.n.n.n.n.n.n.n.n.n.n.n."
};
