/* XPM */
static const char *airlock_11[] = {
/* columns rows colors chars-per-pixel */
"64 64 111 2 ",
"   c #16161A",
".  c #17181C",
"X  c #1A1B1E",
"o  c #1D1E22",
"O  c #1E1C2C",
"+  c #201E2E",
"@  c #211F30",
"#  c #1F2024",
"$  c #222325",
"%  c #24252A",
"&  c #27282A",
"*  c #2A2A2B",
"=  c #252334",
"-  c #2A2B33",
";  c #272538",
":  c #29273C",
">  c #2A283F",
",  c #2E3038",
"<  c #323337",
"1  c #34363B",
"2  c #36383C",
"3  c #383A3F",
"4  c #2C2940",
"5  c #302E44",
"6  c #322F49",
"7  c #3B3D44",
"8  c #33314C",
"9  c #33304C",
"0  c #34314C",
"q  c #34314D",
"w  c #36354D",
"e  c #37354E",
"r  c #37354F",
"t  c #37364F",
"y  c #33304B",
"u  c #373451",
"i  c #383552",
"p  c #383453",
"a  c #3A3655",
"s  c #3B3756",
"d  c #3C3858",
"f  c #3C3859",
"g  c #3C3959",
"h  c #3E3B59",
"j  c #3D395A",
"k  c #3D3A5A",
"l  c #3E3B5A",
"z  c #3E3C5A",
"x  c #3E3C5B",
"c  c #3F3C5B",
"v  c #3F3B5D",
"b  c #403D5C",
"n  c #403D5D",
"m  c #403D5E",
"M  c #403D5F",
"N  c #403E5E",
"B  c #413E5E",
"V  c #413E5F",
"C  c #413E60",
"Z  c #423F60",
"A  c #423E61",
"S  c #433F63",
"D  c #423F62",
"F  c #3E4047",
"G  c #3F4147",
"H  c #3F4249",
"J  c #3F414A",
"K  c #404249",
"L  c #40434A",
"P  c #42444C",
"I  c #434062",
"U  c #434064",
"Y  c #444164",
"T  c #444065",
"R  c #444165",
"E  c #454265",
"W  c #454166",
"Q  c #454267",
"!  c #464266",
"~  c #464267",
"^  c #444065",
"/  c #474468",
"(  c #474469",
")  c #48446A",
"_  c #48456C",
"`  c #49456C",
"'  c #4B476F",
"]  c #4A476E",
"[  c #4B4770",
"{  c #4C4870",
"}  c #4C4871",
"|  c #4D4972",
" . c #4D4973",
".. c #4E4973",
"X. c #4E4A73",
"o. c #4E4A74",
"O. c #4F4A75",
"+. c #4F4B75",
"@. c #4F4B76",
"#. c #4D4972",
"$. c #514D78",
"%. c #534F7B",
"&. c #534E7A",
"*. c #55507D",
"=. c #5C5787",
"-. c #605B8D",
";. c #635F92",
":. c #656094",
">. c #666195",
",. c #6C679E",
"<. c None",
/* pixels */
"4 4 4 4 4 4 4 4 > > > 4 4 4 4 4 4 4 4 4 > > > 4 4 4 4 4 4 4 4 4 > > > 4 4 4 4 4 4 4 4 4 > > > 4 4 4 4 4 4 4 4 4 4 4 4 4 4 4 4 4 ",
"4 4 p g g g g g g g g g g g g g g g g g g g g g g g g g g g g g g g g g g g g g g g g g g g g g g g g g g g g g g g g g g p 4 4 ",
"> 9 R  . . . . . . . . . . . . . . . . . . . . . . . . . . . . . . . . . . . . . . . . . . . . . . . . . . . . . . . . . .R 9 > ",
"> 9 R  . . . . . . . . . . . . . . . . . . . . . . . . . . . . . . . . . . . . . . . . . . . . . . . . . . . . . . . . . .R 9 > ",
"> 9 R  . . . . . . . . . . . . . . . . . . . . . . . . . . . . . . . . . . . . . . . . . . . . . . . . . . . . . . . . . .R 9 > ",
"> 9 R  . . . . . . . . . . . . . . . . . . . . . . . . . . . . . . . . . . . . . . . . . . . . . . . . . . . . . . . . . .R 9 > ",
"> 9 R  . . . . . . . . . . . . . . . . . . . . . . . . . . . . . . . . . . . . . . . . . . . . . . . . . . . . . . . . . .R 9 > ",
"> 9 R  . . . . . . . . . . . . . . . . . . . . . . . . . . . . . . . . . . . . . . . . . . . . . . . . . . . . . . . . . .R 9 > ",
"> 9 R  . . . . . . . . . . . . . . . . . . . . . . . . . . . . . . . . . . . . . . . . . . . . . . . . . . . . . . . . . .R 9 > ",
"> 9 R  . . . . . . . . . . . . . . . . . . . . . . . . . . . . . . . . . . . . . . . . . . . . . . . . . . . . . . . . . .R 9 > ",
"> 9 R  . . . . . . . . . . . . . . . . . . . . . . . . . . . . . . . . . . . . . . . . . . . . . . . . . . . . . . . . . .R 9 > ",
"> 9 R  . . . . . . . . . . . . . . . . . . . . . . . . . . . . . . . . . . . . . . . . . . . . . . . . . . . . . . . . . .R 9 > ",
"> 9 R  . . . . . . . . . . . . . . . . . . . . . . . .{ {  . . . . . . . . . . . . . . . . . . . . . . . . . . . . . . . .R 9 > ",
"> 9 R  . . . . . . . . . . . . . . . . . . . . .O.( t 4 4 4 5 5 5 5 4 4 4 t ( O. . . . . . . . . . . . . . . . . . . . . .R 9 > ",
"> 9 R  . . . . . . . . . . . . . . . . . . . .' R t % o % % # o o # % % o % t R '  . . . . . . . . . . . . . . . . . . . .R 9 > ",
"> 9 R  . . . . . . . . . . . . . . . . . . . .V > $ $ * 7 7 * $ $ * 7 7 * $ $ > V  . . . . . . . . . . . . . . . . . . . .R 9 > ",
"> 9 R  . . . . . . . . . . . . . . . . .O.( t > $ $ 1 3 < * # . . # * < 3 1 $ $ > t ( O. . . . . . . . . . . . . . . . . .R 9 > ",
"> 9 R  . . . . . . . . . . . . . . . .' R t % o & < K 7 $   . X X .   $ 7 K < & o % t R '  . . . . . . . . . . . . . . . .R 9 > ",
"> 9 R  . . . . . . . . . . . . . . . .V > # $ * 7 P 7 - o . $ & & $ . o - 7 P 7 * $ # > V  . . . . . . . . . . . . . . . .R 9 > ",
"> 9 R  . . . . . . . . . . . . . .R t - $ $ 1 7 7 7 1 - o . $ * * $ X o - 1 7 7 7 1 $ $ - t R  . . . . . . . . . . . . . .R 9 > ",
"> 9 R  . . . . . . . . . . . . . .V = o & < 7 7 - - - % # o $ $ $ $ o # & - - - 7 7 < & o = V  . . . . . . . . . . . . . .R 9 > ",
"> 9 R  . . . . . . . . . . . . . .V = % 7 7 & X . . . o % % o . . o % % o . . . . % 7 7 % = V  . . . . . . . . . . . . . .R 9 > ",
"> 9 R  . . . . . . . . . . . . . .V = $ - - o . o $ $ $ $ $ $ $ $ $ $ $ $ $ $ o . o - - $ - V  . . . . . . . . . . . . . .R 9 > ",
"> 9 R  . . . . . . . . . . . . . .V = X X X . X $ & & $ . . $ * & $ . X $ * & $ X . X X X ; V  . . . . . . . . . . . . . .R 9 > ",
"> 9 R  . . . . . . . . . . . . . .V = o $ $ . . $ & & $ X X $ & & $ X X $ & & $ . . $ $ X = V  . . . . . . . . . . . . . .R 9 > ",
"> 9 R  . . . . . . . . . . . . . .V = % 2 1 #   . X X $ $ $ o o o $ $ $ o X X .   # 1 2 % = V  . . . . . . . . . . . . . .R 9 > ",
"> 9 R  . . . . . . . . . . . . . .V = % 2 7 - % # o o $ $ $ o X X # $ $ $ o o # % - 7 2 % = V  . . . . . . . . . . . . . .R 9 > ",
"> 9 R  . . . . . . . . . . . . . .V - o $ - 7 K 2 , , - o X $ & & $ X o - , , 2 K 7 - $ o - V  . . . . . . . . . . . . . .R 9 > ",
"> 9 R  . . . . . . . . . . . . . .' V y % $ * 2 J J 2 - o . $ & & $ . o - 2 J J 2 * $ % y V '  . . . . . . . . . . . . . .R 9 > ",
"> 9 R  . . . . . . . . . . . . . . .O.R y = $ % 2 F 7 < o . $ $ $ # . o < 7 F 2 % $ = y R O. . . . . . . . . . . . . . . .R 9 > ",
"> 9 R  . . . . . . . . . . . . . . . . .[ c - o $ - K 7 % . . . . . . % 7 F - $ o - c [  . . . . . . . . . . . . . . . . .R 9 > ",
"4 q R O.O.O.O.O.O. . .O.O.O. .O.O.O.O.O.O.' Z 0 % # * < 7 1 % X X % 1 7 < * # % 0 Z ' O.O.O.O.O. . .O.O.O. . . .O.O.O.O.O.R q 4 ",
"; 4 u g g g g g g g g g g g g g g g g g v R  .( 0 = $ % 1 2 & X X & 2 1 % $ = 0 (  .R v g g g g g g g g g g g g g g g g g u 4 ; ",
"O O + + + + + + + + + + + + + + + + + @ = 5 Z  . .V - o $ % # o o # % $ o - V  . .Z 5 = @ + + + + + + + + + + + + + + + + + O O ",
"<.<.<.<.<.<.<.<.<.<.<.<.<.<.<.<.<.<.<.<.O = 4 s '  .I g g g c c x c g g g I  .' s 4 = O <.<.<.<.<.<.<.<.<.<.<.<.<.<.<.<.<.<.<.<.",
"<.<.<.<.<.<.<.<.<.<.<.<.<.<.<.<.<.<.<.<.<.O + : p V Z Z Z Z Z Z Z Z Z Z Z Z V p : + O <.<.<.<.<.<.<.<.<.<.<.<.<.<.<.<.<.<.<.<.<.",
"<.<.<.<.<.<.<.<.<.<.<.<.<.<.<.<.<.<.<.<.<.<.O + = ; ; ; ; ; ; ; ; ; ; ; ; ; ; = + O <.<.<.<.<.<.<.<.<.<.<.<.<.<.<.<.<.<.<.<.<.<.",
"<.<.<.<.<.<.<.<.<.<.<.<.<.<.<.<.<.<.<.<.<.<.<.<.O O O O O O O O O O O O O O O O <.<.<.<.<.<.<.<.<.<.<.<.<.<.<.<.<.<.<.<.<.<.<.<.",
"<.<.<.<.<.<.<.<.<.<.<.<.<.<.<.<.<.<.<.<.<.<.<.<.<.O O O O O O O O O O O O O O <.<.<.<.<.<.<.<.<.<.<.<.<.<.<.<.<.<.<.<.<.<.<.<.<.",
"<.<.<.<.<.<.<.<.<.<.<.<.<.<.<.<.<.<.<.<.<.<.<.<.<.<.<.<.<.<.<.<.<.<.<.<.<.<.<.<.<.<.<.<.<.<.<.<.<.<.<.<.<.<.<.<.<.<.<.<.<.<.<.<.",
"4 > = = = = = = = = = = = = = = = = = = <.<.<.<.<.<.<.<.<.<.<.<.<.<.<.<.<.<.<.<.<.<.<.<.= = = = = = = = = = = = = = = = = = > 4 ",
"4 4 6 q 0 0 0 y y y y y y y 9 q 0 0 q 6 > <.<.<.<.<.<.<.<.<.<.<.<.<.<.<.<.<.<.<.<.<.<.> 6 q q q 0 y y y y y y y 9 q q q q 6 4 4 ",
"> 9 U  .{ [ '  . .O.O.O.O. . .[ ' {  .Z 6 : <.<.<.<.<.<.<.<.<.<.<.<.<.<.<.<.<.<.<.<.: 6 Z  . .[ '  . . .O.O.O. . .[ [  . .U 9 > ",
"> 9 R O. . . .%.-.>.>.>.>.-.%. . . . .' R g 4 = <.<.<.<.<.<.<.<.<.<.<.<.<.<.<.<.= 4 g R '  . . . .%.-.>.>.>.>.-.%. . . .O.R 9 > ",
"> 9 R  . . . .$.=.>.,.,.>.=.%. . . . . .O.) s 6 > <.<.<.<.<.<.<.<.<.<.<.<.<.<.> 6 s )  . . . . . .%.=.:.,.,.:.=.%. . . . .R 9 > ",
"> 9 R  . . . . . .*.;.;.*. . . . . . . . . . .U 6 : > > > > > > > > > > > > : 6 I  . . . . . . . . . .*.;.;.*. . . . . . .R 9 > ",
"> 9 R  . . . . . . .%.%.O. . . . . . . . . . .' R Z Z Z Z Z Z Z Z Z Z Z Z Z Z R '  . . . . . . . . . .O.%.%. . . . . . . .R 9 > ",
"> 9 R  . . . . . . .{ {  . . . . . . . . . . . . .O.O.O.O.O. . .O.O.O.O.O.O.O. . . . . . . . . . . . . .{ {  . . . . . . .R 9 > ",
"> 9 R  . . . . . . . . . . . . . . . . . . . . . . . . . . . . . . . . . . . . . . . . . . . . . . . . . . . . . . . . . .R 9 > ",
"> 9 R  . . . . . . . . . . . . . . . . . . . . . . . . . . . . . . . . . . . . . . . . . . . . . . . . . . . . . . . . . .R 9 > ",
"> 9 R  . . . . . . . . . . . . . . . . . . . . . . . . . . . . . . . . . . . . . . . . . . . . . . . . . . . . . . . . . .R 9 > ",
"> 9 R  . . . . . . . . . . . . . . . . . . . . . . . . . . . . . . . . . . . . . . . . . . . . . . . . . . . . . . . . . .R 9 > ",
"> 9 R  . . . . . . . . . . . . . . . . . . . . . . . . . . . . . . . . . . . . . . . . . . . . . . . . . . . . . . . . . .R 9 > ",
"> 9 R  . . . . . . . . . . . . . . . . . . . . . . . . . . . . . . . . . . . . . . . . . . . . . . . . . . . . . . . . . .R 9 > ",
"> 9 R  . . . . . . . . . . . . . . . . . . . . . . . . . . . . . . . . . . . . . . . . . . . . . . . . . . . . . . . . . .R 9 > ",
"> 9 R  . . . . . . . . . . . . . . . . . . . . . . . . . . . . . . . . . . . . . . . . . . . . . . . . . . . . . . . . . .R 9 > ",
"> 9 R  . . . . . . . . . . . . . . . . . . . . . . . . . . . . . . . . . . . . . . . . . . . . . . . . . . . . . . . . . .R 9 > ",
"> 9 R  . . . . . . . . . . . . . . . . . . . . . . . . . . . . . . . . . . . . . . . . . . . . . . . . . . . . . . . . . .R 9 > ",
"> 9 R  . . . . . . . . . . . . . . . . . . . . . . . . . . . . . . . . . . . . . . . . . . . . . . . . . . . . . . . . . .R 9 > ",
"> 9 R  . . . . . . . . . . . . . . . . . . . . . . . . . . . . . . . . . . . . . . . . . . . . . . . . . . . . . . . . . .R 9 > ",
"> 9 R  . . . . . . . . . . . . . . . . . . . . . . . . . . . . . . . . . . . . . . . . . . . . . . . . . . . . . . . . . .R 9 > ",
"> 9 R  . . . . . . . . . . . . . . . . . . . . . . . . . . . . . . . . . . . . . . . . . . . . . . . . . . . . . . . . . .R 9 > ",
"> 9 R  . . . . . . . . . . . . . . . . . . . . . . . . . . . . . . . . . . . . . . . . . . . . . . . . . . . . . . . . . .R 9 > ",
"> 9 R  . . . . . . . . . . . . . . . . . . . . . . . . . . . . . . . . . . . . . . . . . . . . . . . . . . . . . . . . . .R 9 > "
};
