/* XPM */
static const char *airlock_18[] = {
/* columns rows colors chars-per-pixel */
"64 64 191 2 ",
"   c #16171A",
".  c #18191C",
"X  c #19191C",
"o  c #18191D",
"O  c #191A1D",
"+  c #191A1E",
"@  c #1A1B1E",
"#  c #1B1B1E",
"$  c #1B1B1F",
"%  c #1B1C1F",
"&  c #1C1D1F",
"*  c #1E1E1F",
"=  c #1B1D22",
"-  c #1C1D20",
";  c #1D1E20",
":  c #1F1F20",
">  c #1E1F21",
",  c #1C1D23",
"<  c #1C1E23",
"1  c #1D1E23",
"2  c #1E1F23",
"3  c #1E1F24",
"4  c #1F1F24",
"5  c #1E1F25",
"6  c #1D1B2A",
"7  c #1E1C2B",
"8  c #1E1C2C",
"9  c #1F1D2C",
"0  c #1F1D2D",
"q  c #201E2E",
"w  c #1F2021",
"e  c #1F2022",
"r  c #1F2025",
"t  c #202020",
"y  c #202021",
"u  c #212122",
"i  c #212123",
"p  c #202024",
"a  c #202025",
"s  c #222224",
"d  c #232325",
"f  c #232425",
"g  c #232426",
"h  c #242425",
"j  c #242526",
"k  c #252526",
"l  c #252527",
"z  c #252627",
"x  c #202129",
"c  c #21222A",
"v  c #21222B",
"b  c #22222B",
"n  c #232428",
"m  c #222429",
"M  c #252628",
"N  c #27272A",
"B  c #23232D",
"V  c #22212E",
"C  c #23222F",
"Z  c #25272C",
"A  c gray16",
"S  c #28292B",
"D  c #2A2A2A",
"F  c gray17",
"G  c #2B2C2E",
"H  c #222031",
"J  c #232132",
"K  c #232133",
"L  c #242330",
"P  c #252430",
"I  c #262430",
"U  c #262633",
"Y  c #272733",
"T  c #242234",
"R  c #242235",
"E  c #252336",
"W  c #272634",
"Q  c #272735",
"!  c #282733",
"~  c #282A31",
"^  c #2D2D30",
"/  c #2D2E30",
"(  c #2B2935",
")  c #292837",
"_  c #292937",
"`  c #2C2E34",
"'  c #272438",
"]  c #29273C",
"[  c #2A273D",
"{  c #2A273F",
"}  c #2A2938",
"|  c #29283A",
" . c #2A283D",
".. c #2A283E",
"X. c #2A283F",
"o. c #2B283F",
"O. c #2C2B3C",
"+. c #2E3038",
"@. c #323437",
"#. c #313338",
"$. c #303239",
"%. c #323439",
"&. c #333439",
"*. c #34363A",
"=. c #36373B",
"-. c #36373C",
";. c #34373E",
":. c #35373F",
">. c #36383E",
",. c #37393E",
"<. c #2B2840",
"1. c #2C2841",
"2. c #2C2941",
"3. c #2C2A41",
"4. c #2D2B43",
"5. c #2E2B43",
"6. c #2F2C44",
"7. c #302C46",
"8. c #312E49",
"9. c #3A3C42",
"0. c #3B3D43",
"q. c #3B3E45",
"w. c #3C3E45",
"e. c #3D3F45",
"r. c #343248",
"t. c #34334A",
"y. c #33304C",
"u. c #34304D",
"i. c #34314D",
"p. c #35324D",
"a. c #36344C",
"s. c #37364F",
"d. c #363350",
"f. c #363450",
"g. c #383553",
"h. c #393654",
"j. c #393655",
"k. c #3A3755",
"l. c #3C3858",
"z. c #3C3958",
"x. c #3C3959",
"c. c #3D395A",
"v. c #3D3A5A",
"b. c #3D3A5B",
"n. c #3E3A5B",
"m. c #403D5D",
"M. c #403C5E",
"N. c #403D5E",
"B. c #413E5E",
"V. c #413E5F",
"C. c #423F60",
"Z. c #423F61",
"A. c #423F62",
"S. c #433F63",
"D. c #3E4046",
"F. c #3E4146",
"G. c #3F4249",
"H. c #3F414A",
"J. c #40424A",
"K. c #434061",
"L. c #434062",
"P. c #444163",
"I. c #434064",
"U. c #444064",
"Y. c #444065",
"T. c #444165",
"R. c #454166",
"E. c #454167",
"W. c #464367",
"Q. c #474369",
"!. c #48456B",
"~. c #49456C",
"^. c #4A476F",
"/. c #4B4770",
"(. c #4C4870",
"). c #4C4871",
"_. c #4D4972",
"`. c #4D4973",
"'. c #4E4973",
"]. c #4E4A73",
"[. c #4E4A74",
"{. c #4F4A75",
"}. c #4F4B75",
"|. c #524D79",
" X c #54507C",
".X c #5A5584",
"XX c #5E598A",
"oX c #656094",
"OX c #6D689F",
"+X c #6D68A0",
"@X c None",
/* pixels */
"2.<.<.<.<.<.<.<.X.X.<.<.<.<.<.<.<.<.2.2.2.2.2.2.2.2.2.2.2.2.2.2.2.2.2.2.2.2.2.2.2.2.2.2.2.2.<.<.<.<.<.<.<.<.<.<.<.<.<.<.<.<.<.2.",
"<.7.g.c.c.c.c.c.c.c.c.c.c.c.c.c.c.f.| L U U V V ! ) ) ! V V ! ) ) ! V V ! ) ) ! V V U U L | f.c.c.c.c.c.c.c.c.c.c.c.c.c.c.g.7.<.",
"{ y.R.[.`.`.`.`.`.`.`.`.`.`.`.[.[.B.Q & y - $ $ k D D k $ $ k D D k $ $ k D D k $ $ - y & Q B.[.[.`.`.`.`.`.`.`.`.`.`.`.[.R.y.{ ",
"X.y.R.`.`.`.`.`.`.`.`.`.`.`.`.`.[.B.Q - y y $ $ k D D k % % k D D k % % k D D k $ $ y y - Q B.[.`.`.`.`.`.`.`.`.`.`.`.`.`.R.y.X.",
"X.y.R.`.`.`.`.`.`.`.`.`.`.`.`.`.`.B.Q n *.&.3   $ - - e s s e - - e s s e - - $   3 &.*.n Q B.`.`.`.`.`.`.`.`.`.`.`.`.`.`.R.y.X.",
"X.y.R.`.`.`.`.`.`.`.`.`.`.`.`.`.`.B.U n ,.0.` n 3 - - r k k - $ $ - k k r - - 3 n ` 0.,.n U B.`.`.`.`.`.`.`.`.`.`.`.`.`.`.R.y.X.",
"X.y.R.`.`.`.`.`.`.`.`.`.`.`.`.`.`.B.) - s / e.J.-.+.+.~ - % k D D k % - ~ +.+.-.J.e./ s - ) B.`.`.`.`.`.`.`.`.`.`.`.`.`.`.R.y.X.",
"X.y.R.`.`.`.`.`.`.`.`.`.`.`.`.`.`.~.B.r.b e G -.H.H.-.~ = $ k D D k $ = ~ -.H.H.-.G e b r.B.~.`.`.`.`.`.`.`.`.`.`.`.`.`.`.R.y.X.",
"X.y.R.`.`.`.`.`.`.`.`.`.`.`.`.`.`.`.[.R.r.U s k *.D.q.$.3 $ e g g e $ 3 $.q.D.*.k s U r.R.[.`.`.`.`.`.`.`.`.`.`.`.`.`.`.`.R.y.X.",
"X.y.R.`.`.`.`.`.`.`.`.`.`.`.`.`.`.`.`.`.`.B.| 3 y / D.e.Z $ $ $ $ $ $ Z e.D./ y 3 | B.`.`.`.`.`.`.`.`.`.`.`.`.`.`.`.`.`.`.R.y.X.",
"<.i.R.[.[.`.`.`.`.`.`.`.`.`.`.`.`.`.`.[.[./.P.s.V e D @.0.,.N & & N ,.0.@.S e V s.P./.[.[.`.`.`.`.`.`.`.`.`.`.`.`.`.`.[.[.R.i.<.",
"E X.i.j.j.j.j.j.j.j.j.j.j.j.j.j.j.j.j.j.c.Z.`.!.s.) s g $.&.N & & k &.#.g s ) s.!.`.Z.c.j.j.j.j.g.j.j.j.j.j.j.j.j.j.j.j.j.i.X.E ",
"7 7 8 8 8 8 8 8 8 8 8 8 8 8 8 8 8 8 7 q J 2.B.~.`.B.O.b b b b b b b b b b O.Z.`.~.B.2.J q 7 8 8 7 8 8 8 8 8 8 8 8 8 8 8 8 8 7 7 ",
"@X@X@X@X@X@X@X@X@X@X@X@X@X@X@X@X@X@X@X@X7 J { d.Q.(.R.Z.Z.Z.L.L.L.L.Z.Z.Z.R.`.Q.d.{ J 7 @X@X@X@X@X@X@X@X@X@X@X@X@X@X@X@X@X@X@X@X",
"@X@X@X@X@X@X@X@X@X@X@X@X@X@X@X@X@X@X@X@X@X7 8 ' i.l.c.c.c.c.c.c.c.c.c.c.c.c.c.i.' 8 7 @X@X@X@X@X@X@X@X@X@X@X@X@X@X@X@X@X@X@X@X@X",
"@X@X@X@X@X@X@X@X@X@X@X@X@X@X@X@X@X@X@X@X@X@X6 8 J E E E E E E E E E E E E E E J 8 6 @X@X@X@X@X@X@X@X@X@X@X@X@X@X@X@X@X@X@X@X@X@X",
"@X@X@X@X@X@X@X@X@X@X@X@X@X@X@X@X@X@X@X@X@X@X@X@X8 8 8 8 8 8 8 8 8 8 8 8 8 8 8 8 @X@X@X@X@X@X@X@X@X@X@X@X@X@X@X@X@X@X@X@X@X@X@X@X",
"@X@X@X@X@X@X@X@X@X@X@X@X@X@X@X@X@X@X@X@X@X@X@X@X@X@X@X@X@X@X@X@X@X@X@X@X@X@X@X@X@X@X@X@X@X@X@X@X@X@X@X@X@X@X@X@X@X@X@X@X@X@X@X@X",
"@X@X@X@X@X@X@X@X@X@X@X@X@X@X@X@X@X@X@X@X@X@X@X@X@X@X@X@X@X@X@X@X@X@X@X@X@X@X@X@X@X@X@X@X@X@X@X@X@X@X@X@X@X@X@X@X@X@X@X@X@X@X@X@X",
"@X@X@X@X@X@X@X@X@X@X@X@X@X@X@X@X@X@X@X@X@X@X@X@X@X@X@X@X@X@X@X@X@X@X@X@X@X@X@X@X@X@X@X@X@X@X@X@X@X@X@X@X@X@X@X@X@X@X@X@X@X@X@X@X",
"@X@X@X@X@X@X@X@X@X@X@X@X@X@X@X@X@X@X@X@X@X@X@X@X@X@X@X@X@X@X@X@X@X@X@X@X@X@X@X@X@X@X@X@X@X@X@X@X@X@X@X@X@X@X@X@X@X@X@X@X@X@X@X@X",
"@X@X@X@X@X@X@X@X@X@X@X@X@X@X@X@X@X@X@X@X@X@X@X@X@X@X@X@X@X@X@X@X@X@X@X@X@X@X@X@X@X@X@X@X@X@X@X@X@X@X@X@X@X@X@X@X@X@X@X@X@X@X@X@X",
"@X@X@X@X@X@X@X@X@X@X@X@X@X@X@X@X@X@X@X@X@X@X@X@X@X@X@X@X@X@X@X@X@X@X@X@X@X@X@X@X@X@X@X@X@X@X@X@X@X@X@X@X@X@X@X@X@X@X@X@X@X@X@X@X",
"@X@X@X@X@X@X@X@X@X@X@X@X@X@X@X@X@X@X@X@X@X@X@X@X@X@X@X@X@X@X@X@X@X@X@X@X@X@X@X@X@X@X@X@X@X@X@X@X@X@X@X@X@X@X@X@X@X@X@X@X@X@X@X@X",
"@X@X@X@X@X@X@X@X@X@X@X@X@X@X@X@X@X@X@X@X@X@X@X@X@X@X@X@X@X@X@X@X@X@X@X@X@X@X@X@X@X@X@X@X@X@X@X@X@X@X@X@X@X@X@X@X@X@X@X@X@X@X@X@X",
"@X@X@X@X@X@X@X@X@X@X@X@X@X@X@X@X@X@X@X@X@X@X@X@X@X@X@X@X@X@X@X@X@X@X@X@X@X@X@X@X@X@X@X@X@X@X@X@X@X@X@X@X@X@X@X@X@X@X@X@X@X@X@X@X",
"@X@X@X@X@X@X@X@X@X@X@X@X@X@X@X@X@X@X@X@X@X@X@X@X@X@X@X@X@X@X@X@X@X@X@X@X@X@X@X@X@X@X@X@X@X@X@X@X@X@X@X@X@X@X@X@X@X@X@X@X@X@X@X@X",
"@X@X@X@X@X@X@X@X@X@X@X@X@X@X@X@X@X@X@X@X@X@X@X@X@X@X@X@X@X@X@X@X@X@X@X@X@X@X@X@X@X@X@X@X@X@X@X@X@X@X@X@X@X@X@X@X@X@X@X@X@X@X@X@X",
"@X@X@X@X@X@X@X@X@X@X@X@X@X@X@X@X@X@X@X@X@X@X@X@X@X@X@X@X@X@X@X@X@X@X@X@X@X@X@X@X@X@X@X@X@X@X@X@X@X@X@X@X@X@X@X@X@X@X@X@X@X@X@X@X",
"@X@X@X@X@X@X@X@X@X@X@X@X@X@X@X@X@X@X@X@X@X@X@X@X@X@X@X@X@X@X@X@X@X@X@X@X@X@X@X@X@X@X@X@X@X@X@X@X@X@X@X@X@X@X@X@X@X@X@X@X@X@X@X@X",
"@X@X@X@X@X@X@X@X@X@X@X@X@X@X@X@X@X@X@X@X@X@X@X@X@X@X@X@X@X@X@X@X@X@X@X@X@X@X@X@X@X@X@X@X@X@X@X@X@X@X@X@X@X@X@X@X@X@X@X@X@X@X@X@X",
"@X@X@X@X@X@X@X@X@X@X@X@X@X@X@X@X@X@X@X@X@X@X@X@X@X@X@X@X@X@X@X@X@X@X@X@X@X@X@X@X@X@X@X@X@X@X@X@X@X@X@X@X@X@X@X@X@X@X@X@X@X@X@X@X",
"@X@X@X@X@X@X@X@X@X@X@X@X@X@X@X@X@X@X@X@X@X@X@X@X@X@X@X@X@X@X@X@X@X@X@X@X@X@X@X@X@X@X@X@X@X@X@X@X@X@X@X@X@X@X@X@X@X@X@X@X@X@X@X@X",
"@X@X@X@X@X@X@X@X@X@X@X@X@X@X@X@X@X@X@X@X@X@X@X@X@X@X@X@X@X@X@X@X@X@X@X@X@X@X@X@X@X@X@X@X@X@X@X@X@X@X@X@X@X@X@X@X@X@X@X@X@X@X@X@X",
"@X@X@X@X@X@X@X@X@X@X@X@X@X@X@X@X@X@X@X@X@X@X@X@X@X@X@X@X@X@X@X@X@X@X@X@X@X@X@X@X@X@X@X@X@X@X@X@X@X@X@X@X@X@X@X@X@X@X@X@X@X@X@X@X",
"@X@X@X@X@X@X@X@X@X@X@X@X@X@X@X@X@X@X@X@X@X@X@X@X@X@X@X@X@X@X@X@X@X@X@X@X@X@X@X@X@X@X@X@X@X@X@X@X@X@X@X@X@X@X@X@X@X@X@X@X@X@X@X@X",
"@X@X@X@X@X@X@X@X@X@X@X@X@X@X@X@X@X@X@X@X@X@X@X@X@X@X@X@X@X@X@X@X@X@X@X@X@X@X@X@X@X@X@X@X@X@X@X@X@X@X@X@X@X@X@X@X@X@X@X@X@X@X@X@X",
"@X@X@X@X@X@X@X@X@X@X@X@X@X@X@X@X@X@X@X@X@X@X@X@X@X@X@X@X@X@X@X@X@X@X@X@X@X@X@X@X@X@X@X@X@X@X@X@X@X@X@X@X@X@X@X@X@X@X@X@X@X@X@X@X",
"@X@X@X@X@X@X@X@X@X@X@X@X@X@X@X@X@X@X@X@X@X@X@X@X@X@X@X@X@X@X@X@X@X@X@X@X@X@X@X@X@X@X@X@X@X@X@X@X@X@X@X@X@X@X@X@X@X@X@X@X@X@X@X@X",
"@X@X@X@X@X@X@X@X@X@X@X@X@X@X@X@X@X@X@X@X@X@X@X@X@X@X@X@X@X@X@X@X@X@X@X@X@X@X@X@X@X@X@X@X@X@X@X@X@X@X@X@X@X@X@X@X@X@X@X@X@X@X@X@X",
"@X@X@X@X@X@X@X@X@X@X@X@X@X@X@X@X@X@X@X@X@X@X@X@X@X@X@X@X@X@X@X@X@X@X@X@X@X@X@X@X@X@X@X@X@X@X@X@X@X@X@X@X@X@X@X@X@X@X@X@X@X@X@X@X",
"@X@X@X@X@X@X@X@X@X@X@X@X@X@X@X@X@X@X@X@X@X@X@X@X@X@X@X@X@X@X@X@X@X@X@X@X@X@X@X@X@X@X@X@X@X@X@X@X@X@X@X@X@X@X@X@X@X@X@X@X@X@X@X@X",
"@X@X@X@X@X@X@X@X@X@X@X@X@X@X@X@X@X@X@X@X@X@X@X@X@X@X@X@X@X@X@X@X@X@X@X@X@X@X@X@X@X@X@X@X@X@X@X@X@X@X@X@X@X@X@X@X@X@X@X@X@X@X@X@X",
"@X@X@X@X@X@X@X@X@X@X@X@X@X@X@X@X@X@X@X@X@X@X@X@X@X@X@X@X@X@X@X@X@X@X@X@X@X@X@X@X@X@X@X@X@X@X@X@X@X@X@X@X@X@X@X@X@X@X@X@X@X@X@X@X",
"@X@X@X@X@X@X@X@X@X@X@X@X@X@X@X@X@X@X@X@X@X@X@X@X@X@X@X@X@X@X@X@X@X@X@X@X@X@X@X@X@X@X@X@X@X@X@X@X@X@X@X@X@X@X@X@X@X@X@X@X@X@X@X@X",
"@X@X@X@X@X@X@X@X@X@X@X@X@X@X@X@X@X@X@X@X@X@X@X@X@X@X@X@X@X@X@X@X@X@X@X@X@X@X@X@X@X@X@X@X@X@X@X@X@X@X@X@X@X@X@X@X@X@X@X@X@X@X@X@X",
"@X@X@X@X@X@X@X@X@X@X@X@X@X@X@X@X@X@X@X@X@X@X@X@X@X@X@X@X@X@X@X@X@X@X@X@X@X@X@X@X@X@X@X@X@X@X@X@X@X@X@X@X@X@X@X@X@X@X@X@X@X@X@X@X",
"@X@X@X@X@X@X@X@X@X@X@X@X@X@X@X@X@X@X@X@X@X@X@X@X@X@X@X@X@X@X@X@X@X@X@X@X@X@X@X@X@X@X@X@X@X@X@X@X@X@X@X@X@X@X@X@X@X@X@X@X@X@X@X@X",
"@X@X@X@X@X@X@X@X@X@X@X@X@X@X@X@X@X@X@X@X@X@X@X@X@X@X@X@X@X@X@X@X@X@X@X@X@X@X@X@X@X@X@X@X@X@X@X@X@X@X@X@X@X@X@X@X@X@X@X@X@X@X@X@X",
"@X@X@X@X@X@X@X@X@X@X@X@X@X@X@X@X@X@X@X@X@X@X@X@X@X@X@X@X@X@X@X@X@X@X@X@X@X@X@X@X@X@X@X@X@X@X@X@X@X@X@X@X@X@X@X@X@X@X@X@X@X@X@X@X",
"@X@X@X@X@X@X@X@X@X@X@X@X@X@X@X@X@X@X@X@X@X@X@X@X@X@X@X@X@X@X@X@X@X@X@X@X@X@X@X@X@X@X@X@X@X@X@X@X@X@X@X@X@X@X@X@X@X@X@X@X@X@X@X@X",
"@X@X@X@X@X@X@X@X@X@X@X@X@X@X@X@X@X@X@X@X@X@X@X@X@X@X@X@X@X@X@X@X@X@X@X@X@X@X@X@X@X@X@X@X@X@X@X@X@X@X@X@X@X@X@X@X@X@X@X@X@X@X@X@X",
"@X@X@X@X@X@X@X@X@X@X@X@X@X@X@X@X@X@X@X@X@X@X@X@X@X@X@X@X@X@X@X@X@X@X@X@X@X@X@X@X@X@X@X@X@X@X@X@X@X@X@X@X@X@X@X@X@X@X@X@X@X@X@X@X",
"@X@X@X@X@X@X@X@X@X@X@X@X@X@X@X@X@X@X@X@X@X@X@X@X@X@X@X@X@X@X@X@X@X@X@X@X@X@X@X@X@X@X@X@X@X@X@X@X@X@X@X@X@X@X@X@X@X@X@X@X@X@X@X@X",
"@X@X@X@X@X@X@X@X@X@X@X@X@X@X@X@X@X@X@X@X@X@X@X@X@X@X@X@X@X@X@X@X@X@X@X@X@X@X@X@X@X@X@X@X@X@X@X@X@X@X@X@X@X@X@X@X@X@X@X@X@X@X@X@X",
"@X@X@X@X@X@X@X@X@X@X@X@X@X@X@X@X@X@X@X@X@X@X@X@X@X@X@X@X@X@X@X@X@X@X@X@X@X@X@X@X@X@X@X@X@X@X@X@X@X@X@X@X@X@X@X@X@X@X@X@X@X@X@X@X",
"@X@X@X@X@X@X@X@X@X@X@X@X@X@X@X@X@X@X@X@X@X@X@X@X@X@X@X@X@X@X@X@X@X@X@X@X@X@X@X@X@X@X@X@X@X@X@X@X@X@X@X@X@X@X@X@X@X@X@X@X@X@X@X@X",
"@X@X@X@X@X@X@X@X@X@X@X@X@X@X@X@X@X@X@X@X@X@X@X@X@X@X@X@X@X@X@X@X@X@X@X@X@X@X@X@X@X@X@X@X@X@X@X@X@X@X@X@X@X@X@X@X@X@X@X@X@X@X@X@X",
"@X@X@X@X@X@X@X@X@X@X@X@X@X@X@X@X@X@X@X@X@X@X@X@X@X@X@X@X@X@X@X@X@X@X@X@X@X@X@X@X@X@X@X@X@X@X@X@X@X@X@X@X@X@X@X@X@X@X@X@X@X@X@X@X",
"@X@X@X@X@X@X@X@X@X@X@X@X@X@X@X@X@X@X@X@X@X@X@X@X@X@X@X@X@X@X@X@X@X@X@X@X@X@X@X@X@X@X@X@X@X@X@X@X@X@X@X@X@X@X@X@X@X@X@X@X@X@X@X@X",
"2.<.X.X.X.X.X.X.X.X.X.X.X.X.X.X.X.X.X.{ @X@X@X@X@X@X@X@X@X@X@X@X@X@X@X@X@X@X@X@X@X@X@X@X{ X.X.X.X.X.X.X.X.X.X.X.X.X.X.X.X.X.<.2.",
"X.8.c.R.R.R.R.R.I.I.I.I.I.I.R.R.R.R.R.c.2.J @X@X@X@X@X@X@X@X@X@X@X@X@X@X@X@X@X@X@X@XJ 2.c.R.R.R.R.R.I.I.I.I.I.I.R.R.R.R.R.c.8.X.",
"{ i.R.[.[.`.`.|..XXXXXXXXX.X|.`.`.[.[.!.c.i.2.@X@X@X@X@X@X@X@X@X@X@X@X@X@X@X@X@X@X2.i.c.!.[.[.`.`.|..XXXXXXXXX.X|.`.`.[.[.R.i.{ ",
"X.y.R.`.`.`.`. XoX+XOXOX+XoX X`.`.`.`.`.`.Z.6.E @X@X@X@X@X@X@X@X@X@X@X@X@X@X@X@XE 6.Z.`.`.`.`.`.`. XoX+XOXOX+XoX X`.`.`.`.R.y.X."
};
