/* XPM */
static const char *airlock_14[] = {
/* columns rows colors chars-per-pixel */
"64 64 113 2 ",
"   c #16171A",
".  c #17181C",
"X  c #1A1B1E",
"o  c #1D1E22",
"O  c #1E1C2B",
"+  c #201E2F",
"@  c #211F30",
"#  c #1F2023",
"$  c #222325",
"%  c #242429",
"&  c #27292E",
"*  c #2A2A2B",
"=  c #252334",
"-  c #282735",
";  c #2B2C33",
":  c #272439",
">  c #29263B",
",  c #2A283E",
"<  c #2E3033",
"1  c #2F3138",
"2  c #323336",
"3  c #33353B",
"4  c #37393E",
"5  c #383A3F",
"6  c #2B2840",
"7  c #312E48",
"8  c #323046",
"9  c #3B3D44",
"0  c #35324D",
"q  c #35324E",
"w  c #35334F",
"e  c #36334F",
"r  c #34314D",
"t  c #33304C",
"y  c #383650",
"u  c #393751",
"i  c #383453",
"p  c #393752",
"a  c #393654",
"s  c #3A3655",
"d  c #3B3955",
"f  c #3B3956",
"g  c #3B3857",
"h  c #3C3A57",
"j  c #3C3859",
"k  c #3C3959",
"l  c #3E3B59",
"z  c #3D3A5A",
"x  c #3E3C5A",
"c  c #3F3C5B",
"v  c #3F3B5D",
"b  c #3F3C5D",
"n  c #3F3C5E",
"m  c #403D5D",
"M  c #403D5E",
"N  c #403E5E",
"B  c #413E5E",
"V  c #413E5F",
"C  c #413D60",
"Z  c #423F60",
"A  c #423F61",
"S  c #423F62",
"D  c #433F63",
"F  c #3D4047",
"G  c #3F4148",
"H  c #3E4049",
"J  c #3F4248",
"K  c #3F4249",
"L  c #404249",
"P  c #41444B",
"I  c #444064",
"U  c #444065",
"Y  c #444165",
"T  c #454265",
"R  c #454166",
"E  c #454267",
"W  c #464267",
"Q  c #464367",
"!  c #444065",
"~  c #464368",
"^  c #464368",
"/  c #48446A",
"(  c #48446B",
")  c #48456B",
"_  c #49456D",
"`  c #4A476E",
"'  c #4B476E",
"]  c #4B476F",
"[  c #4B476F",
"{  c #4C4871",
"}  c #4C4872",
"|  c #4D4972",
" . c #4D4973",
".. c #4E4A73",
"X. c #4E4A74",
"o. c #4E4A75",
"O. c #4F4A75",
"+. c #4F4B75",
"@. c #4F4B76",
"#. c #4D4972",
"$. c #504C76",
"%. c #514D78",
"&. c #534F7B",
"*. c #524D79",
"=. c #54507C",
"-. c #5B5685",
";. c #605C8E",
":. c #645F92",
">. c #625E90",
",. c #666296",
"<. c #676297",
"1. c #6C679D",
"2. c None",
/* pixels */
"6 6 6 6 6 6 6 6 , , , 6 6 6 6 6 6 6 6 6 , 6 6 6 6 6 6 6 6 6 6 6 6 6 6 6 6 6 6 6 6 6 6 6 , , , 6 6 6 6 6 6 6 6 6 6 6 6 6 6 6 6 6 ",
"6 6 i k k k k k k k k k k k k k k k k k k k k k k k k k k k k k k k k k k k k k k k k k k k k k k k k k k k k k k k k k k i 6 6 ",
", t Y  . . . . . . . . . . . . . . . . . . . . . . . . . . . . . . . . . . . . . . . . . . . . . . . . . . . . . . . . . .Y t , ",
", t Y  . . . . . . . . . . . . . . . . . . . . . . . . . . . . . . . . . . . . . . . . . . . . . . . . . . . . . . . . . .Y t , ",
", t Y  . . . . . . . . . . . . . . . . . . . . .O./ i 8 8 8 8 8 8 8 8 8 8 i / O. . . . . . . . . . . . . . . . . . . . . .Y t , ",
", t Y  . . . . . . . . . . . . . . . . . . . .' ~ i = o $ % o o o o % $ o = i ~ '  . . . . . . . . . . . . . . . . . . . .Y t , ",
", t Y  . . . . . . . . . . . . . . . . . . . .Z , $ $ * 9 9 * $ $ * 9 9 * $ $ , Z  . . . . . . . . . . . . . . . . . . . .Y t , ",
", t Y  . . . . . . . . . . . . . . . . .O./ i , $ $ 2 4 3 ; $ X X $ ; 3 4 2 $ $ , i / O. . . . . . . . . . . . . . . . . .Y t , ",
", t Y  . . . . . . . . . . . . . . . .' Y i & o % 2 L 9 $   X X X X   $ 9 L 2 % o & i Y '  . . . . . . . . . . . . . . . .Y t , ",
", t Y  . . . . . . . . . . . . . . . .Z , $ $ * 9 P 9 ; o X $ * * $ X o ; 9 P 9 * $ $ , Z  . . . . . . . . . . . . . . . .Y t , ",
", t Y  . . . . . . . . . . . . . .Y i , $ $ 2 9 F 9 3 ; o X % * * % X o ; 3 9 F 9 2 $ $ , i Y  . . . . . . . . . . . . . .Y t , ",
", t Y  . . . . . . . . . . . . . .M = o % 2 9 9 1 ; ; & # o $ % % $ o # & ; ; 1 9 9 2 % o = M  . . . . . . . . . . . . . .Y t , ",
", t Y  . . . . . . . . . . . . . .M - % 9 9 & o X X X o % % o X X o % % o X X X o & 9 9 % - M  . . . . . . . . . . . . . .Y t , ",
", t Y  . . . . . . . . . . . . . .M - $ < ; o . o $ $ $ $ $ $ $ $ $ $ $ $ $ $ o . o ; < $ - M  . . . . . . . . . . . . . .Y t , ",
", t Y  . . . . . . . . . . . . . .M - o o X . X % * * % X X % * * % X X % * * % X X X o o - M  . . . . . . . . . . . . . .Y t , ",
", t Y  . . . . . . . . . . . . . .M - o $ $ X X % * * % X X % * * % X X % * * % X X $ $ o - M  . . . . . . . . . . . . . .Y t , ",
", t Y  . . . . . . . . . . . . . .M - % 3 3 o   X o o # $ $ # o o # $ $ # o o X   o 3 3 % - M  . . . . . . . . . . . . . .Y t , ",
", t Y  . . . . . . . . . . . . . .M = % 5 9 ; $ o o o # % % o X X o % % # o o o $ ; 9 5 % = M  . . . . . . . . . . . . . .Y t , ",
", t Y  . . . . . . . . . . . . . .M - o $ ; 9 K 3 ; ; ; o X % * * % X o * ; ; 3 K 9 ; $ o - M  . . . . . . . . . . . . . .Y t , ",
", t Y  . . . . . . . . . . . . . ./ c 8 $ $ ; 5 K K 4 ; o X % * * % X o ; 4 K K 5 ; $ $ 8 c /  . . . . . . . . . . . . . .Y t , ",
", t Y  . . . . . . . . . . . . . . .O.Y 8 & $ % 5 K 9 1 o X $ % % $ X o 1 9 K 5 % $ & 8 Y O. . . . . . . . . . . . . . . .Y t , ",
", t Y  . . . . . . . . . . . . . . . . .' k - o $ ; K 9 % . X X X X . % 9 K ; $ o - k '  . . . . . . . . . . . . . . . . .Y t , ",
"6 r Y O.O.O.O.O.O.O. . .O.O.O.O.O.O.O.O.O.' M 8 $ $ * 3 5 3 % X X % 3 5 3 * $ $ 8 M ' O.O.O.O.O. . .O.O.O.O.O.O.O.O.O.O.O.Y r 6 ",
": 6 s n n v v v v v v v v v v v v v v n Z Y  .Y 8 = $ % 4 4 * o o * 4 4 % $ = 8 Y  .Y Z n v v v v v v v v v v v v v v n n s 6 : ",
"O O + @ @ @ @ @ @ @ @ @ @ @ @ @ @ @ @ = - 7 Z  .' c - o $ $ o o o o $ $ o - c [  .Z 7 - = @ @ @ + @ @ @ @ @ @ @ @ @ @ @ @ + O O ",
"2.2.2.2.2.2.2.2.2.2.2.2.2.2.2.2.2.2.2.O O = 6 f ' ' M f f f h h h h f f f M ' ' f 6 = O O 2.2.2.2.2.2.2.2.2.2.2.2.2.2.2.2.2.2.2.",
"2.2.2.2.2.2.2.2.2.2.2.2.2.2.2.2.2.2.2.2.O O + > s Z Z Z Z Z Z Z Z Z Z Z Z D Z s > + O O 2.2.2.2.2.2.2.2.2.2.2.2.2.2.2.2.2.2.2.2.",
"2.2.2.2.2.2.2.2.2.2.2.2.2.2.2.2.2.2.2.2.2.2.O + = > > > > > > > > > > > > > > = + O 2.2.2.2.2.2.2.2.2.2.2.2.2.2.2.2.2.2.2.2.2.2.",
"2.2.2.2.2.2.2.2.2.2.2.2.2.2.2.2.2.2.2.2.2.2.2.O O O O O O O O O O O O O O O O O O 2.2.2.2.2.2.2.2.2.2.2.2.2.2.2.2.2.2.2.2.2.2.2.",
"2.2.2.2.2.2.2.2.2.2.2.2.2.2.2.2.2.2.2.2.2.2.2.2.O O O O O O O O O O O O O O O O 2.2.2.2.2.2.2.2.2.2.2.2.2.2.2.2.2.2.2.2.2.2.2.2.",
"2.2.2.2.2.2.2.2.2.2.2.2.2.2.2.2.2.2.2.2.2.2.2.2.2.2.2.2.2.2.2.2.2.2.2.2.2.2.2.2.2.2.2.2.2.2.2.2.2.2.2.2.2.2.2.2.2.2.2.2.2.2.2.2.",
"2.2.2.2.2.2.2.2.2.2.2.2.2.2.2.2.2.2.2.2.2.2.2.2.2.2.2.2.2.2.2.2.2.2.2.2.2.2.2.2.2.2.2.2.2.2.2.2.2.2.2.2.2.2.2.2.2.2.2.2.2.2.2.2.",
"2.2.2.2.2.2.2.2.2.2.2.2.2.2.2.2.2.2.2.2.2.2.2.2.2.2.2.2.2.2.2.2.2.2.2.2.2.2.2.2.2.2.2.2.2.2.2.2.2.2.2.2.2.2.2.2.2.2.2.2.2.2.2.2.",
"2.2.2.2.2.2.2.2.2.2.2.2.2.2.2.2.2.2.2.2.2.2.2.2.2.2.2.2.2.2.2.2.2.2.2.2.2.2.2.2.2.2.2.2.2.2.2.2.2.2.2.2.2.2.2.2.2.2.2.2.2.2.2.2.",
"2.2.2.2.2.2.2.2.2.2.2.2.2.2.2.2.2.2.2.2.2.2.2.2.2.2.2.2.2.2.2.2.2.2.2.2.2.2.2.2.2.2.2.2.2.2.2.2.2.2.2.2.2.2.2.2.2.2.2.2.2.2.2.2.",
"2.2.2.2.2.2.2.2.2.2.2.2.2.2.2.2.2.2.2.2.2.2.2.2.2.2.2.2.2.2.2.2.2.2.2.2.2.2.2.2.2.2.2.2.2.2.2.2.2.2.2.2.2.2.2.2.2.2.2.2.2.2.2.2.",
"2.2.2.2.2.2.2.2.2.2.2.2.2.2.2.2.2.2.2.2.2.2.2.2.2.2.2.2.2.2.2.2.2.2.2.2.2.2.2.2.2.2.2.2.2.2.2.2.2.2.2.2.2.2.2.2.2.2.2.2.2.2.2.2.",
"2.2.2.2.2.2.2.2.2.2.2.2.2.2.2.2.2.2.2.2.2.2.2.2.2.2.2.2.2.2.2.2.2.2.2.2.2.2.2.2.2.2.2.2.2.2.2.2.2.2.2.2.2.2.2.2.2.2.2.2.2.2.2.2.",
"2.2.2.2.2.2.2.2.2.2.2.2.2.2.2.2.2.2.2.2.2.2.2.2.2.2.2.2.2.2.2.2.2.2.2.2.2.2.2.2.2.2.2.2.2.2.2.2.2.2.2.2.2.2.2.2.2.2.2.2.2.2.2.2.",
"2.2.2.2.2.2.2.2.2.2.2.2.2.2.2.2.2.2.2.2.2.2.2.2.2.2.2.2.2.2.2.2.2.2.2.2.2.2.2.2.2.2.2.2.2.2.2.2.2.2.2.2.2.2.2.2.2.2.2.2.2.2.2.2.",
"2.2.2.2.2.2.2.2.2.2.2.2.2.2.2.2.2.2.2.2.2.2.2.2.2.2.2.2.2.2.2.2.2.2.2.2.2.2.2.2.2.2.2.2.2.2.2.2.2.2.2.2.2.2.2.2.2.2.2.2.2.2.2.2.",
"2.2.2.2.2.2.2.2.2.2.2.2.2.2.2.2.2.2.2.2.2.2.2.2.2.2.2.2.2.2.2.2.2.2.2.2.2.2.2.2.2.2.2.2.2.2.2.2.2.2.2.2.2.2.2.2.2.2.2.2.2.2.2.2.",
"2.2.2.2.2.2.2.2.2.2.2.2.2.2.2.2.2.2.2.2.2.2.2.2.2.2.2.2.2.2.2.2.2.2.2.2.2.2.2.2.2.2.2.2.2.2.2.2.2.2.2.2.2.2.2.2.2.2.2.2.2.2.2.2.",
"2.2.2.2.2.2.2.2.2.2.2.2.2.2.2.2.2.2.2.2.2.2.2.2.2.2.2.2.2.2.2.2.2.2.2.2.2.2.2.2.2.2.2.2.2.2.2.2.2.2.2.2.2.2.2.2.2.2.2.2.2.2.2.2.",
"2.2.2.2.2.2.2.2.2.2.2.2.2.2.2.2.2.2.2.2.2.2.2.2.2.2.2.2.2.2.2.2.2.2.2.2.2.2.2.2.2.2.2.2.2.2.2.2.2.2.2.2.2.2.2.2.2.2.2.2.2.2.2.2.",
"2.2.2.2.2.2.2.2.2.2.2.2.2.2.2.2.2.2.2.2.2.2.2.2.2.2.2.2.2.2.2.2.2.2.2.2.2.2.2.2.2.2.2.2.2.2.2.2.2.2.2.2.2.2.2.2.2.2.2.2.2.2.2.2.",
"2.2.2.2.2.2.2.2.2.2.2.2.2.2.2.2.2.2.2.2.2.2.2.2.2.2.2.2.2.2.2.2.2.2.2.2.2.2.2.2.2.2.2.2.2.2.2.2.2.2.2.2.2.2.2.2.2.2.2.2.2.2.2.2.",
"2.2.2.2.2.2.2.2.2.2.2.2.2.2.2.2.2.2.2.2.2.2.2.2.2.2.2.2.2.2.2.2.2.2.2.2.2.2.2.2.2.2.2.2.2.2.2.2.2.2.2.2.2.2.2.2.2.2.2.2.2.2.2.2.",
"2.2.2.2.2.2.2.2.2.2.2.2.2.2.2.2.2.2.2.2.2.2.2.2.2.2.2.2.2.2.2.2.2.2.2.2.2.2.2.2.2.2.2.2.2.2.2.2.2.2.2.2.2.2.2.2.2.2.2.2.2.2.2.2.",
"6 > : = = = = = = = = = = = = = = = = = 2.2.2.2.2.2.2.2.2.2.2.2.2.2.2.2.2.2.2.2.2.2.2.2.= = = = = = = = = = = = = = = = = : > 6 ",
"6 6 8 r r r r r r r r r r r r r r r r 8 , 2.2.2.2.2.2.2.2.2.2.2.2.2.2.2.2.2.2.2.2.2.2., 8 r r r r r r r r r r r r r r r r 8 6 6 ",
", t Y  . . . . .O.$.$.$.$.O. . . . . .Y 8 > 2.2.2.2.2.2.2.2.2.2.2.2.2.2.2.2.2.2.2.2.> 8 Y  . . . . .O.$.$.$.$.O. . . . . .Y t , ",
"> t Y  . . . .&.;.<.<.<.<.;.&. . . . .' ~ k 6 = 2.2.2.2.2.2.2.2.2.2.2.2.2.2.2.2.= 6 k ~ '  . . . .&.;.<.<.<.<.;.&. . . . .Y t > ",
", 8 Y  . . . .&.-.:.1.1.:.-.$. . . . . .O./ k 8 , 2.2.2.2.2.2.2.2.2.2.2.2.2.2., 8 k /  . . . . . .&.-.:.1.1.:.-.&. . . . .Y t , ",
", t Y  . . . . . .=.;.;.=. . . . . . . . . . .Y 8 , , , , , , , , , , , , , , 8 Y  . . . . . . . . . .=.>.>.=. . . . . . .Y t , ",
", t Y  . . . . . . .&.&. . . . . . . . . . . .' ~ Y Y Y Y Y Y Y Y Y Y Y Y Y Y ~ '  . . . . . . . . . . .&.&. . . . . . . .Y t , ",
", t Y  . . . . . . . .[  . . . . . . . . . . . . . . . . . . .O.O.O.O.O. . . . . . . . . . . . . . . . .[ [  . . . . . . .Y t , ",
", t Y  . . . . . . . . . . . . . . . . . . . . . . . . . . . . . . . . . . . . . . . . . . . . . . . . . . . . . . . . . .Y t , ",
", t Y  . . . . . . . . . . . . . . . . . . . . . . . . . . . . . . . . . . . . . . . . . . . . . . . . . . . . . . . . . .Y t , ",
", t Y  . . . . . . . . . . . . . . . . . . . . . . . . . . . . . . . . . . . . . . . . . . . . . . . . . . . . . . . . . .Y t , ",
", t Y  . . . . . . . . . . . . . . . . . . . . . . . . . . . . . . . . . . . . . . . . . . . . . . . . . . . . . . . . . .Y t , ",
", t Y  . . . . . . . . . . . . . . . . . . . . . . . . . . . . . . . . . . . . . . . . . . . . . . . . . . . . . . . . . .Y t , ",
", t Y  . . . . . . . . . . . . . . . . . . . . . . . . . . . . . . . . . . . . . . . . . . . . . . . . . . . . . . . . . .Y t , ",
", t Y  . . . . . . . . . . . . . . . . . . . . . . . . . . . . . . . . . . . . . . . . . . . . . . . . . . . . . . . . . .Y t , "
};
