/* XPM */
static const char *airlock_07[] = {
/* columns rows colors chars-per-pixel */
"64 64 112 2 ",
"   c #16161A",
".  c #1A1B1E",
"X  c #1E1E22",
"o  c #1E1C2B",
"O  c #201E2E",
"+  c #211F30",
"@  c #1F2024",
"#  c #222325",
"$  c #24252A",
"%  c #27292E",
"&  c #2A2A2B",
"*  c #252434",
"=  c #272930",
"-  c #2A2B33",
";  c #262438",
":  c #2A273F",
">  c #2A283F",
",  c #2F3139",
"<  c #323437",
"1  c #34363B",
"2  c #36383C",
"3  c #2C2941",
"4  c #302D46",
"5  c #322F49",
"6  c #3B3D43",
"7  c #343249",
"8  c #34334A",
"9  c #33304C",
"0  c #34314C",
"q  c #34314D",
"w  c #35334C",
"e  c #36344C",
"r  c #36344D",
"t  c #37354E",
"y  c #33304C",
"u  c #363350",
"i  c #373451",
"p  c #383453",
"a  c #393654",
"s  c #3C3859",
"d  c #3C3959",
"f  c #3D3959",
"g  c #3D395A",
"h  c #3E3C5B",
"j  c #3F3C5B",
"k  c #3E3B5C",
"l  c #3F3D5C",
"z  c #403D5D",
"x  c #403D5E",
"c  c #403D5F",
"v  c #403E5E",
"b  c #413E5E",
"n  c #413E5F",
"m  c #403D60",
"M  c #413D60",
"N  c #413E61",
"B  c #423F61",
"V  c #433F63",
"C  c #3D4045",
"Z  c #3E4045",
"A  c #3E4046",
"S  c #3F4147",
"D  c #3F4249",
"F  c #3F424A",
"G  c #404249",
"H  c #40434A",
"J  c #42444C",
"K  c #434062",
"L  c #444163",
"P  c #434064",
"I  c #444064",
"U  c #444164",
"Y  c #444065",
"T  c #444165",
"R  c #454166",
"E  c #454266",
"W  c #454267",
"Q  c #464367",
"!  c #444065",
"~  c #474368",
"^  c #474369",
"/  c #474469",
"(  c #48446B",
")  c #49456C",
"_  c #4A476E",
"`  c #4B476E",
"'  c #4B476F",
"]  c #4B476F",
"[  c #4B4770",
"{  c #4B4770",
"}  c #4C4870",
"|  c #4C4871",
" . c #4D4972",
".. c #4D4973",
"X. c #4E4973",
"o. c #4E4A73",
"O. c #4E4A74",
"+. c #4E4A75",
"@. c #4F4A75",
"#. c #4F4B75",
"$. c #4D4972",
"%. c #514D78",
"&. c #534F7B",
"*. c #534F7B",
"=. c #55507D",
"-. c #5C5888",
";. c #5F5B8C",
":. c #645F92",
">. c #656094",
",. c #656195",
"<. c #666195",
"1. c #6C679E",
/* pixels */
"3 3 3 3 3 3 3 3 > > > 3 3 3 3 3 3 3 3 3 > > > 3 3 3 3 3 3 3 3 3 > > > 3 3 3 3 3 3 3 3 3 > > > 3 3 3 3 3 3 3 3 3 3 3 3 3 3 3 3 3 ",
"3 3 p d d d d d d d d d d d d d d d d d d d d d d d d d d d d d d d d d d d d d d d d d d d d d d d d d d d d d d d d d d p 3 3 ",
"> 9 T ....................................................................................................................T 9 > ",
"> 9 T ....................................................................................................................T 9 > ",
"> 9 T ....................................................................................................................T 9 > ",
"> 9 T ....................................................................................................................T 9 > ",
"> 9 T ....................................................................................................................T 9 > ",
"> 9 T ....................................................................................................................T 9 > ",
"> 9 T ....................................................................................................................T 9 > ",
"> 9 T ....................................................................................................................T 9 > ",
"> 9 T ....................................................................................................................T 9 > ",
"> 9 T ....................................................................................................................T 9 > ",
"> 9 T ....................................................................................................................T 9 > ",
"> 9 T ....................................................................................................................T 9 > ",
"> 9 T ....................................................................................................................T 9 > ",
"> 9 T ....................................................} } } ..} } } } } ..............................................T 9 > ",
"> 9 T ..........................................@.~ r 3 3 3 3 3 3 3 3 3 3 r ~ @...........................................T 9 > ",
"> 9 T ........................................` T r $ X $ $ @ . . @ $ $ X $ r T ` ........................................T 9 > ",
"> 9 T ........................................z > @ # & C 6 & # # & 6 6 & # @ > z ........................................T 9 > ",
"> 9 T ..................................@.~ r - # # 1 6 < % @ . . X % < 6 1 # # - r ~ @...................................T 9 > ",
"> 9 T ................................` L r $ X & 1 G 6 #   . . . .   # 6 G 1 & X $ r L ` ................................T 9 > ",
"> 9 T ................................z > @ # & C J 6 - X . # & & # . X - 6 J C & # @ > z ................................T 9 > ",
"> 9 T ............................T e - # # 1 C 6 6 1 = X . # & & # . X = 1 6 6 C 1 # # - r T ............................T 9 > ",
"> 9 T ............................z * X & < 6 6 - = = $ # X # # # # X # $ = = - 6 6 < & X * z ............................T 9 > ",
"> 9 T ............................z * $ 6 6 $ . . . . X $ $ X . . X $ $ X . . . . % 6 6 $ * z ............................T 9 > ",
"> 9 T ............................z * # - & X . X # # # # # # # # # # # # # # X . X & - # * z ............................T 9 > ",
"> 9 T ............................z * . . . . . # & & # . . # & & # . . # & & # . . . . . * z ............................T 9 > ",
"> 9 T ............................z * X # # . . # & & # . . # & & # . . # & & # . . # # X * z ............................T 9 > ",
"> 9 T ............................z * $ 2 1 @   . . . X # # X X X X # # X . . .   @ 1 2 $ * z ............................T 9 > ",
"> 9 T ............................z * $ 2 6 - $ @ X X # # # X . . X # # # X X @ $ , 6 2 $ * z ............................T 9 > ",
"> 9 T ............................z > X # - 6 G 2 , , = X . # & & # . X = , , 2 G 6 - # X > z ............................T 9 > ",
"> 9 T ............................` z 7 $ @ & 1 F F 2 = X . # & & # . X = 2 F F 1 & @ $ 7 z ` ............................T 9 > ",
"> 9 T ..............................@.T 7 * # # 2 C 6 < X . @ # # @ . X < 6 C 2 # # * 7 T @...............................T 9 > ",
"> 9 T ....................................l - X # - C 6 $ . . . . . . $ 6 C - # X - l ....................................T 9 > ",
"3 q T @.@.@.@.@.@.@.@.@.@.@.@.@.@.@.@.@.@.` V 7 $ @ & < 6 2 $ . . $ 2 6 < & @ $ 7 V ` @.@.@.@.@.@.@.@.@.@.@.@.@.@.@.@.@.@.T q 3 ",
"; 3 i d d d d d d d d d d d d d d d d d k T ../ q * # # 1 2 $ . . $ 2 1 # # * q / ..T k d d d d d d d d d d d d d d d d d i 3 ; ",
"o o O O O O O O O O O O O O O O O O O + ; 3 V ` ..z > X $ $ $ @ @ $ $ $ X > z ..[ V 3 ; + O O O O O O O O O O O O O O O O O o o ",
"; ; * + + + + + + + + + + + + + + + O O o * 3 p ( ..K j j j j l l j j j j K ..( a 3 * o O + + + + + + + + + + + + + + + + * ; ; ",
"3 3 5 q q q q q y y y y y y q q 7 q q y 4 > * ; i z z V V z z z z z z V V z z i ; * > 4 y q q q q q y y y y y y q q q q q 5 3 3 ",
"> 9 V ....` ` ................` ` ` ` ....V > * ; ; ; ; ; ; ; ; ; ; ; ; ; ; ; ; * > V ....` ` ` ` ................` ` ....V 9 > ",
": 9 T ........&.;.<.<.<.<.;.&.............` P i ; o o o o o o o o o o o o o o ; i P ` ............&.-.<.<.>.<.;.&.......@.T 9 : ",
"> y T ........%.-.<.1.1.<.-.&...............@.~ u 3 3 3 3 3 3 3 3 3 3 3 3 3 3 q ~ @...............%.-.<.1.1.<.-.&.........T 9 > ",
"> 9 T ............=.:.:.=.......................[ ` ` ` ` ` ` ` ` ` ` ` ` ` ` ` ......................=.:.:.=.............T 9 > ",
"> 9 T ............@.&.&.@...............................................................................&.&.@.............T 9 > ",
"> 9 T ..............} } ................................................................................} } ..............T 9 > ",
"> 9 T ....................................................................................................................T 9 > ",
"> 9 T ....................................................................................................................T 9 > ",
"> 9 T ....................................................................................................................T 9 > ",
"> 9 T ....................................................................................................................T 9 > ",
"> 9 T ....................................................................................................................T 9 > ",
"> 9 T ....................................................................................................................T 9 > ",
"> 9 T ....................................................................................................................T 9 > ",
"> 9 T ....................................................................................................................T 9 > ",
"> 9 T ....................................................................................................................T 9 > ",
"> 9 T ....................................................................................................................T 9 > ",
"> 9 T ....................................................................................................................T 9 > ",
"> 9 T ....................................................................................................................T 9 > ",
"> 9 T ....................................................................................................................T 9 > ",
"> 9 T ....................................................................................................................T 9 > ",
"> 9 T ....................................................................................................................T 9 > ",
"> 9 T ....................................................................................................................T 9 > ",
"> 9 T ....................................................................................................................T 9 > ",
"> 9 T ....................................................................................................................T 9 > ",
"> 9 T ....................................................................................................................T 9 > "
};
