/* XPM */
static const char *airlock_13[] = {
/* columns rows colors chars-per-pixel */
"64 64 124 2 ",
"   c #16161A",
".  c #17181C",
"X  c #1A1B1E",
"o  c #1D1E22",
"O  c #1E1C2B",
"+  c #201E2F",
"@  c #211F30",
"#  c #1F2024",
"$  c #222325",
"%  c #242429",
"&  c #27282C",
"*  c #2A2B2B",
"=  c #252334",
"-  c #2A2B32",
";  c #272539",
":  c #29263C",
">  c #2A283F",
",  c #2E3037",
"<  c #2F3138",
"1  c #323437",
"2  c #33353B",
"3  c #37393E",
"4  c #383A3E",
"5  c #2B2840",
"6  c #312F45",
"7  c #302E47",
"8  c #322F49",
"9  c #323145",
"0  c #313046",
"q  c #323046",
"w  c #323146",
"e  c #323147",
"r  c #383A40",
"t  c #383A42",
"y  c #3A3C43",
"u  c #3B3D43",
"i  c #3A3C45",
"p  c #3B3D45",
"a  c #3C3E44",
"s  c #3D3F44",
"d  c #3C3E45",
"f  c #3D3F45",
"g  c #3D3F47",
"h  c #333248",
"j  c #32304A",
"k  c #33304A",
"l  c #33304C",
"z  c #34314C",
"x  c #34314D",
"c  c #35324D",
"v  c #35324E",
"b  c #33304C",
"n  c #38364F",
"m  c #383650",
"M  c #383751",
"N  c #393751",
"B  c #383453",
"V  c #383553",
"C  c #393654",
"Z  c #3B3756",
"A  c #3C3A57",
"S  c #3C3859",
"D  c #3C3959",
"F  c #3D3A58",
"G  c #3D3B58",
"H  c #3E3C5A",
"J  c #3F3C5B",
"K  c #3E3B5C",
"L  c #3F3B5C",
"P  c #3F3D5C",
"I  c #3C3959",
"U  c #403D5D",
"Y  c #403D5E",
"T  c #403D5F",
"R  c #403E5E",
"E  c #413E5E",
"W  c #413E5F",
"Q  c #423F60",
"!  c #423E61",
"~  c #423F62",
"^  c #3F4148",
"/  c #3E4149",
"(  c #3F4248",
")  c #3F424A",
"_  c #404249",
"`  c #42444C",
"'  c #434064",
"]  c #444064",
"[  c #444065",
"{  c #444165",
"}  c #454166",
"|  c #454266",
" . c #464267",
".. c #464367",
"X. c #444065",
"o. c #474469",
"O. c #464268",
"+. c #48446A",
"@. c #49456B",
"#. c #49456C",
"$. c #4B476F",
"%. c #4A466E",
"&. c #4B486F",
"*. c #4C4870",
"=. c #4C4871",
"-. c #4C4872",
";. c #4D4972",
":. c #4D4973",
">. c #4E4A73",
",. c #4E4A74",
"<. c #4E4A75",
"1. c #4F4A75",
"2. c #4F4B75",
"3. c #4F4B76",
"4. c #4D4972",
"5. c #524E79",
"6. c #54507C",
"7. c #5B5786",
"8. c #605C8D",
"9. c #635E91",
"0. c #666195",
"q. c #6C679D",
"w. c None",
"e. c black",
/* pixels */
"5 5 5 5 5 5 5 5 > > > 5 5 5 5 5 5 5 5 5 > > > 5 5 5 5 5 5 5 5 5 > > 5 5 5 5 5 5 5 5 5 5 > > > 5 5 5 5 5 5 5 5 5 5 5 5 5 5 5 5 5 ",
"5 5 B D D D D D D D D D D D D D D D D D D D D D D D D D D D D D D D D D D D D D D D D D D D D D D D D D D D D D D D D D D B 5 5 ",
"> l { :.:.:.:.:.:.:.:.:.:.:.:.:.:.:.:.:.:.:.:.:.:.:.:.:.:.:.:.:.:.:.:.:.:.:.:.:.:.:.:.:.:.:.:.:.:.:.:.:.:.:.:.:.:.:.:.:.:.{ l > ",
"> l { :.:.:.:.:.:.:.:.:.:.:.:.:.:.:.:.:.:.:.:.:.:.:.:.:.:.:.:.:.:.:.:.:.:.:.:.:.:.:.:.:.:.:.:.:.:.:.:.:.:.:.:.:.:.:.:.:.:.{ l > ",
"> l { :.:.:.:.:.:.:.:.:.:.:.:.:.:.:.:.:.:.:.:.:.:.:.:.:.:.:.:.:.:.:.:.:.:.:.:.:.:.:.:.:.:.:.:.:.:.:.:.:.:.:.:.:.:.:.:.:.:.{ l > ",
"> l { :.:.:.:.:.:.:.:.:.:.:.:.:.:.:.:.:.:.:.:.:.:.:.:.:.:.:.:.:.:.:.:.:.:.:.:.:.:.:.:.:.:.:.:.:.:.:.:.:.:.:.:.:.:.:.:.:.:.{ l > ",
"> l { :.:.:.:.:.:.:.:.:.:.:.:.:.:.:.:.:.:.:.:.:.:.:.:.:.:.:.:.:.:.:.:.:.:.:.:.:.:.:.:.:.:.:.:.:.:.:.:.:.:.:.:.:.:.:.:.:.:.{ l > ",
"> l { :.:.:.:.:.:.:.:.:.:.:.:.:.:.:.:.:.:.:.:.:.1.o.B 6 6 6 q q q q 6 6 6 B o.1.:.:.:.:.:.:.:.:.:.:.:.:.:.:.:.:.:.:.:.:.:.{ l > ",
"> l { :.:.:.:.:.:.:.:.:.:.:.:.:.:.:.:.:.:.:.:.$.{ B & o % % o o o o % % o & B { $.:.:.:.:.:.:.:.:.:.:.:.:.:.:.:.:.:.:.:.:.{ l > ",
"> l { :.:.:.:.:.:.:.:.:.:.:.:.:.:.:.:.:.:.:.:.Q > $ $ * a a * $ $ * a a * $ $ > Q :.:.:.:.:.:.:.:.:.:.:.:.:.:.:.:.:.:.:.:.{ l > ",
"> l { :.:.:.:.:.:.:.:.:.:.:.:.:.:.:.:.:.1.+.B : $ $ 1 4 2 - $ X X $ - 2 4 1 $ $ : B +.1.:.:.:.:.:.:.:.:.:.:.:.:.:.:.:.:.:.{ l > ",
"> l { :.:.:.:.:.:.:.:.:.:.:.:.:.:.:.:.$.{ B & o & 1 _ y $   X X X X   $ y _ 1 & o & n { $.:.:.:.:.:.:.:.:.:.:.:.:.:.:.:.:.{ l > ",
"> l { :.:.:.:.:.:.:.:.:.:.:.:.:.:.:.:.W > $ $ * a ` t - o X $ & & $ X o - t ` a * $ $ > Q :.:.:.:.:.:.:.:.:.:.:.:.:.:.:.:.{ l > ",
"> l { :.:.:.:.:.:.:.:.:.:.:.:.:.:.{ n : $ $ 2 a a i 2 - o X % * * % X o - 2 i a a 2 $ $ : n { :.:.:.:.:.:.:.:.:.:.:.:.:.:.{ l > ",
"> l { :.:.:.:.:.:.:.:.:.:.:.:.:.:.W = o & 1 y y , - - & # o $ % % $ o # & - - , y y 1 & o = W :.:.:.:.:.:.:.:.:.:.:.:.:.:.{ l > ",
"> l { :.:.:.:.:.:.:.:.:.:.:.:.:.:.W = & y a & o X X X o & % o X X o % & o X X X o & a y & = W :.:.:.:.:.:.:.:.:.:.:.:.:.:.{ l > ",
"> l { :.:.:.:.:.:.:.:.:.:.:.:.:.:.W = $ - - o . o $ $ $ $ $ $ $ $ $ $ $ $ $ $ X . o - - $ = W :.:.:.:.:.:.:.:.:.:.:.:.:.:.{ l > ",
"> l { :.:.:.:.:.:.:.:.:.:.:.:.:.:.W = X o X X X % & & % X X % * & % X X % & & % X . X $ X = W :.:.:.:.:.:.:.:.:.:.:.:.:.:.{ l > ",
"> l { :.:.:.:.:.:.:.:.:.:.:.:.:.:.W = o $ $ X X % & & % X X % & & % X X % & & % X X $ $ o = W :.:.:.:.:.:.:.:.:.:.:.:.:.:.{ l > ",
"> l { :.:.:.:.:.:.:.:.:.:.:.:.:.:.W = % 2 2 #   X X o # $ $ # X X # $ $ $ X X X   # 2 2 % = W :.:.:.:.:.:.:.:.:.:.:.:.:.:.{ l > ",
"> l { :.:.:.:.:.:.:.:.:.:.:.:.:.:.W = % 4 y - $ o o o # % % o X X o % % # o o o $ - y 4 % = W :.:.:.:.:.:.:.:.:.:.:.:.:.:.{ l > ",
"> l { :.:.:.:.:.:.:.:.:.:.:.:.:.:.W ; o $ - ^ ) 3 , , * o X % & & % X o - , , 3 ) a - $ o ; W :.:.:.:.:.:.:.:.:.:.:.:.:.:.{ l > ",
"> l { :.:.:.:.:.:.:.:.:.:.:.:.:.:.+.P q $ $ * 4 ) ) 3 - o X % * & % X o - 3 ) ) 4 * $ $ q P +.:.:.:.:.:.:.:.:.:.:.:.:.:.:.{ l > ",
"> l { :.:.:.:.:.:.:.:.:.:.:.:.:.:.:.1.{ q = $ & 4 ) i , o X $ % % $ X o < i ) 4 % $ = q { 1.:.:.:.:.:.:.:.:.:.:.:.:.:.:.:.{ l > ",
"> l { :.:.:.:.:.:.:.:.:.:.:.:.:.:.:.:.:.$.J ; o $ - ) a & . X X X X . & a ) - $ o ; J $.:.:.:.:.:.:.:.:.:.:.:.:.:.:.:.:.:.{ l > ",
"5 x { 1.1.1.1.1.1.1.1.1.1.1.1.1.1.1.1.1.1.$.W q $ $ * 2 t 2 & X X & 2 t 2 * $ $ q W $.1.1.1.1.1.1.:.1.1.1.1.1.1.1.1.1.1.1.{ x 5 ",
"; 5 B K K K K K K K K K K K K K K K K K W { :.{ h = $ & 4 4 & X X & 4 4 & $ = h { :.{ W K K K K K K K K K K K K K K K K K B 5 ; ",
"O O + @ @ @ @ @ @ @ @ @ @ @ @ @ @ + + = = 6 Q :.$.J ; o $ $ # o o # $ $ o ; J $.:.Q 6 = = + + @ @ @ @ @ @ @ @ @ @ @ @ @ @ + O O ",
"w.w.w.w.w.w.w.w.w.w.w.w.w.w.w.w.w.w.w.O O = 5 C $.&.Q A A A D D D D A A A Q &.$.C 5 = O O w.w.w.w.w.w.w.w.w.w.w.w.w.w.w.w.w.w.w.",
"w.w.w.w.w.w.w.w.w.w.w.w.w.w.w.w.w.w.w.w.O O + : C Q Q Q Q Q Q Q Q Q Q Q Q Q Q C : + O O w.w.w.w.w.w.w.w.w.w.w.w.w.w.w.w.w.w.w.w.",
"w.w.w.w.w.w.w.w.w.w.w.w.w.w.w.w.w.w.w.w.w.w.O + = ; ; ; ; ; ; ; ; ; ; ; ; ; ; = + O w.w.w.w.w.w.w.w.w.w.w.w.w.w.w.w.w.w.w.w.w.w.",
"w.w.w.w.w.w.w.w.w.w.w.w.w.w.w.w.w.w.w.w.w.w.w.w.O O O O O O O O O O O O O O O O w.w.w.w.w.w.w.w.w.w.w.w.w.w.w.w.w.w.w.w.w.w.w.w.",
"w.w.w.w.w.w.w.w.w.w.w.w.w.w.w.w.w.w.w.w.w.w.w.w.O O O O O O O O O O O O O O O O w.w.w.w.w.w.w.w.w.w.w.w.w.w.w.w.w.w.w.w.w.w.w.w.",
"w.w.w.w.w.w.w.w.w.w.w.w.w.w.w.w.w.w.w.w.w.w.w.w.w.w.w.w.w.w.w.w.w.w.w.w.w.w.w.w.w.w.w.w.w.w.w.w.w.w.w.w.w.w.w.w.w.w.w.w.w.w.w.w.",
"w.w.w.w.w.w.w.w.w.w.w.w.w.w.w.w.w.w.w.w.w.w.w.w.w.w.w.w.w.w.w.w.w.w.w.w.w.w.w.w.w.w.w.w.w.w.w.w.w.w.w.w.w.w.w.w.w.w.w.w.w.w.w.w.",
"w.w.w.w.w.w.w.w.w.w.w.w.w.w.w.w.w.w.w.w.w.w.w.w.w.w.w.w.w.w.w.w.w.w.w.w.w.w.w.w.w.w.w.w.w.w.w.w.w.w.w.w.w.w.w.w.w.w.w.w.w.w.w.w.",
"w.w.w.w.w.w.w.w.w.w.w.w.w.w.w.w.w.w.w.w.w.w.w.w.w.w.w.w.w.w.w.w.w.w.w.w.w.w.w.w.w.w.w.w.w.w.w.w.w.w.w.w.w.w.w.w.w.w.w.w.w.w.w.w.",
"w.w.w.w.w.w.w.w.w.w.w.w.w.w.w.w.w.w.w.w.w.w.w.w.w.w.w.w.w.w.w.w.w.w.w.w.w.w.w.w.w.w.w.w.w.w.w.w.w.w.w.w.w.w.w.w.w.w.w.w.w.w.w.w.",
"w.w.w.w.w.w.w.w.w.w.w.w.w.w.w.w.w.w.w.w.w.w.w.w.w.w.w.w.w.w.w.w.w.w.w.w.w.w.w.w.w.w.w.w.w.w.w.w.w.w.w.w.w.w.w.w.w.w.w.w.w.w.w.w.",
"w.w.w.w.w.w.w.w.w.w.w.w.w.w.w.w.w.w.w.w.w.w.w.w.w.w.w.w.w.w.w.w.w.w.w.w.w.w.w.w.w.w.w.w.w.w.w.w.w.w.w.w.w.w.w.w.w.w.w.w.w.w.w.w.",
"w.w.w.w.w.w.w.w.w.w.w.w.w.w.w.w.w.w.w.w.w.w.w.w.w.w.w.w.w.w.w.w.w.w.w.w.w.w.w.w.w.w.w.w.w.w.w.w.w.w.w.w.w.w.w.w.w.w.w.w.w.w.w.w.",
"w.w.w.w.w.w.w.w.w.w.w.w.w.w.w.w.w.w.w.w.w.w.w.w.w.w.w.w.w.w.w.w.w.w.w.w.w.w.w.w.w.w.w.w.w.w.w.w.w.w.w.w.w.w.w.w.w.w.w.w.w.w.w.w.",
"w.w.w.w.w.w.w.w.w.w.w.w.w.w.w.w.w.w.w.w.w.w.w.w.w.w.w.w.w.w.w.w.w.w.w.w.w.w.w.w.w.w.w.w.w.w.w.w.w.w.w.w.w.w.w.w.w.w.w.w.w.w.w.w.",
"w.w.w.w.w.w.w.w.w.w.w.w.w.w.w.w.w.w.w.w.w.w.w.w.w.w.w.w.w.w.w.w.w.w.w.w.w.w.w.w.w.w.w.w.w.w.w.w.w.w.w.w.w.w.w.w.w.w.w.w.w.w.w.w.",
"w.w.w.w.w.w.w.w.w.w.w.w.w.w.w.w.w.w.w.w.w.w.w.w.w.w.w.w.w.w.w.w.w.w.w.w.w.w.w.w.w.w.w.w.w.w.w.w.w.w.w.w.w.w.w.w.w.w.w.w.w.w.w.w.",
"w.w.w.w.w.w.w.w.w.w.w.w.w.w.w.w.w.w.w.w.w.w.w.w.w.w.w.w.w.w.w.w.w.w.w.w.w.w.w.w.w.w.w.w.w.w.w.w.w.w.w.w.w.w.w.w.w.w.w.w.w.w.w.w.",
"5 : ; = = = = = = = = = = = = = = = = = w.w.w.w.w.w.w.w.w.w.w.w.w.w.w.w.w.w.w.w.w.w.w.w.= = = = = = = = = = = = = = = = = ; : 5 ",
"5 5 h x x x x x x x x x x x x x x x x h > w.w.w.w.w.w.w.w.w.w.w.w.w.w.w.w.w.w.w.w.w.w.> h x x x x x x x x x x x x x x x x h 5 5 ",
"> l { :.:.:.:.:.1.1.1.1.1.1.:.:.:.:.:.' 8 ; w.w.w.w.w.w.w.w.w.w.w.w.w.w.w.w.w.w.w.w.; 8 ' :.:.:.:.:.:.1.1.1.1.:.:.:.&.:.:.] l > ",
": l { :.:.:.:.5.8.0.0.0.0.8.5.:.:.:.:.$.{ D 5 = w.w.w.w.w.w.w.w.w.w.w.w.w.w.w.w.= 5 D O.$.:.:.:.:.5.8.0.0.0.0.8.5.:.:.:.:.{ l : ",
"> l { :.:.:.:.5.7.0.q.q.0.7.5.:.:.:.:.:.1.+.D h > w.w.w.w.w.w.w.w.w.w.w.w.w.w.> h A +.:.:.:.:.:.:.5.7.0.q.q.0.7.5.:.:.:.:.{ l > ",
"> l { :.:.:.:.:.:.6.9.9.6.:.:.:.:.:.:.:.:.:.:.{ h : : > > > > > > > > > > : : h ] :.:.:.:.:.:.:.:.:.:.6.9.9.6.:.:.:.:.:.:.{ l > ",
"> l { :.:.:.:.:.:.:.5.5.:.:.:.:.:.:.:.:.:.:.:.$.{ ' ' { { { ] ] { { { { { ' ' { $.:.:.:.:.:.:.:.:.:.:.:.5.5.1.:.:.:.:.:.:.{ l > ",
"> l { :.:.:.:.:.:.:.&.&.:.:.:.:.:.:.:.:.:.:.:.:.:.1.1.1.1.:.:.:.1.1.1.1.1.1.1.:.:.:.:.:.:.:.:.:.:.:.:.:.:.:.:.:.:.:.:.:.:.{ l > ",
"> l { :.:.:.:.:.:.:.:.:.:.:.:.:.:.:.:.:.:.:.:.:.:.:.:.:.:.:.:.:.:.:.:.:.:.:.:.:.:.:.:.:.:.:.:.:.:.:.:.:.:.:.:.:.:.:.:.:.:.{ l > ",
"> l { :.:.:.:.:.:.:.:.:.:.:.:.:.:.:.:.:.:.:.:.:.:.:.:.:.:.:.:.:.:.:.:.:.:.:.:.:.:.:.:.:.:.:.:.:.:.:.:.:.:.:.:.:.:.:.:.:.:.{ l > ",
"> l { :.:.:.:.:.:.:.:.:.:.:.:.:.:.:.:.:.:.:.:.:.:.:.:.:.:.:.:.:.:.:.:.:.:.:.:.:.:.:.:.:.:.:.:.:.:.:.:.:.:.:.:.:.:.:.:.:.:.{ l > ",
"> l { :.:.:.:.:.:.:.:.:.:.:.:.:.:.:.:.:.:.:.:.:.:.:.:.:.:.:.:.:.:.:.:.:.:.:.:.:.:.:.:.:.:.:.:.:.:.:.:.:.:.:.:.:.:.:.:.:.:.{ l > ",
"> l { :.:.:.:.:.:.:.:.:.:.:.:.:.:.:.:.:.:.:.:.:.:.:.:.:.:.:.:.:.:.:.:.:.:.:.:.:.:.:.:.:.:.:.:.:.:.:.:.:.:.:.:.:.:.:.:.:.:.{ l > ",
"> l { :.:.:.:.:.:.:.:.:.:.:.:.:.:.:.:.:.:.:.:.:.:.:.:.:.:.:.:.:.:.:.:.:.:.:.:.:.:.:.:.:.:.:.:.:.:.:.:.:.:.:.:.:.:.:.:.:.:.{ l > ",
"> l { :.:.:.:.:.:.:.:.:.:.:.:.:.:.:.:.:.:.:.:.:.:.:.:.:.:.:.:.:.:.:.:.:.:.:.:.:.:.:.:.:.:.:.:.:.:.:.:.:.:.:.:.:.:.:.:.:.:.{ l > ",
"> l { :.:.:.:.:.:.:.:.:.:.:.:.:.:.:.:.:.:.:.:.:.:.:.:.:.:.:.:.:.:.:.:.:.:.:.:.:.:.:.:.:.:.:.:.:.:.:.:.:.:.:.:.:.:.:.:.:.:.{ l > ",
"> l { :.:.:.:.:.:.:.:.:.:.:.:.:.:.:.:.:.:.:.:.:.:.:.:.:.:.:.:.:.:.:.:.:.:.:.:.:.:.:.:.:.:.:.:.:.:.:.:.:.:.:.:.:.:.:.:.:.:.{ l > ",
"> l { :.:.:.:.:.:.:.:.:.:.:.:.:.:.:.:.:.:.:.:.:.:.:.:.:.:.:.:.:.:.:.:.:.:.:.:.:.:.:.:.:.:.:.:.:.:.:.:.:.:.:.:.:.:.:.:.:.:.{ l > "
};
