/* XPM */
static const char *airlock_16[] = {
/* columns rows colors chars-per-pixel */
"64 64 116 2 ",
"   c #16171A",
".  c #17181B",
"X  c #1A1B1E",
"o  c #1D1E22",
"O  c #1E1C2B",
"+  c #201F2E",
"@  c #211F30",
"#  c #1F2023",
"$  c #222325",
"%  c #23242A",
"&  c #27282C",
"*  c #2A2A2B",
"=  c #242334",
"-  c #282736",
";  c #2B2C33",
":  c #272439",
">  c #29263C",
",  c #2A283F",
"<  c #2F3034",
"1  c #313235",
"2  c #33343B",
"3  c #37393E",
"4  c #393A3F",
"5  c #2C2941",
"6  c #302F43",
"7  c #322F49",
"8  c #343445",
"9  c #3B3D43",
"0  c #33304B",
"q  c #33304C",
"w  c #34314C",
"e  c #34314D",
"r  c #36334F",
"t  c #33304C",
"y  c #363450",
"u  c #373451",
"i  c #383453",
"p  c #393753",
"a  c #3A3753",
"s  c #3A3756",
"d  c #3B3756",
"f  c #3A3853",
"g  c #3A3854",
"h  c #3B3954",
"j  c #3C3859",
"k  c #3C3959",
"l  c #3D3A58",
"z  c #3D3B59",
"x  c #3D395A",
"c  c #3E3A5B",
"v  c #3F3C5B",
"b  c #3E3A5C",
"n  c #3D3A5A",
"m  c #403D5D",
"M  c #403D5E",
"N  c #403D5F",
"B  c #403E5E",
"V  c #413E5E",
"C  c #413D60",
"Z  c #423F62",
"A  c #3E4047",
"S  c #3D4048",
"D  c #3E4148",
"F  c #3F4148",
"G  c #404248",
"H  c #404249",
"J  c #41434B",
"K  c #434062",
"L  c #434064",
"P  c #444064",
"I  c #444164",
"U  c #444065",
"Y  c #444165",
"T  c #444166",
"R  c #454266",
"E  c #464267",
"W  c #454166",
"Q  c #464368",
"!  c #474368",
"~  c #474469",
"^  c #47446A",
"/  c #474369",
"(  c #48446A",
")  c #4A466D",
"_  c #4A466E",
"`  c #4A476E",
"'  c #4B476F",
"]  c #4A466D",
"[  c #4B4770",
"{  c #4C4870",
"}  c #4C4871",
"|  c #4D4971",
" . c #4C4872",
".. c #4D4872",
"X. c #4D4972",
"o. c #4D4973",
"O. c #4E4973",
"+. c #4E4A73",
"@. c #4E4A74",
"#. c #4F4B75",
"$. c #4D4972",
"%. c #504B76",
"&. c #504C76",
"*. c #514C77",
"=. c #514D78",
"-. c #534F7B",
";. c #524E7A",
":. c #5A5584",
">. c #615C8E",
",. c #625D8F",
"<. c #635E91",
"1. c #676297",
"2. c #686398",
"3. c #6B669D",
"4. c None",
"5. c black",
/* pixels */
"5 5 5 5 5 5 5 5 , , 5 5 5 5 5 5 5 5 5 5 5 5 5 5 5 5 5 5 5 5 5 5 5 5 5 5 5 5 5 5 5 5 5 5 5 5 5 5 5 5 5 5 5 5 5 5 5 5 5 5 5 5 5 5 ",
"5 5 i k k k k k k k k k k k k k k k k k b u > = % - 8 8 - + + % % + + - 8 8 - % = > u b k k k k k k k k k k k k k k k k k i 5 5 ",
", q Y o.o.o.o.o.o.o.o.o.o.o.o.o.o.o.o.o.~ f - o % 1 J 9 %   . . . .   % 9 J 1 % o - f ~ o.o.o.o.o.o.o.o.o.o.o.o.o.o.o.o.o.Y q , ",
", q Y o.o.o.o.o.o.o.o.o.o.o.o.o.o.o.o.K , % $ & 9 J 9 ; o . $ % % $ . o ; 9 J 9 & $ % , K o.o.o.o.o.o.o.o.o.o.o.o.o.o.o.o.Y q , ",
", q Y o.o.o.o.o.o.o.o.o.o.o.o.o.o.! i , $ $ 1 9 A 9 3 ; o . % * * % . o ; 3 9 A 9 1 $ $ , i ! o.o.o.o.o.o.o.o.o.o.o.o.o.o.Y q , ",
", q Y o.o.o.o.o.o.o.o.o.o.o.o.o.o.B - o % 1 9 9 1 ; ; & # o $ % % $ o # & ; ; 1 9 9 1 % o - B o.o.o.o.o.o.o.o.o.o.o.o.o.o.Y q , ",
", q Y o.o.o.o.o.o.o.o.o.o.o.o.o.o.B - % 9 9 & o o . . # % % o . . o % % o . . . o & 9 9 % - B o.o.o.o.o.o.o.o.o.o.o.o.o.o.Y q , ",
", q Y o.o.o.o.o.o.o.o.o.o.o.o.o.o.B - $ < < o . o $ $ $ $ $ $ $ $ $ $ $ $ $ $ X . o < < $ - B o.o.o.o.o.o.o.o.o.o.o.o.o.o.Y q , ",
", q Y o.o.o.o.o.o.o.o.o.o.o.o.o.o.B - o $ o . X % * * % . . % * * % . . % * * % X . o $ o - B o.o.o.o.o.o.o.o.o.o.o.o.o.o.Y q , ",
", q Y o.o.o.o.o.o.o.o.o.o.o.o.o.o.B - o $ $ . X % * * % . . % * * % . . % * * % X . $ $ o - B o.o.o.o.o.o.o.o.o.o.o.o.o.o.Y q , ",
", q Y o.o.o.o.o.o.o.o.o.o.o.o.o.o.B - % 2 1 o   X o o # $ $ $ o o $ $ $ $ o # X   o 1 2 % - B o.o.o.o.o.o.o.o.o.o.o.o.o.o.Y q , ",
", q Y o.o.o.o.o.o.o.o.o.o.o.o.o.o.B - % 9 9 ; $ o o o # % % o . . o % % $ o o o $ ; 9 9 % - B o.o.o.o.o.o.o.o.o.o.o.o.o.o.Y q , ",
", q Y o.o.o.o.o.o.o.o.o.o.o.o.o.o.B - o $ ; 9 S 2 ; ; ; # X % * * % X o ; ; ; 2 A 9 ; $ o - B o.o.o.o.o.o.o.o.o.o.o.o.o.o.Y q , ",
", q Y o.o.o.o.o.o.o.o.o.o.o.o.o.o.( k 6 % $ ; 4 S S 3 ; o X % * * % . o ; 3 S S 4 ; $ % 6 k ( o.o.o.o.o.o.o.o.o.o.o.o.o.o.Y q , ",
", q Y o.o.o.o.o.o.o.o.o.o.o.o.o.o.o.@.Y 6 % $ & 4 J 9 < o . $ % % $ . o < 9 J 4 & $ % 6 Y @.o.o.o.o.o.o.o.o.o.o.o.o.o.o.o.Y q , ",
", q Y o.o.o.o.o.o.o.o.o.o.o.o.o.o.o.o.o.) k - o $ < J 9 % . . . . . . % 9 J < $ o - k ) o.o.o.o.o.o.o.o.o.o.o.o.o.o.o.o.o.Y q , ",
"5 e Y @.@.@.@.@.@.@.@.@.@.@.@.@.@.@.@.@.%.) v 6 % $ ; 2 3 1 $ X X $ 1 3 2 ; $ % 6 v ) %.@.@.@.@.@.@.@.@.@.@.@.@.@.@.@.@.@.Y e 5 ",
": 5 d C C B B B B B B B B B B B B B B C C ! o.Y 8 % $ & 4 9 * o o * 9 4 & $ % 8 Y o.! C C B B B B B B B B B B B B B B C C d 5 : ",
"O + @ = = = = = = = = = = = = = = = = = : 7 L o.) k - o $ $ o o o o $ $ o - k ) o.L 7 : = = = = = = = = = = = = = = = = = @ + O ",
"4.4.4.4.4.4.4.4.4.4.4.4.4.4.4.4.4.4.4.O O = 5 k ) ) B f i f h h h h f i f B ) ) k 5 = O O 4.4.4.4.4.4.4.4.4.4.4.4.4.4.4.4.4.4.4.",
"4.4.4.4.4.4.4.4.4.4.4.4.4.4.4.4.4.4.4.4.O O + , d L Y Y Y Y Y Y Y Y Y Y Y Y L d , + O O 4.4.4.4.4.4.4.4.4.4.4.4.4.4.4.4.4.4.4.4.",
"4.4.4.4.4.4.4.4.4.4.4.4.4.4.4.4.4.4.4.4.4.4.O + - > > > > > > > > > > > > > > - + O 4.4.4.4.4.4.4.4.4.4.4.4.4.4.4.4.4.4.4.4.4.4.",
"4.4.4.4.4.4.4.4.4.4.4.4.4.4.4.4.4.4.4.4.4.4.4.O O O O O O O O O O O O O O O O O O 4.4.4.4.4.4.4.4.4.4.4.4.4.4.4.4.4.4.4.4.4.4.4.",
"4.4.4.4.4.4.4.4.4.4.4.4.4.4.4.4.4.4.4.4.4.4.4.4.O O O O O O O O O O O O O O O O 4.4.4.4.4.4.4.4.4.4.4.4.4.4.4.4.4.4.4.4.4.4.4.4.",
"4.4.4.4.4.4.4.4.4.4.4.4.4.4.4.4.4.4.4.4.4.4.4.4.4.4.4.4.4.4.4.4.4.4.4.4.4.4.4.4.4.4.4.4.4.4.4.4.4.4.4.4.4.4.4.4.4.4.4.4.4.4.4.4.",
"4.4.4.4.4.4.4.4.4.4.4.4.4.4.4.4.4.4.4.4.4.4.4.4.4.4.4.4.4.4.4.4.4.4.4.4.4.4.4.4.4.4.4.4.4.4.4.4.4.4.4.4.4.4.4.4.4.4.4.4.4.4.4.4.",
"4.4.4.4.4.4.4.4.4.4.4.4.4.4.4.4.4.4.4.4.4.4.4.4.4.4.4.4.4.4.4.4.4.4.4.4.4.4.4.4.4.4.4.4.4.4.4.4.4.4.4.4.4.4.4.4.4.4.4.4.4.4.4.4.",
"4.4.4.4.4.4.4.4.4.4.4.4.4.4.4.4.4.4.4.4.4.4.4.4.4.4.4.4.4.4.4.4.4.4.4.4.4.4.4.4.4.4.4.4.4.4.4.4.4.4.4.4.4.4.4.4.4.4.4.4.4.4.4.4.",
"4.4.4.4.4.4.4.4.4.4.4.4.4.4.4.4.4.4.4.4.4.4.4.4.4.4.4.4.4.4.4.4.4.4.4.4.4.4.4.4.4.4.4.4.4.4.4.4.4.4.4.4.4.4.4.4.4.4.4.4.4.4.4.4.",
"4.4.4.4.4.4.4.4.4.4.4.4.4.4.4.4.4.4.4.4.4.4.4.4.4.4.4.4.4.4.4.4.4.4.4.4.4.4.4.4.4.4.4.4.4.4.4.4.4.4.4.4.4.4.4.4.4.4.4.4.4.4.4.4.",
"4.4.4.4.4.4.4.4.4.4.4.4.4.4.4.4.4.4.4.4.4.4.4.4.4.4.4.4.4.4.4.4.4.4.4.4.4.4.4.4.4.4.4.4.4.4.4.4.4.4.4.4.4.4.4.4.4.4.4.4.4.4.4.4.",
"4.4.4.4.4.4.4.4.4.4.4.4.4.4.4.4.4.4.4.4.4.4.4.4.4.4.4.4.4.4.4.4.4.4.4.4.4.4.4.4.4.4.4.4.4.4.4.4.4.4.4.4.4.4.4.4.4.4.4.4.4.4.4.4.",
"4.4.4.4.4.4.4.4.4.4.4.4.4.4.4.4.4.4.4.4.4.4.4.4.4.4.4.4.4.4.4.4.4.4.4.4.4.4.4.4.4.4.4.4.4.4.4.4.4.4.4.4.4.4.4.4.4.4.4.4.4.4.4.4.",
"4.4.4.4.4.4.4.4.4.4.4.4.4.4.4.4.4.4.4.4.4.4.4.4.4.4.4.4.4.4.4.4.4.4.4.4.4.4.4.4.4.4.4.4.4.4.4.4.4.4.4.4.4.4.4.4.4.4.4.4.4.4.4.4.",
"4.4.4.4.4.4.4.4.4.4.4.4.4.4.4.4.4.4.4.4.4.4.4.4.4.4.4.4.4.4.4.4.4.4.4.4.4.4.4.4.4.4.4.4.4.4.4.4.4.4.4.4.4.4.4.4.4.4.4.4.4.4.4.4.",
"4.4.4.4.4.4.4.4.4.4.4.4.4.4.4.4.4.4.4.4.4.4.4.4.4.4.4.4.4.4.4.4.4.4.4.4.4.4.4.4.4.4.4.4.4.4.4.4.4.4.4.4.4.4.4.4.4.4.4.4.4.4.4.4.",
"4.4.4.4.4.4.4.4.4.4.4.4.4.4.4.4.4.4.4.4.4.4.4.4.4.4.4.4.4.4.4.4.4.4.4.4.4.4.4.4.4.4.4.4.4.4.4.4.4.4.4.4.4.4.4.4.4.4.4.4.4.4.4.4.",
"4.4.4.4.4.4.4.4.4.4.4.4.4.4.4.4.4.4.4.4.4.4.4.4.4.4.4.4.4.4.4.4.4.4.4.4.4.4.4.4.4.4.4.4.4.4.4.4.4.4.4.4.4.4.4.4.4.4.4.4.4.4.4.4.",
"4.4.4.4.4.4.4.4.4.4.4.4.4.4.4.4.4.4.4.4.4.4.4.4.4.4.4.4.4.4.4.4.4.4.4.4.4.4.4.4.4.4.4.4.4.4.4.4.4.4.4.4.4.4.4.4.4.4.4.4.4.4.4.4.",
"4.4.4.4.4.4.4.4.4.4.4.4.4.4.4.4.4.4.4.4.4.4.4.4.4.4.4.4.4.4.4.4.4.4.4.4.4.4.4.4.4.4.4.4.4.4.4.4.4.4.4.4.4.4.4.4.4.4.4.4.4.4.4.4.",
"4.4.4.4.4.4.4.4.4.4.4.4.4.4.4.4.4.4.4.4.4.4.4.4.4.4.4.4.4.4.4.4.4.4.4.4.4.4.4.4.4.4.4.4.4.4.4.4.4.4.4.4.4.4.4.4.4.4.4.4.4.4.4.4.",
"4.4.4.4.4.4.4.4.4.4.4.4.4.4.4.4.4.4.4.4.4.4.4.4.4.4.4.4.4.4.4.4.4.4.4.4.4.4.4.4.4.4.4.4.4.4.4.4.4.4.4.4.4.4.4.4.4.4.4.4.4.4.4.4.",
"4.4.4.4.4.4.4.4.4.4.4.4.4.4.4.4.4.4.4.4.4.4.4.4.4.4.4.4.4.4.4.4.4.4.4.4.4.4.4.4.4.4.4.4.4.4.4.4.4.4.4.4.4.4.4.4.4.4.4.4.4.4.4.4.",
"4.4.4.4.4.4.4.4.4.4.4.4.4.4.4.4.4.4.4.4.4.4.4.4.4.4.4.4.4.4.4.4.4.4.4.4.4.4.4.4.4.4.4.4.4.4.4.4.4.4.4.4.4.4.4.4.4.4.4.4.4.4.4.4.",
"4.4.4.4.4.4.4.4.4.4.4.4.4.4.4.4.4.4.4.4.4.4.4.4.4.4.4.4.4.4.4.4.4.4.4.4.4.4.4.4.4.4.4.4.4.4.4.4.4.4.4.4.4.4.4.4.4.4.4.4.4.4.4.4.",
"4.4.4.4.4.4.4.4.4.4.4.4.4.4.4.4.4.4.4.4.4.4.4.4.4.4.4.4.4.4.4.4.4.4.4.4.4.4.4.4.4.4.4.4.4.4.4.4.4.4.4.4.4.4.4.4.4.4.4.4.4.4.4.4.",
"4.4.4.4.4.4.4.4.4.4.4.4.4.4.4.4.4.4.4.4.4.4.4.4.4.4.4.4.4.4.4.4.4.4.4.4.4.4.4.4.4.4.4.4.4.4.4.4.4.4.4.4.4.4.4.4.4.4.4.4.4.4.4.4.",
"4.4.4.4.4.4.4.4.4.4.4.4.4.4.4.4.4.4.4.4.4.4.4.4.4.4.4.4.4.4.4.4.4.4.4.4.4.4.4.4.4.4.4.4.4.4.4.4.4.4.4.4.4.4.4.4.4.4.4.4.4.4.4.4.",
"4.4.4.4.4.4.4.4.4.4.4.4.4.4.4.4.4.4.4.4.4.4.4.4.4.4.4.4.4.4.4.4.4.4.4.4.4.4.4.4.4.4.4.4.4.4.4.4.4.4.4.4.4.4.4.4.4.4.4.4.4.4.4.4.",
"4.4.4.4.4.4.4.4.4.4.4.4.4.4.4.4.4.4.4.4.4.4.4.4.4.4.4.4.4.4.4.4.4.4.4.4.4.4.4.4.4.4.4.4.4.4.4.4.4.4.4.4.4.4.4.4.4.4.4.4.4.4.4.4.",
"4.4.4.4.4.4.4.4.4.4.4.4.4.4.4.4.4.4.4.4.4.4.4.4.4.4.4.4.4.4.4.4.4.4.4.4.4.4.4.4.4.4.4.4.4.4.4.4.4.4.4.4.4.4.4.4.4.4.4.4.4.4.4.4.",
"4.4.4.4.4.4.4.4.4.4.4.4.4.4.4.4.4.4.4.4.4.4.4.4.4.4.4.4.4.4.4.4.4.4.4.4.4.4.4.4.4.4.4.4.4.4.4.4.4.4.4.4.4.4.4.4.4.4.4.4.4.4.4.4.",
"4.4.4.4.4.4.4.4.4.4.4.4.4.4.4.4.4.4.4.4.4.4.4.4.4.4.4.4.4.4.4.4.4.4.4.4.4.4.4.4.4.4.4.4.4.4.4.4.4.4.4.4.4.4.4.4.4.4.4.4.4.4.4.4.",
"4.4.4.4.4.4.4.4.4.4.4.4.4.4.4.4.4.4.4.4.4.4.4.4.4.4.4.4.4.4.4.4.4.4.4.4.4.4.4.4.4.4.4.4.4.4.4.4.4.4.4.4.4.4.4.4.4.4.4.4.4.4.4.4.",
"4.4.4.4.4.4.4.4.4.4.4.4.4.4.4.4.4.4.4.4.4.4.4.4.4.4.4.4.4.4.4.4.4.4.4.4.4.4.4.4.4.4.4.4.4.4.4.4.4.4.4.4.4.4.4.4.4.4.4.4.4.4.4.4.",
"5 > : = = = = = = = = = = = = = = = = = 4.4.4.4.4.4.4.4.4.4.4.4.4.4.4.4.4.4.4.4.4.4.4.4.= = = = = = = = = = = = = = = = = : > 5 ",
"5 5 e u u u u u e e e e e e r u u u u e , 4.4.4.4.4.4.4.4.4.4.4.4.4.4.4.4.4.4.4.4.4.4., w u u u u u e e e e e e u u u u u e 5 5 ",
", q Y o.o.o.o.o.&.&.-.-.&.&.o.o.o.o.o.Y 0 > 4.4.4.4.4.4.4.4.4.4.4.4.4.4.4.4.4.4.4.4.> 0 Y o.o.o.o.o.&.-.-.&.-.&.o.o.o.o.o.Y q , ",
", q Y o.o.o.o.-.>.2.1.1.2.>.-.o.o.o.o.[ ~ k 5 = 4.4.4.4.4.4.4.4.4.4.4.4.4.4.4.4.= 5 k ~ ) o.o.o.o.-.>.2.1.1.2.>.-.o.o.o.o.Y q , ",
", q Y o.o.o.o.&.:.<.3.3.<.:.&.o.o.o.o.o.@.( k e , 4.4.4.4.4.4.4.4.4.4.4.4.4.4., e k ( @.o.o.o.o.o.&.:.<.3.3.<.:.&.o.o.o.o.Y q , ",
", q Y o.o.o.o.o.o.-.>.>.-.o.o.o.o.o.o.o.o.o.o.Y q , , 5 5 5 5 5 5 5 5 5 5 , , q Y o.o.o.o.o.o.o.o.o.o.-.>.>.-.o.o.o.o.o.o.Y q , ",
", q Y o.o.o.o.o.o.o.-.-.o.o.o.o.o.o.o.o.o.o.o.) ! Y Y Y Y Y Y Y Y Y Y Y Y Y Y ! ) o.o.o.o.o.o.o.o.o.o.o.-.-.o.o.o.o.o.o.o.Y q , ",
", q Y o.o.o.o.o.o.o.o.o.o.o.o.o.o.o.o.o.o.o.o.o.o.@.@.@.@.@.@.@.@.@.@.@.@.@.@.o.o.o.o.o.o.o.o.o.o.o.o.o.o.o.o.o.o.o.o.o.o.Y q , ",
", q Y o.o.o.o.o.o.o.o.o.o.o.o.o.o.o.o.o.o.o.o.o.o.o.o.o.o.o.o.o.o.o.o.o.o.o.o.o.o.o.o.o.o.o.o.o.o.o.o.o.o.o.o.o.o.o.o.o.o.Y q , "
};
