/* XPM */
static const char *airlock_15[] = {
/* columns rows colors chars-per-pixel */
"64 64 128 2 ",
"   c #16171A",
".  c #17181C",
"X  c #1A1B1E",
"o  c #1D1E22",
"O  c #1E1C2B",
"+  c #211E2F",
"@  c #221F31",
"#  c #1F2023",
"$  c #222325",
"%  c #23242A",
"&  c #27282B",
"*  c #2A2A2B",
"=  c #242333",
"-  c #282735",
";  c #2B2D33",
":  c #262438",
">  c #29263C",
",  c #2A283F",
"<  c #2F3034",
"1  c #2F3139",
"2  c #323336",
"3  c #33353B",
"4  c #37393F",
"5  c #383A3F",
"6  c #2C2941",
"7  c #312F43",
"8  c #312F48",
"9  c #313045",
"0  c #3B3D46",
"q  c #3B3D44",
"w  c #3C3E44",
"e  c #3C3E45",
"r  c #3D3F45",
"t  c #3B3D43",
"y  c #33304A",
"u  c #33304C",
"i  c #33314C",
"p  c #34314C",
"a  c #34314D",
"s  c #35324E",
"d  c #35334F",
"f  c #36334F",
"g  c #33304C",
"h  c #363350",
"j  c #373450",
"k  c #373451",
"l  c #383453",
"z  c #393752",
"x  c #3A3655",
"c  c #3A3756",
"v  c #3A3853",
"b  c #3A3854",
"n  c #3B3855",
"m  c #3B3955",
"M  c #3B3956",
"N  c #3C3858",
"B  c #3C3859",
"V  c #3C3959",
"C  c #3D3B59",
"Z  c #3E3B59",
"A  c #3D395A",
"S  c #3E3C5A",
"D  c #3E3A5C",
"F  c #3F3D5C",
"G  c #3F3C5E",
"H  c #3D3A5A",
"J  c #403D5D",
"K  c #403C5E",
"L  c #403D5E",
"P  c #403D5F",
"I  c #403E5E",
"U  c #413E5E",
"Y  c #413E61",
"T  c #423F61",
"R  c #433F63",
"E  c #3D4047",
"W  c #3D4049",
"Q  c #3F4148",
"!  c #3F4149",
"~  c #3F4248",
"^  c #404248",
"/  c #404249",
"(  c #41444B",
")  c #434062",
"_  c #434063",
"`  c #434064",
"'  c #444064",
"]  c #444065",
"[  c #444165",
"{  c #454165",
"}  c #464266",
"|  c #464267",
" . c #444165",
".. c #464268",
"X. c #464368",
"o. c #474469",
"O. c #474369",
"+. c #48446A",
"@. c #48456A",
"#. c #4A466D",
"$. c #4A476E",
"%. c #4B476E",
"&. c #4B476F",
"*. c #4A466E",
"=. c #4C4870",
"-. c #4C4871",
";. c #4D4971",
":. c #4C4872",
">. c #4D4972",
",. c #4D4973",
"<. c #4E4A73",
"1. c #4E4A74",
"2. c #4E4A75",
"3. c #4F4B75",
"4. c #4F4B76",
"5. c #4D4972",
"6. c #504B76",
"7. c #504C77",
"8. c #514C77",
"9. c #514D77",
"0. c #534E7A",
"q. c #5A5685",
"w. c #615C8E",
"e. c #635E91",
"r. c #676397",
"t. c #6C679D",
"y. c None",
"u. c black",
/* pixels */
"6 6 6 6 6 6 6 6 , , , 6 6 6 6 6 6 6 6 6 6 6 6 6 6 6 6 6 6 6 6 6 6 6 6 6 6 6 6 6 6 6 6 6 6 , , 6 6 6 6 6 6 6 6 6 6 6 6 6 6 6 6 6 ",
"6 6 l V V V V V V V V V V V V V V V V V V V V V D k > = % = = = = = = % = > k D V V V V V V V V V V V V V V V V V V V V V l 6 6 ",
", u [ ,.,.,.,.,.,.,.,.,.,.,.,.,.,.,.,.,.,.,.,.,.o.v = o $ % # o o # % $ o = v o.,.,.,.,.,.,.,.,.,.,.,.,.,.,.,.,.,.,.,.,.,.[ u , ",
", u [ ,.,.,.,.,.,.,.,.,.,.,.,.,.,.,.,.,.,.,.,.) , $ $ * t t * $ $ * t t * $ $ , ) ,.,.,.,.,.,.,.,.,.,.,.,.,.,.,.,.,.,.,.,.[ u , ",
", u [ ,.,.,.,.,.,.,.,.,.,.,.,.,.,.,.,.,.1.+.v , $ $ 2 4 3 ; $ X X $ ; 3 4 2 $ $ , v +.1.,.,.,.,.,.,.,.,.,.,.,.,.,.,.,.,.,.[ u , ",
", u [ ,.,.,.,.,.,.,.,.,.,.,.,.,.,.,.,.&.X.l = o % 2 / q $   X X X X   $ q / 2 % o = l X.&.,.,.,.,.,.,.,.,.,.,.,.,.,.,.,.,.[ u , ",
", u [ ,.,.,.,.,.,.,.,.,.,.,.,.,.,.,.,.T , $ $ * t ( t ; o X $ & & $ X o ; t ( t * $ $ , T ,.,.,.,.,.,.,.,.,.,.,.,.,.,.,.,.[ u , ",
", u [ ,.,.,.,.,.,.,.,.,.,.,.,.,.,.X.l , $ $ 2 t E q 3 ; o X % * * % X o ; 3 q E t 2 $ $ , l X.,.,.,.,.,.,.,.,.,.,.,.,.,.,.[ u , ",
", u [ ,.,.,.,.,.,.,.,.,.,.,.,.,.,.J = o % 2 q q 1 ; ; & # X $ % % $ o # & ; ; 1 q q 2 % o = J ,.,.,.,.,.,.,.,.,.,.,.,.,.,.[ u , ",
", u [ ,.,.,.,.,.,.,.,.,.,.,.,.,.,.J - % t t & o o X X o % % o X X o % % o X X o o & r t % - J ,.,.,.,.,.,.,.,.,.,.,.,.,.,.[ u , ",
", u [ ,.,.,.,.,.,.,.,.,.,.,.,.,.,.J - $ < ; o . o $ $ $ $ $ $ $ $ $ $ $ $ $ $ o . o ; < $ - J ,.,.,.,.,.,.,.,.,.,.,.,.,.,.[ u , ",
", u [ ,.,.,.,.,.,.,.,.,.,.,.,.,.,.J - o # X X X % * * % X X % * * % X X % * * % X X X # o - J ,.,.,.,.,.,.,.,.,.,.,.,.,.,.[ u , ",
", u [ ,.,.,.,.,.,.,.,.,.,.,.,.,.,.J - o $ $ X X % * * % X X % * * % X X % * * % X X $ $ o - J ,.,.,.,.,.,.,.,.,.,.,.,.,.,.[ u , ",
", u [ ,.,.,.,.,.,.,.,.,.,.,.,.,.,.J - % 3 3 o   X X o # $ $ # o o # $ $ # o o X . o 3 3 % - J ,.,.,.,.,.,.,.,.,.,.,.,.,.,.[ u , ",
", u [ ,.,.,.,.,.,.,.,.,.,.,.,.,.,.J = % 5 t ; $ o o o # % % o X X o % % # o o o $ ; t 5 % = J ,.,.,.,.,.,.,.,.,.,.,.,.,.,.[ u , ",
", u [ ,.,.,.,.,.,.,.,.,.,.,.,.,.,.J - o $ ; r ! 3 ; ; ; o X % * & % X o ; ; ; 3 ! r ; $ o - J ,.,.,.,.,.,.,.,.,.,.,.,.,.,.[ u , ",
", u [ ,.,.,.,.,.,.,.,.,.,.,.,.,.,.+.S 7 $ $ ; 5 ! ! 3 ; o X % * * % X o ; 3 ! ! 5 ; $ $ 7 S +.,.,.,.,.,.,.,.,.,.,.,.,.,.,.[ u , ",
", u [ ,.,.,.,.,.,.,.,.,.,.,.,.,.,.,.1.[ 9 % $ & 5 ! q < o X $ % % $ X o < q ! 5 & $ % 9 [ 1.,.,.,.,.,.,.,.,.,.,.,.,.,.,.,.[ u , ",
", u [ ,.,.,.,.,.,.,.,.,.,.,.,.,.,.,.,.,.&.V - o $ < / r % . X X X X . % r / < $ o - V &.,.,.,.,.,.,.,.,.,.,.,.,.,.,.,.,.,.[ u , ",
"6 a [ 1.1.1.1.1.1.1.1.1.1.1.1.1.1.1.1.1.6.&.G 9 $ $ ; 3 4 2 % X X % 2 4 3 ; $ $ 9 G &.6.1.1.1.1.1.1.1.1.1.1.1.1.1.1.1.1.1.[ a 6 ",
": 6 c J J J J J J J J J J J J J J J G J T X.,.[ 9 % $ % 4 4 * o o * 4 4 % $ % 9 [ ,.X.T J G J J J J J J J J J J J J J J J c 6 : ",
"O O @ = = = = = = = = = = = = = = @ @ = : 8 ) ,.&.V - o $ $ o o o o $ $ o - V &.,.) 8 : = @ @ = = = = = = = = = = = = = = @ O O ",
"y.y.y.y.y.y.y.y.y.y.y.y.y.y.y.y.y.y.y.O O = 6 V &.&.J m m m m m m m m m m J &.&.V 6 = O O y.y.y.y.y.y.y.y.y.y.y.y.y.y.y.y.y.y.y.",
"y.y.y.y.y.y.y.y.y.y.y.y.y.y.y.y.y.y.y.y.O O + > c T ` ` ` ` ` ` ` ` ` ` ` ` T c > + O O y.y.y.y.y.y.y.y.y.y.y.y.y.y.y.y.y.y.y.y.",
"y.y.y.y.y.y.y.y.y.y.y.y.y.y.y.y.y.y.y.y.y.y.O + - > > > > > > > > > > > > > > - + O y.y.y.y.y.y.y.y.y.y.y.y.y.y.y.y.y.y.y.y.y.y.",
"y.y.y.y.y.y.y.y.y.y.y.y.y.y.y.y.y.y.y.y.y.y.y.O O O O O O O O O O O O O O O O O O y.y.y.y.y.y.y.y.y.y.y.y.y.y.y.y.y.y.y.y.y.y.y.",
"y.y.y.y.y.y.y.y.y.y.y.y.y.y.y.y.y.y.y.y.y.y.y.y.O O O O O O O O O O O O O O O O y.y.y.y.y.y.y.y.y.y.y.y.y.y.y.y.y.y.y.y.y.y.y.y.",
"y.y.y.y.y.y.y.y.y.y.y.y.y.y.y.y.y.y.y.y.y.y.y.y.y.y.y.y.y.y.y.y.y.y.y.y.y.y.y.y.y.y.y.y.y.y.y.y.y.y.y.y.y.y.y.y.y.y.y.y.y.y.y.y.",
"y.y.y.y.y.y.y.y.y.y.y.y.y.y.y.y.y.y.y.y.y.y.y.y.y.y.y.y.y.y.y.y.y.y.y.y.y.y.y.y.y.y.y.y.y.y.y.y.y.y.y.y.y.y.y.y.y.y.y.y.y.y.y.y.",
"y.y.y.y.y.y.y.y.y.y.y.y.y.y.y.y.y.y.y.y.y.y.y.y.y.y.y.y.y.y.y.y.y.y.y.y.y.y.y.y.y.y.y.y.y.y.y.y.y.y.y.y.y.y.y.y.y.y.y.y.y.y.y.y.",
"y.y.y.y.y.y.y.y.y.y.y.y.y.y.y.y.y.y.y.y.y.y.y.y.y.y.y.y.y.y.y.y.y.y.y.y.y.y.y.y.y.y.y.y.y.y.y.y.y.y.y.y.y.y.y.y.y.y.y.y.y.y.y.y.",
"y.y.y.y.y.y.y.y.y.y.y.y.y.y.y.y.y.y.y.y.y.y.y.y.y.y.y.y.y.y.y.y.y.y.y.y.y.y.y.y.y.y.y.y.y.y.y.y.y.y.y.y.y.y.y.y.y.y.y.y.y.y.y.y.",
"y.y.y.y.y.y.y.y.y.y.y.y.y.y.y.y.y.y.y.y.y.y.y.y.y.y.y.y.y.y.y.y.y.y.y.y.y.y.y.y.y.y.y.y.y.y.y.y.y.y.y.y.y.y.y.y.y.y.y.y.y.y.y.y.",
"y.y.y.y.y.y.y.y.y.y.y.y.y.y.y.y.y.y.y.y.y.y.y.y.y.y.y.y.y.y.y.y.y.y.y.y.y.y.y.y.y.y.y.y.y.y.y.y.y.y.y.y.y.y.y.y.y.y.y.y.y.y.y.y.",
"y.y.y.y.y.y.y.y.y.y.y.y.y.y.y.y.y.y.y.y.y.y.y.y.y.y.y.y.y.y.y.y.y.y.y.y.y.y.y.y.y.y.y.y.y.y.y.y.y.y.y.y.y.y.y.y.y.y.y.y.y.y.y.y.",
"y.y.y.y.y.y.y.y.y.y.y.y.y.y.y.y.y.y.y.y.y.y.y.y.y.y.y.y.y.y.y.y.y.y.y.y.y.y.y.y.y.y.y.y.y.y.y.y.y.y.y.y.y.y.y.y.y.y.y.y.y.y.y.y.",
"y.y.y.y.y.y.y.y.y.y.y.y.y.y.y.y.y.y.y.y.y.y.y.y.y.y.y.y.y.y.y.y.y.y.y.y.y.y.y.y.y.y.y.y.y.y.y.y.y.y.y.y.y.y.y.y.y.y.y.y.y.y.y.y.",
"y.y.y.y.y.y.y.y.y.y.y.y.y.y.y.y.y.y.y.y.y.y.y.y.y.y.y.y.y.y.y.y.y.y.y.y.y.y.y.y.y.y.y.y.y.y.y.y.y.y.y.y.y.y.y.y.y.y.y.y.y.y.y.y.",
"y.y.y.y.y.y.y.y.y.y.y.y.y.y.y.y.y.y.y.y.y.y.y.y.y.y.y.y.y.y.y.y.y.y.y.y.y.y.y.y.y.y.y.y.y.y.y.y.y.y.y.y.y.y.y.y.y.y.y.y.y.y.y.y.",
"y.y.y.y.y.y.y.y.y.y.y.y.y.y.y.y.y.y.y.y.y.y.y.y.y.y.y.y.y.y.y.y.y.y.y.y.y.y.y.y.y.y.y.y.y.y.y.y.y.y.y.y.y.y.y.y.y.y.y.y.y.y.y.y.",
"y.y.y.y.y.y.y.y.y.y.y.y.y.y.y.y.y.y.y.y.y.y.y.y.y.y.y.y.y.y.y.y.y.y.y.y.y.y.y.y.y.y.y.y.y.y.y.y.y.y.y.y.y.y.y.y.y.y.y.y.y.y.y.y.",
"y.y.y.y.y.y.y.y.y.y.y.y.y.y.y.y.y.y.y.y.y.y.y.y.y.y.y.y.y.y.y.y.y.y.y.y.y.y.y.y.y.y.y.y.y.y.y.y.y.y.y.y.y.y.y.y.y.y.y.y.y.y.y.y.",
"y.y.y.y.y.y.y.y.y.y.y.y.y.y.y.y.y.y.y.y.y.y.y.y.y.y.y.y.y.y.y.y.y.y.y.y.y.y.y.y.y.y.y.y.y.y.y.y.y.y.y.y.y.y.y.y.y.y.y.y.y.y.y.y.",
"y.y.y.y.y.y.y.y.y.y.y.y.y.y.y.y.y.y.y.y.y.y.y.y.y.y.y.y.y.y.y.y.y.y.y.y.y.y.y.y.y.y.y.y.y.y.y.y.y.y.y.y.y.y.y.y.y.y.y.y.y.y.y.y.",
"y.y.y.y.y.y.y.y.y.y.y.y.y.y.y.y.y.y.y.y.y.y.y.y.y.y.y.y.y.y.y.y.y.y.y.y.y.y.y.y.y.y.y.y.y.y.y.y.y.y.y.y.y.y.y.y.y.y.y.y.y.y.y.y.",
"y.y.y.y.y.y.y.y.y.y.y.y.y.y.y.y.y.y.y.y.y.y.y.y.y.y.y.y.y.y.y.y.y.y.y.y.y.y.y.y.y.y.y.y.y.y.y.y.y.y.y.y.y.y.y.y.y.y.y.y.y.y.y.y.",
"y.y.y.y.y.y.y.y.y.y.y.y.y.y.y.y.y.y.y.y.y.y.y.y.y.y.y.y.y.y.y.y.y.y.y.y.y.y.y.y.y.y.y.y.y.y.y.y.y.y.y.y.y.y.y.y.y.y.y.y.y.y.y.y.",
"y.y.y.y.y.y.y.y.y.y.y.y.y.y.y.y.y.y.y.y.y.y.y.y.y.y.y.y.y.y.y.y.y.y.y.y.y.y.y.y.y.y.y.y.y.y.y.y.y.y.y.y.y.y.y.y.y.y.y.y.y.y.y.y.",
"y.y.y.y.y.y.y.y.y.y.y.y.y.y.y.y.y.y.y.y.y.y.y.y.y.y.y.y.y.y.y.y.y.y.y.y.y.y.y.y.y.y.y.y.y.y.y.y.y.y.y.y.y.y.y.y.y.y.y.y.y.y.y.y.",
"y.y.y.y.y.y.y.y.y.y.y.y.y.y.y.y.y.y.y.y.y.y.y.y.y.y.y.y.y.y.y.y.y.y.y.y.y.y.y.y.y.y.y.y.y.y.y.y.y.y.y.y.y.y.y.y.y.y.y.y.y.y.y.y.",
"y.y.y.y.y.y.y.y.y.y.y.y.y.y.y.y.y.y.y.y.y.y.y.y.y.y.y.y.y.y.y.y.y.y.y.y.y.y.y.y.y.y.y.y.y.y.y.y.y.y.y.y.y.y.y.y.y.y.y.y.y.y.y.y.",
"y.y.y.y.y.y.y.y.y.y.y.y.y.y.y.y.y.y.y.y.y.y.y.y.y.y.y.y.y.y.y.y.y.y.y.y.y.y.y.y.y.y.y.y.y.y.y.y.y.y.y.y.y.y.y.y.y.y.y.y.y.y.y.y.",
"6 > : = = = = = = = = = = = = = = = = = y.y.y.y.y.y.y.y.y.y.y.y.y.y.y.y.y.y.y.y.y.y.y.y.= = = = = = = = = = = = = = = = = : > 6 ",
"6 6 u h h h h a a a a a a a a a h h k a , y.y.y.y.y.y.y.y.y.y.y.y.y.y.y.y.y.y.y.y.y.y., p f a a h a a a a a a a a h h h h u 6 6 ",
", u [ ,.,.,.,.,.1.8.8.8.8.1.,.,.,.,.,.[ y > y.y.y.y.y.y.y.y.y.y.y.y.y.y.y.y.y.y.y.y.> y ' ,.,.,.,.,.1.8.8.8.8.1.,.,.,.,.,.[ u , ",
", u [ ,.,.,.,.0.w.r.r.r.r.w.0.,.,.,.,.&.X.V 6 = y.y.y.y.y.y.y.y.y.y.y.y.y.y.y.y.= 6 V X.&.,.,.,.,.0.w.r.r.r.r.w.0.,.,.,.,.[ u , ",
", u [ ,.,.,.,.8.q.e.t.t.e.q.8.,.,.,.,.,.,.+.V p , y.y.y.y.y.y.y.y.y.y.y.y.y.y., a V +.1.,.,.,.,.,.8.q.e.t.t.e.q.8.,.,.,.,.[ u , ",
", u [ ,.,.,.,.,.,.0.w.w.0.,.,.,.,.,.,.,.,.,.,.[ y , , , , , , , , , , , , , , y [ ,.,.,.,.,.,.,.,.,.,.0.e.w.0.,.,.,.,.,.,.[ u , ",
", u [ ,.,.,.,.,.,.,.8.8.,.,.,.,.,.,.,.,.,.,.,.&.X.[ [ [ [ [ [ [ [ [ [ [ [ [ [ X.&.,.,.,.,.,.,.,.,.,.,.,.8.8.,.,.,.,.,.,.,.[ u , ",
", u [ ,.,.,.,.,.,.,.=.=.,.,.,.,.,.,.,.,.,.,.,.,.,.1.1.1.1.1.1.1.1.1.1.1.1.1.1.,.,.,.,.,.,.,.,.,.,.,.,.,.=.=.,.,.,.,.,.,.,.[ u , ",
", u [ ,.,.,.,.,.,.,.,.,.,.,.,.,.,.,.,.,.,.,.,.,.,.,.,.,.,.,.,.,.,.,.,.,.,.,.,.,.,.,.,.,.,.,.,.,.,.,.,.,.,.,.,.,.,.,.,.,.,.[ u , ",
", u [ ,.,.,.,.,.,.,.,.,.,.,.,.,.,.,.,.,.,.,.,.,.,.,.,.,.,.,.,.,.,.,.,.,.,.,.,.,.,.,.,.,.,.,.,.,.,.,.,.,.,.,.,.,.,.,.,.,.,.[ u , ",
", u [ ,.,.,.,.,.,.,.,.,.,.,.,.,.,.,.,.,.,.,.,.,.,.,.,.,.,.,.,.,.,.,.,.,.,.,.,.,.,.,.,.,.,.,.,.,.,.,.,.,.,.,.,.,.,.,.,.,.,.[ u , ",
", u [ ,.,.,.,.,.,.,.,.,.,.,.,.,.,.,.,.,.,.,.,.,.,.,.,.,.,.,.,.,.,.,.,.,.,.,.,.,.,.,.,.,.,.,.,.,.,.,.,.,.,.,.,.,.,.,.,.,.,.[ u , "
};
