/* XPM */
static const char *door_4_64x64[] = {
/* columns rows colors chars-per-pixel */
"64 64 111 2 ",
"   c #16171B",
".  c #17181C",
"X  c #1A1B1E",
"o  c #1D1C24",
"O  c #1E1C2B",
"+  c #201E2E",
"@  c #211F30",
"#  c #1F2023",
"$  c #222325",
"%  c #25262A",
"&  c #27282C",
"*  c #2A2B2C",
"=  c #252435",
"-  c #282735",
";  c #2B2C33",
":  c #272539",
">  c #29273C",
",  c #2B283F",
"<  c #2F3134",
"1  c #2F3238",
"2  c #34363D",
"3  c #37383D",
"4  c #393A3F",
"5  c #2C2A41",
"6  c #302E46",
"7  c #322F49",
"8  c #323146",
"9  c #373941",
"0  c #3B3D43",
"q  c #34314C",
"w  c #373450",
"e  c #373451",
"r  c #383553",
"t  c #393554",
"y  c #393654",
"u  c #3A3755",
"i  c #3A3756",
"p  c #393554",
"a  c #3B3856",
"s  c #3D3B58",
"d  c #3D3A5A",
"f  c #3D3A5B",
"g  c #3F3C5B",
"h  c #3F3C5C",
"j  c #3D3A5A",
"k  c #413D5F",
"l  c #403E5E",
"z  c #413E5E",
"x  c #413E5F",
"c  c #413E60",
"v  c #423F60",
"b  c #423E61",
"n  c #423F61",
"m  c #433F63",
"M  c #3E4046",
"N  c #3F4147",
"B  c #3F4249",
"V  c #404248",
"C  c #404249",
"Z  c #41434A",
"A  c #42454D",
"S  c #43454D",
"D  c #444163",
"F  c #454164",
"G  c #454166",
"H  c #454267",
"J  c #464267",
"K  c #464367",
"L  c #454166",
"P  c #474368",
"I  c #474469",
"U  c #474369",
"Y  c #484469",
"T  c #48446A",
"R  c #48456A",
"E  c #49456C",
"W  c #4A466D",
"Q  c #4A466E",
"!  c #4A476E",
"~  c #4B476E",
"^  c #4B476F",
"/  c #4A466E",
"(  c #4B4770",
")  c #4C4870",
"_  c #4C4871",
"`  c #4C4971",
"'  c #4D4971",
"]  c #4D4972",
"[  c #4D4973",
"{  c #4E4973",
"}  c #4E4A73",
"|  c #4E4A74",
" . c #4F4B74",
".. c #4F4A75",
"X. c #4F4B75",
"o. c #4F4B76",
"O. c #4D4972",
"+. c #504B76",
"@. c #504C76",
"#. c #534F7B",
"$. c #524E79",
"%. c #54507C",
"&. c #55507D",
"*. c #55517D",
"=. c #575380",
"-. c #5F5A8B",
";. c #605C8D",
":. c #625E90",
">. c #6A659B",
",. c #6B669C",
"<. c None",
/* pixels */
"5 5 5 5 5 5 5 5 5 5 5 5 5 5 5 5 5 5 5 5 5 5 5 5 5 5 5 5 5 5 5 5 5 5 5 5 5 5 5 5 5 5 5 5 5 5 5 5 5 5 5 5 5 5 5 5 5 5 5 5 5 5 5 5 ",
"5 6 t f f f f f f f f f f f f f f f f f f f f f f f f f f f f f f f f f f f f f f f f f f f f f f f f f f f f f f f f f f t 6 5 ",
", q H | | } } } } } } } } } } } } } } } } } } } } } } | | | | } | | | | } } } } } } } } } } } } } } } } } } } } } } } } | H q , ",
", q H } } } } } } } } } } } } } } } } } } } } } } } } } } } } } } } } } } } } } } } } } } } } } } } } } } } } } } } } } } H q , ",
", q H } } } } } } } } } } } } } } } } } } } } } | I q 5 , 5 5 5 6 5 5 , 5 q I | } } } } } } } } } } } } } } } } } } } } } H q , ",
", q H } } } } } } } } } } } } } } } } } } } } ~ D q % # % % $ X X $ % % o % q H ~ } } } } } } } } } } } } } } } } } } } } H q , ",
", q H } } } } } } } } } } } } } } } } } } } } l > $ $ ; M 0 * $ $ * M M ; $ # > l } } } } } } } } } } } } } } } } } } } } H q , ",
", q H } } } } } } } } } } } } } } } } } | H q - $ % 3 0 1 % o X X o % 1 0 3 % $ - q H | } } } } } } } } } } } } } } } } } H q , ",
", q H } } } } } } } } } } } } } } } | ~ l q % $ * 3 C 9 $   X o o X   $ 9 C 3 * $ % q l ~ | } } } } } } } } } } } } } } } H q , ",
", q H } } } } } } } } } } } } } } } ( g - o $ ; V S 9 ; o X $ * * $ X o ; 9 S M ; $ o - g ( } } } } } } } } } } } } } } } H q , ",
", q H } } } } } } } } } } } } } } H 8 - $ % 4 C 0 9 2 ; o X $ * * $ X o ; 2 9 0 C 4 % $ - 8 H } } } } } } } } } } } } } } H q , ",
", q H } } } } } } } } } } } } } } l - # ; 2 4 2 ; % % % $ $ $ $ $ $ $ $ % % % ; 2 3 2 ; # - l | } } } } } } } } } } } } } H q , ",
", q H } } } } } } } } } } } } } } l - % 0 0 % X X X X o % % o X X o % % o X X X . % 0 0 % - l | } } } } } } } } } } } } } H q , ",
", q H } } } } } } } } } } } } } } l - # * % o X $ $ $ $ o o $ $ $ $ o o $ $ $ $ X o % * # - l | } } } } } } } } } } } } } H q , ",
", q H } } } } } } } } } } } } } | l - X X X X X $ * * $ X X $ * * $ X X $ * * $ X X X X X - l | } } } } } } } } } } } } } H q , ",
", q H } } } } } } } } } } } } } | l - o % $ X X $ * & $ o o $ % * $ o o $ * % $ X X $ % o - l | } } } } } } } } } } } } } H q , ",
", q H } } } } } } } } } } } } } | l - % 0 0 %   X X X o % % o X X o % % o X X X   % 0 0 % - l | } } } } } } } } } } } } } H q , ",
", q H } } } } } } } } } } } } } | l - $ < 3 2 1 & % % % $ $ $ $ $ $ $ $ % % % & 1 2 3 1 $ - l | } } } } } } } } } } } } } H q , ",
", q H } } } } } } } } } } } } } } D 6 % $ * 0 C 0 2 2 ; o X $ * * $ X o ; 2 2 0 C 0 * $ % 6 D | } } } } } } } } } } } } } H q 5 ",
", q H } } } } } } } } } } } } } } } ~ f - o $ < B S 9 ; o X $ * * $ X o ; 9 S C < $ o - f ~ } } } } } } } } } } } } } } } H q 5 ",
", q H } } } } } } } } } } } } } } } | ~ h 8 % $ ; 4 B 9 $   X o o X   $ 9 B 4 ; $ % 8 g ~ | } } } } } } } } } } } } } } } H q 5 ",
"5 q H | | } } } } } } } } } | | } } } | @.H 8 - $ % 4 0 ; % o X X o % ; 0 4 % $ % 8 H +.| } } } } } } } | | } } } } } | | H q 5 ",
"> 7 n } } ~ ~ ~ ~ ~ ~ ~ ~ ~ ~ ~ ~ ~ ~ ~ } } ~ g - # $ ; M 0 * $ $ * 0 M ; $ o - g ~ ( ( ~ ~ ~ ~ ~ ~ ~ ~ ~ ~ ~ ~ ~ ~ ~ ~ } n 8 > ",
"= = , 5 5 5 5 5 5 5 5 5 5 5 5 5 5 5 5 5 7 a ~ } n q % # & & $ X X $ & & # % q D } ~ t 7 5 5 5 5 5 5 5 5 5 5 5 5 5 5 5 5 5 , = = ",
"O O O o o O O O O O O O O O o o O o o O + > r H } Y q , , , , , , , , , , q Y } H r > + O o o O o O O O o O O O O O O O O O O O ",
"<.<.<.<.<.<.<.<.<.<.<.<.<.<.<.<.<.<.<.<.O + = 6 n ~ ~ Y Y Y Y Y Y Y Y Y Y ~ ~ n 6 = + O <.<.<.<.<.<.<.<.<.<.<.<.<.<.<.<.<.<.<.<.",
"<.<.<.<.<.<.<.<.<.<.<.<.<.<.<.<.<.<.<.<.<.<.O = 5 7 7 7 8 7 7 7 7 7 7 7 7 8 7 5 = O <.<.<.<.<.<.<.<.<.<.<.<.<.<.<.<.<.<.<.<.<.<.",
"<.<.<.<.<.<.<.<.<.<.<.<.<.<.<.<.<.<.<.<.<.<.<.O + = @ @ % = = = @ @ @ @ = = = + O <.<.<.<.<.<.<.<.<.<.<.<.<.<.<.<.<.<.<.<.<.<.<.",
"<.<.<.<.<.<.<.<.<.<.<.<.<.<.<.<.<.<.<.<.<.<.<.<.O O O O O O O O O O O O O O O O <.<.<.<.<.<.<.<.<.<.<.<.<.<.<.<.<.<.<.<.<.<.<.<.",
"<.<.<.<.<.<.<.<.<.<.<.<.<.<.<.<.<.<.<.<.<.<.<.<.<.<.<.<.<.<.<.<.<.<.<.<.<.<.<.<.<.<.<.<.<.<.<.<.<.<.<.<.<.<.<.<.<.<.<.<.<.<.<.<.",
"<.<.<.<.<.<.<.<.<.<.<.<.<.<.<.<.<.<.<.<.<.<.<.<.<.<.<.<.<.<.<.<.<.<.<.<.<.<.<.<.<.<.<.<.<.<.<.<.<.<.<.<.<.<.<.<.<.<.<.<.<.<.<.<.",
"<.<.<.<.<.<.<.<.<.<.<.<.<.<.<.<.<.<.<.<.<.<.<.<.<.<.<.<.<.<.<.<.<.<.<.<.<.<.<.<.<.<.<.<.<.<.<.<.<.<.<.<.<.<.<.<.<.<.<.<.<.<.<.<.",
"<.<.<.<.<.<.<.<.<.<.<.<.<.<.<.<.<.<.<.<.<.<.<.<.<.<.<.<.<.<.<.<.<.<.<.<.<.<.<.<.<.<.<.<.<.<.<.<.<.<.<.<.<.<.<.<.<.<.<.<.<.<.<.<.",
"<.<.<.<.<.<.<.<.<.<.<.<.<.<.<.<.<.<.<.<.<.<.<.<.<.<.<.<.<.<.<.<.<.<.<.<.<.<.<.<.<.<.<.<.<.<.<.<.<.<.<.<.<.<.<.<.<.<.<.<.<.<.<.<.",
"<.<.<.<.<.<.<.<.<.<.<.<.<.<.<.<.<.<.<.<.<.<.<.<.<.<.<.<.<.<.<.<.<.<.<.<.<.<.<.<.<.<.<.<.<.<.<.<.<.<.<.<.<.<.<.<.<.<.<.<.<.<.<.<.",
"<.<.<.<.<.<.<.<.<.<.<.<.<.<.<.<.<.<.<.<.<.<.<.<.<.<.<.<.<.<.<.<.<.<.<.<.<.<.<.<.<.<.<.<.<.<.<.<.<.<.<.<.<.<.<.<.<.<.<.<.<.<.<.<.",
"<.<.<.<.<.<.<.<.<.<.<.<.<.<.<.<.<.<.<.<.<.<.<.<.<.<.<.<.<.<.<.<.<.<.<.<.<.<.<.<.<.<.<.<.<.<.<.<.<.<.<.<.<.<.<.<.<.<.<.<.<.<.<.<.",
"<.<.<.<.<.<.<.<.<.<.<.<.<.<.<.<.<.<.<.<.<.<.<.<.<.<.<.<.<.<.<.<.<.<.<.<.<.<.<.<.<.<.<.<.<.<.<.<.<.<.<.<.<.<.<.<.<.<.<.<.<.<.<.<.",
"<.<.<.<.<.<.<.<.<.<.<.<.<.<.<.<.<.<.<.<.<.<.<.<.<.<.<.<.<.<.<.<.<.<.<.<.<.<.<.<.<.<.<.<.<.<.<.<.<.<.<.<.<.<.<.<.<.<.<.<.<.<.<.<.",
"<.<.<.<.<.<.<.<.<.<.<.<.<.<.<.<.<.<.<.<.<.<.<.<.<.<.<.<.<.<.<.<.<.<.<.<.<.<.<.<.<.<.<.<.<.<.<.<.<.<.<.<.<.<.<.<.<.<.<.<.<.<.<.<.",
"<.<.<.<.<.<.<.<.<.<.<.<.<.<.<.<.<.<.<.<.<.<.<.<.<.<.<.<.<.<.<.<.<.<.<.<.<.<.<.<.<.<.<.<.<.<.<.<.<.<.<.<.<.<.<.<.<.<.<.<.<.<.<.<.",
"<.<.<.<.<.<.<.<.<.<.<.<.<.<.<.<.<.<.<.<.<.<.<.<.<.<.<.<.<.<.<.<.<.<.<.<.<.<.<.<.<.<.<.<.<.<.<.<.<.<.<.<.<.<.<.<.<.<.<.<.<.<.<.<.",
"<.<.<.<.<.<.<.<.<.<.<.<.<.<.<.<.<.<.<.<.<.<.<.<.<.<.<.<.<.<.<.<.<.<.<.<.<.<.<.<.<.<.<.<.<.<.<.<.<.<.<.<.<.<.<.<.<.<.<.<.<.<.<.<.",
"<.<.<.<.<.<.<.<.<.<.<.<.<.<.<.<.<.<.<.<.<.<.<.<.<.<.<.<.<.<.<.<.<.<.<.<.<.<.<.<.<.<.<.<.<.<.<.<.<.<.<.<.<.<.<.<.<.<.<.<.<.<.<.<.",
"<.<.<.<.<.<.<.<.<.<.<.<.<.<.<.<.<.<.<.<.<.<.<.<.<.<.<.<.<.<.<.<.<.<.<.<.<.<.<.<.<.<.<.<.<.<.<.<.<.<.<.<.<.<.<.<.<.<.<.<.<.<.<.<.",
"<.<.<.<.<.<.<.<.<.<.<.<.<.<.<.<.<.<.<.<.<.<.<.<.<.<.<.<.<.<.<.<.<.<.<.<.<.<.<.<.<.<.<.<.<.<.<.<.<.<.<.<.<.<.<.<.<.<.<.<.<.<.<.<.",
"<.<.<.<.<.<.<.<.<.<.<.<.<.<.<.<.<.<.<.<.<.<.<.<.<.<.<.<.<.<.<.<.<.<.<.<.<.<.<.<.<.<.<.<.<.<.<.<.<.<.<.<.<.<.<.<.<.<.<.<.<.<.<.<.",
"<.<.<.<.<.<.<.<.<.<.<.<.<.<.<.<.<.<.<.<.<.<.<.<.<.<.<.<.<.<.<.<.<.<.<.<.<.<.<.<.<.<.<.<.<.<.<.<.<.<.<.<.<.<.<.<.<.<.<.<.<.<.<.<.",
"5 , : - - - - - - - - - - - = = - - - = <.<.<.<.<.<.<.<.<.<.<.<.<.<.<.<.<.<.<.<.<.<.<.<.- - - - = - = - - - - - - - - - - : , 5 ",
"5 5 w t t t t t t t t t t t t t t a t w 5 <.<.<.<.<.<.<.<.<.<.<.<.<.<.<.<.<.<.<.<.<.<.5 w a t t t t t t t t t t t t t t t w 5 5 ",
", q H | | } } | $.%.%.%.%.$.| } } | | H q 5 <.<.<.<.<.<.<.<.<.<.<.<.<.<.<.<.<.<.<.<.5 q H | | } } | $.%.%.%.%.$.| } } } | H q 5 ",
"5 q H } } } } %.:.>.>.>.>.:.#.} } } } } ~ n 5 = <.<.<.<.<.<.<.<.<.<.<.<.<.<.<.<.= 5 l ~ } } } } } #.:.>.>.>.>.:.#.} } } | H q 5 ",
", q H } } } } @.=.;.,.,.;.%.@.} } } } } | ~ n r 5 = = = = = = = = = = = = = = 5 r n ~ } } } } } } @.=.;.,.,.;.=.@.} } } } H q , ",
", q H } } } } } } $.-.-.$.( } } } } } } } } | P w 5 6 6 6 6 6 6 6 6 6 6 6 6 6 w P | } } } } } } } } } $.-.-.$.} } } } } } H q , ",
", q H } } } } } } } | | } } } } } } } } } } } } ~ ~ ~ ~ ~ ~ ~ ~ ~ ~ ~ ~ ~ ~ ~ ~ } } } } } } } } } } } } | | } } } } } } } H q , ",
", q H } } } } } } } } } } } } } } } } } } } } } } } } } } } } } } } } } } } } } } } } } } } } } } } } } } } } } } } } } } H q , ",
", q H } } } } } } } } } } } } } } } } } } } } } } } } } } } } } } } } } } } } } } } } } } } } } } } } } } } } } } } } } } H q , ",
", q H } } } } } } } } } } } } } } } } } } } } } } } } } } } } } } } } } } } } } } } } } } } } } } } } } } } } } } } } } } H q , ",
", q H } } } } } } } } } } } } } } } } } } } } } } } } } } } } } } } } } } } } } } } } } } } } } } } } } } } } } } } } } } H q , ",
", q H } } } } } } } } } } } } } } } } } } } } } } } } } } } } } } } } } } } } } } } } } } } } } } } } } } } } } } } } } } H q , ",
", q H } } } } } } } } } } } } } } } } } } } } } } } } } } } } } } } } } } } } } } } } } } } } } } } } } } } } } } } } } } H q , ",
", q H | | } } } } } } } } } } } } } } } } } } } } } } } } } } } } } } } } } } } } } } } } } } } } } } } } } } } } } } } | H q , ",
"5 6 t f f f f f f f f f f f f f f f f f f f f f f f f f f f f f f f f f f f f f f f f f f f f f f f f f f f f f f f f f f t 6 5 ",
"5 5 5 5 5 5 5 5 5 5 5 5 5 5 5 5 5 5 5 5 5 5 5 5 5 5 5 5 5 5 5 5 5 5 5 5 5 5 5 5 5 5 5 5 5 5 5 5 5 5 5 5 5 5 5 5 5 5 5 5 5 5 5 5 "
};
