/* XPM */
static const char *door[] = {
/* columns rows colors chars-per-pixel */
"20 20 106 2 ",
"   c gray17",
".  c #2F2F2F",
"X  c gray19",
"o  c gray21",
"O  c #363737",
"+  c #373737",
"@  c gray24",
"#  c #3D3C3E",
"$  c #434244",
"%  c #454446",
"&  c #454447",
"*  c #464447",
"=  c #464547",
"-  c #474648",
";  c #474649",
":  c #484748",
">  c #4B4B4B",
",  c gray35",
"<  c gray37",
"1  c #626262",
"2  c #656565",
"3  c #6C6C6C",
"4  c gray44",
"5  c #707172",
"6  c #797978",
"7  c #7A7C78",
"8  c gray49",
"9  c #624081",
"0  c #814FAD",
"q  c #865AB2",
"w  c #8E5FB7",
"e  c #8E5FBB",
"r  c #9973B7",
"t  c #9A73B7",
"y  c #9A74B7",
"u  c #BD79FD",
"i  c #828381",
"p  c #838581",
"a  c #848681",
"s  c #848683",
"d  c #858783",
"f  c #868983",
"g  c #868984",
"h  c #898C86",
"j  c #898989",
"k  c #8C8D8E",
"l  c #8C8E8F",
"z  c #8E8E8E",
"x  c #908F8F",
"c  c #8D8E90",
"v  c #8D8F91",
"b  c #8E9092",
"n  c #939393",
"m  c #959495",
"M  c #969695",
"N  c #979696",
"B  c #969799",
"V  c gray60",
"C  c #9B9A9C",
"Z  c #9C9B9C",
"A  c #9C9C9D",
"S  c #9C9EA1",
"D  c #AF88B7",
"F  c gray63",
"G  c #A5A4A6",
"H  c #A5A5A6",
"J  c #A6A5A6",
"K  c #A9A8AA",
"L  c #B7B9BB",
"P  c #B7B9BC",
"I  c #B8B9BC",
"U  c #B8BABD",
"Y  c #B9BBBE",
"T  c #BABCBF",
"R  c #BABDC0",
"E  c #BBBDC0",
"W  c #C18AFC",
"Q  c #C28AFD",
"!  c #D08FFE",
"~  c #CF97FC",
"^  c #DD97FE",
"/  c #E0A7FA",
"(  c #E1A8FB",
")  c #E1A8FC",
"_  c #E2A8FE",
"`  c #EDB3F8",
"'  c #EDB2FB",
"]  c #EEB4FB",
"[  c #EFB2FE",
"{  c #F0B3FF",
"}  c #F0B5FE",
"|  c #F3B8FD",
" . c #C3C5C7",
".. c #C4C6C9",
"X. c #C5C7CA",
"o. c #C5C8CB",
"O. c #C6C8CB",
"+. c #C7C9CD",
"@. c #D0D2D6",
"#. c #D0D3D7",
"$. c #D1D3D7",
"%. c #D3D5D9",
"&. c #FBC3FE",
"*. c #FCC4FF",
"=. c #DEE2E6",
"-. c None",
/* pixels */
"o o o o o o o o o o o o o o o o o o o o ",
"o 5 B c c c c c c c c c c c c c c B 5 o ",
"o B %.X.o.o.o.o.o.o.o.o.o.o.o.o.X.%.B o ",
"o c o.Y Y T T T T T T T T T T Y Y o.c o ",
"o l X.P Y Y Y Y Y Y Y Y Y Y Y Y P X.l o ",
"o b +.R R R R R R R R R R R R R R +.b o ",
"o S =.@.@.@.@.@.@.@.@.@.@.@.@.@.@.=.S o ",
"o l  .L L L L L L L L L L L L L L  .l o ",
"o 6 F N N V C Z Z A A Z Z C V N N F 6 o ",
"o 3 n x l j a a p i i p a a j l x n 3 o ",
"o # < 8 5 > $ ; ; : : ; ; $ > 5 8 < # o ",
"-.  , N 7 # 9 e r D D r e 9 # 7 N ,   -.",
"-.X 2 K h ; w ^ ` &.&.` ^ w ; h K 2 X -.",
"-.. 1 G a & r [ ` / / ` [ r & a G 1 . -.",
"-.. 1 G a & D &./ Q Q / &.D & a G 1 . -.",
"-.. 1 G a & D *.( Q Q ( *.D & a G 1 . -.",
"-.. 1 G a & y { ] ) ) ] { y & a G 1 . -.",
"-.. 1 G f & q ! ) | | ) ! q & f G 1 . -.",
"-.-.1 G g & 0 u ~ } } ~ u 0 & g G 1 -.-.",
"-.-.-.-.-.-.-.-.-.-.-.-.-.-.-.-.-.-.-.-."
};
