/* XPM */
static const char *space[] = {
/* columns rows colors chars-per-pixel */
"20 20 115 2 ",
"   c #170507",
".  c #180507",
"X  c #1F0907",
"o  c #1B070A",
"O  c #1C0709",
"+  c #1E080A",
"@  c #1F080D",
"#  c #210A07",
"$  c #250C07",
"%  c #220A0A",
"&  c #250C09",
"*  c #230A0D",
"=  c #240A0F",
"-  c #270C0D",
";  c #280D08",
":  c #280E0A",
">  c #290E0C",
",  c #2C0E0E",
"<  c #2D1007",
"1  c #2F1109",
"2  c #2F100E",
"3  c #321307",
"4  c #311209",
"5  c #351409",
"6  c #31110E",
"7  c #37140E",
"8  c #3A1709",
"9  c #39150F",
"0  c #3E180A",
"q  c #3E180D",
"w  c #240A10",
"e  c #290D12",
"r  c #2E0F12",
"t  c #2F0F15",
"y  c #310F17",
"u  c #331210",
"i  c #371312",
"p  c #371413",
"a  c #311015",
"s  c #381413",
"d  c #3C1612",
"f  c #381317",
"g  c #341119",
"h  c #411B06",
"j  c #431C06",
"k  c #4A1F07",
"l  c #411A0B",
"z  c #451B0E",
"x  c #4A1F0B",
"c  c #4A1E0E",
"v  c #4D1F0F",
"b  c #431A10",
"n  c #4A2305",
"m  c #4E2107",
"M  c #4D210A",
"N  c #4E200F",
"B  c #502305",
"V  c #562605",
"C  c #582705",
"Z  c #552907",
"A  c #5C2A04",
"S  c #5F2E05",
"D  c #55240B",
"F  c #592709",
"G  c #5B2908",
"H  c #672F07",
"J  c #692F07",
"K  c #632B0C",
"L  c #663204",
"P  c #633405",
"I  c #6D3304",
"U  c #673108",
"Y  c #6E3309",
"T  c #6D350B",
"R  c #713504",
"E  c #7C3E03",
"W  c #783A04",
"Q  c #73360A",
"!  c #753D08",
"~  c #814007",
"^  c #9D4E03",
"/  c #9E4F07",
"(  c #945203",
")  c #995103",
"_  c #9B5603",
"`  c #A05403",
"'  c #AC5F02",
"]  c #B75D05",
"[  c #AF6102",
"{  c #B06102",
"}  c #B56202",
"|  c #BC6702",
" . c #BC6802",
".. c #C36701",
"X. c #C66B01",
"o. c #C26E02",
"O. c #C86C01",
"+. c #CC6C01",
"@. c #D36F01",
"#. c #D46F01",
"$. c #CB7001",
"%. c #CF7103",
"&. c #D37301",
"*. c #D57601",
"=. c #D77E01",
"-. c #DA7800",
";. c #DD7D01",
":. c #E47B00",
">. c #E57F00",
",. c #E87E00",
"<. c #E78100",
"1. c #E88100",
"2. c #EA8901",
"3. c #EF8800",
"4. c #F28D00",
/* pixels */
"=.` @.}  .&.&.{ ..4.4...{ &.&. .} @.` =.",
"o.B C V A I R h j ) ) j h R I A V C m o.",
"%.J # m l + X > c $ $ c > X + l m # J %.",
"] 0   6 f O . * r o o r * . O f 6   0 ] ",
"/ 6 < 6 o o > &         & > o O u < 6 / ",
" .P 1 , . o w O   . + + + w o . 2 1 P  .",
"-.S , w o   o + 4 4 M 7 o     o w , S -.",
"_ 1 p = o   2 v K ~ R 8 , > o o w s 1 _ ",
"' h *       + x 0 ^ +.H 5 0 o . . * h ' ",
"<.Y w o     * N < } ,.W V 5   . o w T <.",
"<.U y e o   o 7 < X.:.L k 9 o o e y U <.",
"2.Z g t     o * 4 $.&.n 3 O   o t g Z 2.",
"1.Q e * o   o i D E R D 9 * o o @ e Q 1.",
"%.G w o     + a b 5 0 q @ e o   . w G %.",
"( : e o . . O + - z r e O o     O > : ( ",
"| n d e o       . + O = o     o e d k | ",
"3.! @ o o % &   + o o + . : % o O @ ! 3.",
";.T - X X 0 m # F 9 9 F # m 0 . # - T ;.",
"X.m h R I A V C j I I j C V A I R h m O.",
">.X.[ &.&. .} @.^ *.*.^ #.}  .&.&.{ X.>."
};
