/* XPM */
static const char *wall[] = {
/* columns rows colors chars-per-pixel */
"20 20 183 2 ",
"   c #272626",
".  c #2B2B2A",
"X  c #2C2C2C",
"o  c #2D2C2C",
"O  c gray18",
"+  c #353535",
"@  c gray21",
"#  c #373737",
"$  c #373837",
"%  c gray22",
"&  c #3F4040",
"*  c #414242",
"=  c gray27",
"-  c #454546",
";  c #484849",
":  c #4C4C4C",
">  c #4D4D4E",
",  c #525353",
"<  c #535454",
"1  c #646566",
"2  c #6A6B6C",
"3  c #6B6B6C",
"4  c #6C6D6D",
"5  c #6C6D6F",
"6  c #6E6E6F",
"7  c #6E6F70",
"8  c #737476",
"9  c #747577",
"0  c #767677",
"q  c #777778",
"w  c #787A7C",
"e  c #7D7E7E",
"r  c #7E7E7F",
"t  c #7D7E80",
"y  c #7D7F81",
"u  c #7F8082",
"i  c #818284",
"p  c #828485",
"a  c #878788",
"s  c #878888",
"d  c #878889",
"f  c #888889",
"g  c #898989",
"h  c #89898A",
"j  c #898A8C",
"k  c #8B8C8C",
"l  c #8B8D8E",
"z  c #8B8D8F",
"x  c #8C8D8F",
"c  c #8C8E90",
"v  c #8D8F91",
"b  c #8F9092",
"n  c #909293",
"m  c #909294",
"M  c #929394",
"N  c #929395",
"B  c #939497",
"V  c #959699",
"C  c #969799",
"Z  c #96989A",
"A  c #96989B",
"S  c #97999B",
"D  c #989A9C",
"F  c #999A9C",
"G  c #999B9D",
"H  c #9B9C9E",
"J  c #9B9D9F",
"K  c #9EA0A2",
"L  c #9FA1A4",
"P  c #A0A2A5",
"I  c #A1A3A5",
"U  c #A1A3A6",
"Y  c #A1A3A7",
"T  c #A2A4A6",
"R  c #A2A4A7",
"E  c #A3A5A8",
"W  c #A3A6A9",
"Q  c #A4A6A8",
"!  c #A4A7A9",
"~  c #A5A7AA",
"^  c #A6A8AA",
"/  c #A7A9AC",
"(  c #A8A9AB",
")  c #A8AAAC",
"_  c #A9AAAD",
"`  c #A9ABAD",
"'  c #A8AAAE",
"]  c #ABADB0",
"[  c #ADAEB0",
"{  c #ADAFB1",
"}  c #AEB0B2",
"|  c #AEB0B4",
" . c #AEB1B4",
".. c #AFB2B6",
"X. c #B0B2B4",
"o. c #B2B4B7",
"O. c #B1B4B8",
"+. c #B2B4B8",
"@. c #B2B5B8",
"#. c #B3B6BA",
"$. c #B4B6B9",
"%. c #B4B6BA",
"&. c #B5B7BA",
"*. c #B5B7BB",
"=. c #B6B8BA",
"-. c #B6B8BB",
";. c #B7B9BC",
":. c #B7B9BD",
">. c #B7BABE",
",. c #B9BBBF",
"<. c #B9BCC0",
"1. c #BABDC1",
"2. c #BBBEC2",
"3. c #BCBFC3",
"4. c #BDC0C3",
"5. c #BCC0C4",
"6. c #BDC0C4",
"7. c #BEC0C4",
"8. c #BEC1C4",
"9. c #BEC1C5",
"0. c #BFC1C6",
"q. c #C0C2C6",
"w. c #C0C3C6",
"e. c #C0C3C7",
"r. c #C2C4C7",
"t. c #C1C4C8",
"y. c #C2C4C8",
"u. c #C2C5C8",
"i. c #C2C5C9",
"p. c #C3C6C9",
"a. c #C2C5CA",
"s. c #C3C6CA",
"d. c #C3C6CB",
"f. c #C3C7CB",
"g. c #C4C7CB",
"h. c #C6C8CB",
"j. c #C5C9CD",
"k. c #C7C9CD",
"l. c #C7CACD",
"z. c #C7CACE",
"x. c #C7CBCE",
"c. c #C8CBCF",
"v. c #C9CBCF",
"b. c #C8CCD1",
"n. c #C9CCD1",
"m. c #CBCDD0",
"M. c #CBCED2",
"N. c #CBCED3",
"B. c #CBCFD3",
"V. c #CCCFD3",
"C. c #CDD0D4",
"Z. c #CDD1D5",
"A. c #CFD2D6",
"S. c #D2D6DA",
"D. c #D3D6DA",
"F. c #D4D7DB",
"G. c #D5D8DB",
"H. c #D4D8DC",
"J. c #D4D9DC",
"K. c #D5D9DD",
"L. c #D6DADE",
"P. c #D7DADE",
"I. c #D8DBDD",
"U. c #D8DBDF",
"Y. c #D8DCE0",
"T. c #D9DCE0",
"R. c #D9DCE1",
"E. c #D9DDE1",
"W. c #DADCE0",
"Q. c #DADDE0",
"!. c #DDE0E4",
"~. c #DFE2E6",
"^. c #E2E5E9",
"/. c #EAECEE",
"(. c #EBEEF2",
"). c #EBEFF2",
"_. c #F1F5F8",
"`. c #F2F5F8",
"'. c #F5F7F9",
"]. c #F7F8FA",
"[. c #F7F9FA",
"{. c #FAFBFC",
"}. c None",
/* pixels */
"}.# % # }.# % }.}.$ $ }.}.% # }.# % # }.",
"# j o.p = A X.2 < ^ ^ < 2 X.A = p o.j # ",
"# [ {.r.m U.'.[ J /./.J [ '.U.m r.{.[ # ",
"# ~ ).Y.J.U.Y.J.J.Y.Y.J.J.Y.U.J.Y.).~ # ",
"# A J.t.3.v.C.t.0.m.m.0.t.C.v.3.t.J.A # ",
"# i O.W L U R U U U U U U R U L W O.i # ",
"# A U.&.r , ; 6 q > > q 6 ; , r &.U.A # ",
"# ) [.m.l 7 2 i d 6 6 d i 2 7 l m.[.) # ",
"# ~ _.k.m u y l b u u b l y u m k._.~ # ",
"# A Y.=.r > & 2 0 = = 0 2 & > r =.Y.A # ",
"# i O.R V c l B V c c V B l c V R O.i # ",
"# A Y.} m k.!.^ F F.F.F ^ !.k.m } Y.A # ",
"# ( [.h.R G.).=.) ^.^.) =.).G.R h.[.( # ",
"# ) _.S.k.Y.^.C.m.!.!.m.C.^.Y.k.S._.) # ",
"# c v.,.o.4.t.:.&.w.w.&.:.t.0.O.,.v.c # ",
"# * 6 l g g g d a g g a a g d d l 6 * # ",
"}.  1 ] ~ J F K W U U ~ F x n R ] 1   }.",
"}.O w t...) O.0.t.m.m.g.:.....0.m.w O }.",
"}.O w t.../ &.2.0.k.k.0.2.0.w.t.t.0 O }.",
"}.. y J.V.2.2.2.2.2.2.2.,.w.V.C.v.8 O }."
};
