/* XPM */
static const char *space_00[] = {
/* columns rows colors chars-per-pixel */
"64 64 165 2 ",
"   c #150407",
".  c #190607",
"X  c #1D0807",
"o  c #160508",
"O  c #1A060A",
"+  c #1E080A",
"@  c #240C07",
"#  c #290E06",
"$  c #230A0D",
"%  c #2A0E09",
"&  c #2D1206",
"*  c #2D1008",
"=  c #321506",
"-  c #391707",
";  c #3D1906",
":  c #32120D",
">  c #3A160B",
",  c #3F1908",
"<  c #260B10",
"1  c #2B0D13",
"2  c #300F15",
"3  c #321016",
"4  c #3B1514",
"5  c #351218",
"6  c #3C141C",
"7  c #441C05",
"8  c #481E05",
"9  c #401A08",
"0  c #421914",
"q  c #4A1D15",
"w  c #41171F",
"e  c #45191C",
"r  c #4C1D1B",
"t  c #501F19",
"y  c #4C2405",
"u  c #4F2208",
"i  c #542505",
"p  c #592705",
"a  c #542805",
"s  c #5C2B05",
"d  c #552214",
"f  c #5C2616",
"g  c #53201B",
"h  c #5E2619",
"j  c #632C04",
"k  c #682E05",
"l  c #643605",
"z  c #6D3204",
"x  c #6A3A04",
"c  c #743504",
"v  c #793704",
"b  c #7C3903",
"n  c #7E380E",
"m  c #642A13",
"M  c #682C15",
"N  c #693315",
"B  c #693018",
"V  c #763412",
"C  c #7B3613",
"Z  c #431720",
"A  c #441820",
"S  c #724004",
"D  c #7D4507",
"F  c #843E03",
"G  c #883F03",
"H  c #843C0B",
"J  c #883D11",
"K  c #8E4204",
"L  c #8C400A",
"P  c #944504",
"I  c #984707",
"U  c #9B4903",
"Y  c #92420F",
"T  c #994708",
"R  c #9F4A08",
"E  c #A44E03",
"W  c #A84F04",
"Q  c #A44C0B",
"!  c #AB5104",
"~  c #B25502",
"^  c #B75801",
"/  c #BC5B02",
"(  c #B15308",
")  c #C25E01",
"_  c #C46101",
"`  c #CA6301",
"'  c #CD6B01",
"]  c #D36700",
"[  c #D46700",
"{  c #D36600",
"}  c #D06B01",
"|  c #D46800",
" . c #D56B00",
".. c #D56A01",
"X. c #D56A00",
"o. c #D66A00",
"O. c #D66B00",
"+. c #D56A00",
"@. c #D86C00",
"#. c #D96C00",
"$. c #D86D00",
"%. c #D96D00",
"&. c #CA7606",
"*. c #CD7A01",
"=. c #D77300",
"-. c #D67100",
";. c #DB7000",
":. c #DC7200",
">. c #DD7200",
",. c #DE7300",
"<. c #DF7500",
"1. c #DC7200",
"2. c #D67F01",
"3. c #DE7A00",
"4. c #E07400",
"5. c #E07500",
"6. c #E07600",
"7. c #E07600",
"8. c #E37800",
"9. c #E47A00",
"0. c #EA7E00",
"q. c #EA7F00",
"w. c #D78002",
"e. c #DB8001",
"r. c #E38501",
"t. c #EC8100",
"y. c #EC8300",
"u. c #E48801",
"i. c #E78901",
"p. c #E58901",
"a. c #E98901",
"s. c #E88B01",
"d. c #E98B01",
"f. c #EB8D01",
"g. c #ED8D00",
"h. c #EA8B01",
"j. c #F38C00",
"k. c #F08F00",
"l. c #F58D00",
"z. c #F58E00",
"x. c #F48C00",
"c. c #F79000",
"v. c #F79100",
"b. c #F59300",
"n. c #F69300",
"m. c #F79100",
"M. c #F89100",
"N. c #F99300",
"B. c #F99200",
"V. c #FA9300",
"C. c #FA9400",
"Z. c #FB9400",
"A. c #FB9500",
"S. c #FC9500",
"D. c #FD9600",
"F. c #FD9700",
"G. c #FC9600",
"H. c #FA9400",
"J. c #FE9800",
"K. c #FE9900",
"L. c #FF9900",
"P. c #FF9A00",
"I. c #FF9900",
"U. c None",
"Y. c black",
/* pixels */
"U.U.L.v.' X.C.C.X.X.V.L.v.S.L.V.;.V.L.L.V.,.V.v.L.L.S.V.X.@.C.L.L.C.@.X.V.S.L.L.v.V.,.V.L.L.V.;.V.L.S.v.L.V.X.X.C.C.X.' v.L.U.U.",
"U.L.S.' p _ C.V.X.X.C.s.l ' S.V.X.,.C.C.5.z.u.x s.S.,.@.X.k.L.L.L.L.j.X.@.,.S.s.x u.z.5.C.C.,.X.V.S.' l s.C.X.X.V.C._ p ' S.L.U.",
"L.L.f.a # / 4.,.{ { ' s & _ s.l i _ v.5.| ' s & ` ' k ) @.C.L.L.L.L.C.@.) k ' ` & s ..X.<.v._ i l s._ & s ' { { ,.,./ # a g.L.L.",
"L.k.S . . i p k ` ) s . # ) ' @ @ ) 5.{ ) s . # ~ j @ i z =.S.L.L.S.=.z i @ j ! # . s ) { <.) @ @ ' ) # . s ) ` k p i . . x k.L.",
"L.u.= s X     . c ) c X # ) ) # X c ` [ / @   # ! #     @ ) 0.t.t.0.) @     # ! &   @ / { ` c X # ) ) # X c ) c .     X s = u.L.",
"L.g.b / k X     X b b @ X b b @   X F ) F @   @ z @     @ b F F F F b @     @ z @   @ F ) F X   @ b b X @ b b X     X k / b g.L.",
"L.V.@.` P # 9 X       . ; .   . .   @ b @   . o + X 9 .                 . 9 X + o .   @ b @   . .   . ; .     . X 9 # P ` @.V.L.",
"L.C.X.! 8 8 K @   . . 8 ~ 8 . . . . . . . . . O 6 : I 8 = . . . . . . = 8 I : 6 O . . . . . . . . . 8 ~ 8 . .   @ K 8 8 ! X.C.L.",
"L.z.^ f ! E #       # ^ ) W % O         . .   O 6 w g ! W @   . .   @ W ! g w 6 O   .   .     . O % W ) ^ #       & E ! f ^ z.L.",
"C.' f $ q % .   .   # W h r w 6 O     . . .   O 6 w w r r O . . . . O r r w w 6 O     . .     O 6 6 r h W #       . % q $ f ' C.",
"V.X.W - P @   . .   + r w w w w 5 o . . . .   O 6 < 6 < 5 O . . . . O 5 < 6 < 6 O   . . . . O 5 w w w w r + . . .   @ P - W X.V.",
"V.@.) q , . . . . . o $ 6 w w 6 $ o . . . . . o $ 3 < 3 $ o . . . . o $ 2 < 3 $ o   . . . . o $ 6 w w 6 $ o . . . . . ; q ) @.V.",
"5.X.) r o   . . . .   . $ < < $ o   . . .       o $ o $ o             o $ O $ o       . . .   o $ < < $ .   . . . .   o r ) X.<.",
"{ ` J e O . . . .   o < o           . .   @ k @         . .               .     @ k @   . .     . .   o < o   . . .   o e J ` { ",
"8.) 0 6 < o .   . i 3 6 1 o . . . . .   o : c @     . . . .   .     . . . . .   @ c : o   . . . . . o 1 6 3 i .   . o < 6 0 ) 8.",
"S.' * 4 N @   . p ^ g 6 3 O . . . . o $ < 6 < $ o     . . . . . . . . . . .   o $ < 6 < $ o . . . . O 3 w g ^ p .   @ N 4 * ' S.",
"L.e.& & *.=   @ U U r 5 O   . . .   O 6 w 6 6 3 O   . . .       . . . . . .   O 5 6 6 w 6 O   . . . . O 5 r U U @   = *.& & e.L.",
"C._ 7 y *.=   . . $ 5 O   . . . .   O 5 6 O o o     . .         . . . . . .     o o O 6 5 O   .   . . . O 5 $ . .   = *.y 7 _ V.",
"V.@.i.g.w.&   . O 3 O       . .     . O O . . .   . . . . o     . O O O o o o   . . . O o           . . . + 3 O .   & w.g.i.@.V.",
"V.;.C.s.y . . . o O .       . .         . . . . . . . . O 3 O   O 6 6 6 6 6 5 O . . . .             . . . . O o . . . y f.C.;.V.",
"V.;.v.' #   O 2 O . . O 1 O . . . .         . . . . .   @ L @   @ R ( Q r $ + o . .         .       O 1 O . . O 1 O   # ' v.;.V.",
"V.@.5.) # @ v e + 1 3 5 6 O . . . .   .     .   .   @ c * m 5   . s / j $ o . . . .     . . . .     O 6 5 3 1 + e v @ # ) 5.@.V.",
"S.3.b j X # ( t 3 w A w 1 o     . . .   o 1 1 1 1 1 0 ~ # < r D X . i .   .   .         . . . . . . o 1 w Z w 3 g ( # X j b 3.S.",
"L.u.&     @ n e 3 3 6 1 o       . . . o < w C C 4 6 e c s O 0 w.v p .       < < O < < o   . . . . . . o 1 6 3 3 r n @     & u.L.",
"j.i.&   . O 6 6 O o 1 o . .       .   O 6 0 K P p r M j / j j i.@./ @ . y u e 3 + 6 6 < $ o . . . .     o 1 o O 6 6 O .   & i.j.",
"5.r.&     O 5 5 O         .   .   .   O 2 O   @ K d U ( ! ! { y.,.) 8 # W ) r O + f h w 5 O   . . .         . O 5 5 O     & r.5.",
"V.u.& . # . o O . .     . . . .     . . . . . + & . + 5 + & / @.j.;./ 9 q ( q o @ E ^ 0 o   . . . .     . . . . O o . # . & u.V.",
",.r.- = U # O 5 O . .   . . . .     . . . . O q E = o o   # / X.@.k.@.~ ; U *   . = U %     . . . .     . . . + 5 O # U = - r.,.",
"V.v./ / ^ # O 6 6 O . .     .     . . . o . O r / E @     & _ j.@.V.z.) & # . . . . # .     . .   . . . .   O 5 6 O # ^ / / v.V.",
"L.L.z._ y . O 6 6 O . .     .     .   O 5 6 6 w f 9 .   @ U | z.@.<.V._ #   .   @ F @       . . . . . . .   O 6 6 O . y _ z.L.L.",
"L.S.9./ % 1 5 6 < o . .         . .   o $ 1 6 r H @     # ) j.S.y.@.z.' U F @ X K / #           . . . .     o < 6 5 1 % / 9.S.L.",
"S.9.X.3.F e 1 < .   .           . . . . . o < 4 ! #     # / 9.t.v.;.z.@.` z # b { ) 4 o             .         . < 1 e F 3.X.9.S.",
"S.9.X.0.` 0 1 1 1 < O < 1 o . .               # ! #     # / 5.X.9.@.z.' b . # / P ^ t 1 o   . .     o < < O < 1 1 1 0 ` 0.X.9.S.",
"L.S.>.U F @ 3 w Z 6 1 6 3 O . .   .           @ H @     # _ V.9.,.X.t.' #   @ c & v r 6 < o . .     O 3 6 1 6 Z w 3 @ F U >.S.L.",
"L.L.g.s . . O 6 w w w 5 O . . . . . . .   o + $ 6 $ o   # _ C.L.C.X.X.r.&   .   . O 3 6 3 O . .       O 5 w w w 6 O . . s g.L.L.",
"L.L.L.r.&   O 6 w w 6 O . . . . . . . .   O 5 6 6 5 O   # _ C.L.z.;.,.r.&   . . . . . o . . . .         O 6 w w 6 O   & r.L.L.L.",
"L.L.L.w.&   O 6 w w 6 + .             . . . O O O O .   # _ C.C.,.z.V.2.&   . @ @ . . . .       . . . . + 6 w w 6 O   & w.L.L.L.",
"L.L.s.y X . O 6 w w w 6 O           . . . . . . . . .   # _ V.V.@.@._ 7 . . @ E E @   .         . . . O 6 w w w 6 O . X y s.L.L.",
"L.C.;.! P % 5 w w 6 < 6 5 O             . . . O 3 0 K @ # / <.V.j._ 8 . @ F # , d +   . . .     . . O 5 6 < 6 w w 5 % P ! ;.C.L.",
"C.5.X.y.` 0 < $ $ $ o $ $ o           . . O 1 + 6 > ! # . p ` V.=.p .   # / P @ + o O 1 O   .   . . o $ $ o $ $ $ < 0 ` t.X.5.C.",
"S.t.X.=.z w 3 1 o . .     . . .       . . O 6 3 6 0 / F X . z ' z @ v v 0 V C 3 o   O 6 O . . .               o 1 3 w z =.X.t.S.",
"L.S.0./ @ 1 3 6 1 o . . . .         . . . o 1 6 3 e Y / #   X j X X b / g 6 1 1 O < 1 6 1 o . .             o 1 6 3 1 @ / 0.S.L.",
"L.L.j.` s . O 6 6 O . .                 .   O 6 1 1 4 H @   .   + o # ! 0 6 O   O 6 5 5 6 O . . .   . .   . O 6 6 O . s ` j.L.L.",
"z.z.! ! / # O 6 5 O . . .               o + $ 6 6 O $ 6 % - . + d + @ K % 1 O   O 2 $ $ 2 O . . . . . . . . O 5 6 O # / ! ! z.z.",
"5.r.= # P @ o 3 O           . . . . .   O 5 6 6 5 + 6 6 e I ; : I * O 5 O o O .   O 5 5 O         . . . . . . O 3 O @ P # = r.5.",
"C.u.& . X . O O .           . . . . . . O O o o o O 6 + O ; U r w 6 + o . + 5 O     o o .           . . . . . . O O . X . & u.V.",
"<.r.&     O 6 6 O . o     . . . . . . O 3 O . . . O 5 O @ P , 6 6 $ 5 O O 6 6 O     . . . .   .         . . . O 6 6 O .   & r.<.",
"V.u.&   . O 6 6 O O 2 O   . . . . . . o O o . . . o + o . - 5 $ + O 6 6 6 6 $ .     . . . . . .         O 2 O O 6 6 O .   & u.V.",
"L.u.&   . @ L r 5 5 6 3 O . . . . .         . .         o 2 6 O . . $ 6 Z 6 O             .         . o 3 w 5 5 r L @     & u.L.",
"S.<.K c @ # ( g 1 w Z w 1 O . . . .         . .         o < < o . . o < < < o       .   . .         o 1 w Z w 1 t ( # X c K <.S.",
"V.@.9.) # X k e O 1 1 1 6 O . . .       . . . .     . . .     . . . .     . . .     . . . . . .     O 6 1 1 1 + e k X # ) 9.@.V.",
"V.;.V.' @   o 1 O     o 1 O . . .       . . . .   . . . . . . . . . . . . . . .       . . . . .     o 1 O .   O 1 o   # ' V.,.V.",
"V.;.C.g.l .   . o + o .     . . .               . . . . . . . . . . . . . . .   . . .     . . .     . . . o + o . . . l g.C.;.V.",
"V.8.C.L.&.: O O O 3 O .   . . . + + O + & .     . . o O o O . . . o O o O o     . . . & + O + +     . . . O 3 O + O : &.S.C.5.V.",
"L.V.L.s.B w w 6 O o         . O 5 6 r h W #       . % 0 $ 5 O . . O 5 $ 0 % .   .   # W f r 6 5 O   . . . . o O 6 w w B s.L.V.L.",
"V.5.z...! g w 6 O           . . O % W ) ^ #       # E ! r 6 O . . O 6 r ! E #       # ^ ) W % O     . . . . . O 6 w g ! ..z.5.V.",
"V.,.i.y 8 I : 6 O . . . . . . . . . 8 ~ 8 . .   @ K 8 8 I : 3 O O 3 : I 8 8 K @     . 8 ~ 8 . .       . . . . O 5 : I 8 y i.,.V.",
"V.,.r.& . 9 X + o .   @ b @   . .   . ; .     . X 9 @ P ` E T @ @ T E ` P # 9 .       . ; .   .     @ b @   . o + X ; . & r.,.V.",
"5.@.r.&     @ z @   @ F ) F X   @ b b X @ b b X     X p j j i . . i j s p X     X b b @ X b b @   X F ) F @   @ z @     & r.@.5.",
"{ t.r.&     # ! #   @ / [ ` c X # ) ) # X c ) c .         . j c c j .         . c ) c X # ) ) # X c ` { / @   & ! #     & r.t.{ ",
"9.y.3.z i @ j ! # . s ) { 5.) @ @ ' ) # . s ) ` k p i X . j ) [ [ ) j . X i p k _ ) s . # ) ' @ @ ) 5.{ ) j . # ! j @ i z 3.y.9.",
"V.5.,.X.) k ' ` & s ' X.5.v._ i l s._ & s ' { { ,.4./ & i ' <.,.,.<.' i & / 4.,.{ { | s & _ s.l i _ v.5.X...s & ` ' k ) X.,.5.V.",
"U.L.V.@.@.,.S.s.x u.z.5.C.C.,.X.V.S.' l s.C.X.X.V.C._ p _ V.L.L.L.L.V._ p _ C.V.X.X.C.s.l ' S.V.X.,.C.C.5.z.u.x s.C.,.@.@.V.L.U.",
"U.U.V.;.v.S.L.L.v.V.,.V.L.L.V.;.V.L.C.v.L.V.X.X.C.C.X.` X.V.L.L.L.L.V.X.` X.C.C.X.X.V.L.v.S.L.V.;.V.L.L.V.,.V.v.L.L.S.v.;.V.U.U."
};
